<?xml version="1.0" encoding="UTF-8" standalone="no"?>
<!-- Created with Inkscape (http://www.inkscape.org/) -->

<svg
   width="273.77951mm"
   height="252.23318mm"
   viewBox="0 0 273.77951 252.23318"
   version="1.1"
   id="svg295"
   xml:space="preserve"
   inkscape:version="1.2.2 (b0a84865, 2022-12-01)"
   sodipodi:docname="menuButton.svg"
   xmlns:inkscape="http://www.inkscape.org/namespaces/inkscape"
   xmlns:sodipodi="http://sodipodi.sourceforge.net/DTD/sodipodi-0.dtd"
   xmlns="http://www.w3.org/2000/svg"
   xmlns:svg="http://www.w3.org/2000/svg"><sodipodi:namedview
     id="namedview297"
     pagecolor="#ffffff"
     bordercolor="#000000"
     borderopacity="0.25"
     inkscape:showpageshadow="2"
     inkscape:pageopacity="0.0"
     inkscape:pagecheckerboard="0"
     inkscape:deskcolor="#d1d1d1"
     inkscape:document-units="mm"
     showgrid="false"
     inkscape:zoom="0.914906"
     inkscape:cx="345.39067"
     inkscape:cy="472.17965"
     inkscape:window-width="3440"
     inkscape:window-height="1412"
     inkscape:window-x="1440"
     inkscape:window-y="28"
     inkscape:window-maximized="0"
     inkscape:current-layer="layer1" /><defs
     id="defs292" /><g
     inkscape:label="Layer 1"
     inkscape:groupmode="layer"
     id="layer1"
     transform="translate(29.744181,-23.395578)"><g
       id="g341"
       transform="translate(-1.2366114e-6,-0.28919178)"><path
         style="fill:#9d9fa3;stroke-width:0.129791"
         d="m 1.6689531,272.98009 c -5.3767831,-0.50488 -9.875988,-2.15283 -13.9826751,-5.12149 -4.304955,-3.11198 -7.725384,-7.65674 -9.825524,-13.05528 -2.528426,-6.49946 -2.832002,-14.20424 -0.842924,-21.39345 2.429043,-8.7794 8.241604,-16.42157 15.8260334,-20.80756 0.8261424,-0.47774 3.3437774,-1.59232 4.9942197,-2.21097 1.128596,-0.42305 4.9035097,-1.05149 8.2363705,-1.37118 1.9867773,-0.19057 6.8265934,-0.26265 27.3907204,-0.40791 9.937915,-0.0702 26.918247,-0.18988 37.73407,-0.26595 10.815823,-0.0761 32.536856,-0.1934 48.268966,-0.26072 29.7466,-0.1273 59.76751,-0.3198 80.8952,-0.51873 12.64128,-0.11903 13.72324,-0.0954 18.17809,0.39622 6.55245,0.72316 13.14997,5.30292 17.54495,12.17907 2.97931,4.66126 4.99269,10.69134 5.588,16.73616 1.01253,10.28113 -2.35165,20.82506 -8.74421,27.40584 -3.11327,3.20494 -7.00305,5.48293 -11.04401,6.46777 -3.35466,0.81758 -5.86997,0.90852 -28.99302,1.0481 -39.98561,0.24138 -88.43472,0.57594 -115.117639,0.79494 -8.533263,0.07 -24.622917,0.18566 -35.754787,0.25693 -11.13187,0.0713 -24.463298,0.15761 -29.625395,0.19186 -5.4754943,0.0363 -9.9442221,0.01 -10.7264359,-0.0636 z m 43.3526789,-0.3907 c 10.394427,-0.0707 25.421015,-0.18543 33.392417,-0.25485 32.348201,-0.28168 58.166321,-0.46731 110.392901,-0.79375 22.23552,-0.139 28.34766,-0.25576 30.72823,-0.58707 4.99759,-0.69554 9.27519,-2.86775 12.98902,-6.596 2.38747,-2.39673 3.99076,-4.7235 5.64161,-8.18733 3.7699,-7.91003 4.4642,-17.54971 1.90822,-26.49354 -2.52593,-8.83876 -7.96351,-15.93989 -14.87381,-19.42431 -2.8864,-1.45542 -6.23925,-2.29932 -9.13536,-2.29932 -0.53325,0 -1.3105,-0.0661 -1.72724,-0.14697 -0.55675,-0.10799 -4.85569,-0.1082 -16.20888,-0.001 -18.44016,0.17449 -50.08896,0.36844 -89.00388,0.54539 -29.63732,0.13477 -51.871812,0.28904 -80.703665,0.55993 -9.340938,0.0878 -17.730543,0.14514 -18.6435671,0.12748 -3.266745,-0.0631 -10.46036547,0.92349 -12.2387332,1.67856 -0.5026561,0.21342 -1.4816912,0.62762 -2.1756328,0.92046 -6.4990839,2.74262 -12.8297319,9.21724 -16.1637369,16.53135 -3.311607,7.26498 -4.135616,15.48629 -2.299049,22.93812 0.987394,4.00631 3.213491,8.50989 5.763323,11.65966 3.865064,4.77446 9.4886549,8.25739 15.2401137,9.43885 3.5273145,0.72458 0.5978494,0.7007 47.1177193,0.38409 z M 1.0304747,181.8773 c -4.7295959,-0.34045 -7.6307074,-1.08832 -11.1733707,-2.88038 -6.432517,-3.25387 -10.990398,-8.40654 -13.73968,-15.53268 -2.977019,-7.71642 -2.756325,-16.99441 0.601176,-25.27343 2.578748,-6.35874 7.334321,-12.16759 12.955396,-15.82477 1.7710418,-1.15227 3.1156555,-1.80505 6.4401956,-3.12656 0.7690548,-0.3057 2.6196127,-0.65404 6.0655441,-1.14173 2.6561516,-0.37592 7.4509822,-0.47879 29.6892423,-0.63692 10.534893,-0.0749 27.457761,-0.19758 37.606374,-0.27258 10.148613,-0.075 31.582328,-0.19185 47.630488,-0.25965 31.12151,-0.13148 59.82826,-0.31676 81.39166,-0.52533 7.29631,-0.0706 13.30674,-0.10233 13.3565,-0.0706 0.0497,0.0318 1.27033,0.14636 2.7124,0.25464 1.44205,0.10828 3.19764,0.31808 3.90128,0.46622 10.48818,2.20808 19.17105,12.93894 21.20941,26.21198 0.56215,3.66048 0.65164,6.23683 0.33208,9.55914 -1.09142,11.3468 -6.80614,20.82613 -15.05729,24.97644 -2.58039,1.29794 -4.92805,1.99298 -7.8197,2.31509 -2.97175,0.33103 -6.8104,0.40887 -25.96286,0.52644 -11.06163,0.0679 -29.19123,0.18289 -40.28798,0.25551 -11.09675,0.0726 -26.03715,0.16582 -33.20087,0.20709 -7.16373,0.0413 -18.972387,0.1315 -26.241463,0.20052 -7.269076,0.069 -22.353127,0.18817 -33.520113,0.26478 -11.166986,0.0766 -27.745076,0.19699 -36.8402,0.26753 -15.9199013,0.12345 -18.7997477,0.12909 -20.0482193,0.0392 z m 41.8841793,-0.44588 c 10.429543,-0.0708 25.398668,-0.18565 33.264721,-0.25515 28.518375,-0.25193 60.056155,-0.47803 110.648295,-0.79325 22.55261,-0.14051 28.68978,-0.25783 31.11122,-0.59469 4.96691,-0.69096 9.33761,-2.95982 13.08831,-6.7942 5.03216,-5.14443 8.01954,-12.15705 8.79079,-20.63559 0.82166,-9.0329 -2.17706,-19.35987 -7.5494,-25.99853 -4.74158,-5.85922 -10.72967,-9.20151 -17.02863,-9.50464 -0.77256,-0.0372 -1.90183,-0.13294 -2.50948,-0.21281 -0.80476,-0.10578 -5.29588,-0.10501 -16.53659,0.003 -17.79144,0.17071 -49.35616,0.36345 -89.87834,0.54882 -28.889611,0.13216 -49.035417,0.27356 -79.554398,0.55838 -9.411171,0.0878 -17.8007763,0.14424 -18.6435677,0.12536 -1.8185345,-0.0408 -3.6281519,0.11879 -7.34250089,0.64733 -3.28188211,0.467 -4.36813801,0.72973 -5.84528061,1.4138 -0.6127732,0.28377 -1.2577909,0.56121 -1.4333724,0.61653 -0.541851,0.1707 -2.2803458,1.10784 -3.4942144,1.88355 -4.906492,3.13546 -9.292467,8.11964 -12.040765,13.68301 -3.623127,7.33428 -4.643837,15.95814 -2.789428,23.56755 1.740874,7.14354 5.859814,13.30204 11.504215,17.20071 3.6776097,2.54016 7.7628712,4.05384 12.45170794,4.61359 1.71110661,0.20427 3.44793116,0.20139 43.78670806,-0.0726 z M -1.7149821,90.670448 C -5.9612423,90.31113 -9.1074809,89.425396 -12.517632,87.629266 -17.746039,84.875461 -21.641649,80.907354 -24.42096,75.50442 c -5.169617,-10.049649 -4.573734,-22.883152 1.540521,-33.178161 3.361725,-5.660377 9.089459,-10.95672 14.0450571,-12.987237 0.6855189,-0.280887 1.7061035,-0.719202 2.2679645,-0.974035 0.9073722,-0.411539 2.2692439,-0.746197 4.3416526,-1.066892 4.4124753,-0.682808 5.0336125,-0.713619 17.3666108,-0.861464 13.541905,-0.162336 39.571059,-0.347739 74.893509,-0.533458 41.034955,-0.215755 71.532975,-0.39546 91.877035,-0.541374 29.36943,-0.210647 27.90892,-0.212421 30.77953,0.03739 2.95162,0.256856 4.60703,0.574336 6.44968,1.236945 8.075,2.90373 14.78799,10.853082 17.55926,20.793269 1.72453,6.18564 1.96915,12.153318 0.75336,18.37882 -0.69409,3.554084 -2.37412,7.950669 -4.20192,10.996302 -3.81396,6.35514 -9.59745,10.611532 -16.15976,11.892864 -2.70126,0.527441 -10.87863,0.786461 -24.8368,0.786714 -4.84605,8.9e-5 -16.13754,0.0621 -25.0922,0.137808 -8.95466,0.0757 -30.5895,0.227452 -48.07742,0.337211 -17.48792,0.109761 -38.490668,0.25476 -46.672767,0.322219 -8.1821,0.06746 -24.156828,0.181832 -35.499396,0.254161 -11.342567,0.07233 -24.357948,0.159025 -28.9230684,0.19266 -4.5651201,0.03363 -8.93231191,0.0077 -9.7048707,-0.05771 z M 40.36074,90.274115 c 10.499776,-0.07093 25.583827,-0.185968 33.520113,-0.255652 28.266027,-0.24818 57.381397,-0.45678 110.712147,-0.793207 27.3264,-0.172383 30.77977,-0.275441 33.58396,-1.002235 5.30373,-1.37463 9.73029,-4.408843 13.23339,-9.0709 2.18673,-2.910175 4.10454,-6.872547 5.16132,-10.66373 2.08436,-7.477652 1.84094,-15.34678 -0.71112,-22.987795 -3.80604,-11.395467 -12.84068,-19.334238 -22.53603,-19.802473 -0.77256,-0.03731 -1.90404,-0.133516 -2.5144,-0.21379 -0.81164,-0.106744 -5.28825,-0.10606 -16.66429,0.0025 -17.63602,0.168369 -49.0476,0.359271 -90.44804,0.549691 -29.589413,0.136096 -51.667958,0.291524 -79.426704,0.559147 -9.095124,0.08769 -17.2836084,0.144057 -18.1966324,0.125269 -2.8870215,-0.05941 -10.0894339,0.877354 -11.8230532,1.537735 -6.5000454,2.476037 -11.1353674,6.033193 -15.2652434,11.714579 -3.313412,4.558194 -5.500539,10.085812 -6.38565,16.138717 -0.31201,2.133708 -0.312873,7.128779 -0.0016,9.234478 1.674441,11.327061 8.700668,20.264948 18.6074226,23.670036 1.9347133,0.664988 3.6885647,1.053346 6.006176,1.329957 1.70973,0.204059 2.39600355,0.202907 43.1482294,-0.07237 z"
         id="path355" /><path
         style="fill:#5d5e60;stroke-width:0.129791"
         d="m 0.78798961,272.66156 c -3.46981181,-0.41431 -6.26087771,-1.22374 -9.01778631,-2.6152 -4.6473033,-2.3456 -8.1702303,-5.51328 -10.9572533,-9.85237 -1.062415,-1.65407 -2.572236,-4.81444 -3.206866,-6.71262 -2.683579,-8.02668 -2.106361,-17.19611 1.593441,-25.3127 3.334005,-7.31411 9.664653,-13.78874 16.1637369,-16.53135 0.6939416,-0.29284 1.6729767,-0.70705 2.1756328,-0.92047 1.77836773,-0.75506 8.9719882,-1.74167 12.2387332,-1.67855 0.9130241,0.0177 9.3026291,-0.0397 18.6435671,-0.12749 28.831853,-0.27088 51.066345,-0.42515 80.703665,-0.55992 38.91492,-0.17695 70.56372,-0.3709 89.00388,-0.54539 11.35319,-0.10745 15.65213,-0.10724 16.20888,0.001 0.41674,0.0808 1.19399,0.14697 1.72724,0.14697 2.89611,0 6.24896,0.8439 9.13536,2.29932 6.9103,3.48442 12.34788,10.58555 14.87381,19.4243 2.55598,8.94383 1.86168,18.58352 -1.90822,26.49355 -1.65085,3.46383 -3.25414,5.7906 -5.64161,8.18733 -3.71383,3.72825 -7.99143,5.90046 -12.98902,6.596 -2.38057,0.33131 -8.49271,0.44807 -30.72823,0.58706 -52.22658,0.32644 -78.0447,0.51208 -110.392901,0.79376 -15.781777,0.13744 -45.371877,0.34483 -64.167073,0.44977 -9.8000203,0.0547 -12.1524299,0.0333 -13.45898639,-0.12275 z m 22.07844439,-0.0626 c 9.305822,-0.0715 25.510402,-0.19247 36.010178,-0.26893 10.499776,-0.0765 24.808076,-0.19604 31.796221,-0.26572 6.988145,-0.0697 22.359507,-0.18686 34.158587,-0.26041 11.79908,-0.0735 28.80815,-0.19498 37.79792,-0.26988 8.98978,-0.0749 24.67719,-0.19141 34.86092,-0.25891 19.6208,-0.13005 20.87251,-0.17174 23.82489,-0.7933 7.71563,-1.62437 14.42447,-7.9305 17.72338,-16.65948 1.50301,-3.97698 2.44246,-9.08772 2.44199,-13.28458 0,-4.4311 -0.97243,-9.66598 -2.58216,-13.90781 -3.22168,-8.48952 -9.3055,-14.91717 -16.43154,-17.36017 -1.92813,-0.66102 -3.01819,-0.88558 -5.11989,-1.05469 -0.94814,-0.0763 -2.30264,-0.20044 -3.01,-0.27588 -0.89197,-0.0951 -5.50981,-0.094 -15.06809,0.004 -17.1242,0.17509 -47.8052,0.37241 -84.07844,0.54075 -15.275593,0.0709 -35.674976,0.18908 -45.331961,0.26264 -66.5960905,0.50726 -62.2464721,0.46745 -63.5285941,0.5816 -1.8565175,0.16528 -6.81648152,0.92013 -7.7894357,1.18545 -0.351163,0.0958 -1.2131088,0.4237 -1.915435,0.72874 -4.4224827,1.92079 -7.4525452,3.97956 -10.5618322,7.1762 -5.047323,5.18912 -8.366225,11.86806 -9.549413,19.21716 -0.341072,2.1185 -0.472206,6.30062 -0.268872,8.57488 0.805678,9.01138 5.396232,17.12493 12.33529,21.8019 4.7821225,3.22318 9.4801763,4.61118 15.8981108,4.697 0.807675,0.0108 9.0823542,-0.0388 18.3881762,-0.1103 z M -0.87205406,181.50403 c -3.61765274,-0.43188 -6.52905644,-1.30428 -9.43322394,-2.82664 -3.052741,-1.60024 -5.111655,-3.15398 -7.384066,-5.57234 -7.046345,-7.49889 -9.692437,-18.71841 -7.009849,-29.72199 2.075765,-8.51447 7.627222,-16.42318 14.701409,-20.94389 1.2138686,-0.77572 2.9523634,-1.71285 3.4942144,-1.88356 0.1755815,-0.0553 0.8205992,-0.33275 1.4333724,-0.61653 1.4771426,-0.68407 2.5633985,-0.9468 5.84528061,-1.4138 3.71434899,-0.52853 5.52396639,-0.68807 7.34250089,-0.64733 0.8427914,0.0189 9.2323967,-0.0375 18.6435677,-0.12536 30.518981,-0.28482 50.664787,-0.42621 79.554398,-0.55837 40.52218,-0.18537 72.0869,-0.37812 89.87834,-0.54882 11.24071,-0.10785 15.73183,-0.10862 16.53659,-0.003 0.60765,0.0799 1.73692,0.17564 2.50948,0.21282 5.29365,0.25474 10.31095,2.60132 14.53988,6.80025 1.90104,1.88756 3.16059,3.4358 4.4502,5.47022 3.12543,4.93049 5.04469,10.84425 5.58871,17.22022 0.52155,6.11262 -0.62625,12.83026 -3.12528,18.29102 -1.5346,3.35331 -3.25783,5.89487 -5.66627,8.35704 -3.7507,3.83438 -8.1214,6.10324 -13.08831,6.7942 -2.42144,0.33686 -8.55861,0.45418 -31.11122,0.59469 -50.59214,0.31523 -82.12992,0.54133 -110.648295,0.79326 -14.936653,0.13196 -43.983509,0.33684 -63.847834,0.45036 -9.5781363,0.0547 -11.89855556,0.0332 -13.20359506,-0.12261 z m 39.70044606,-0.2037 c 20.565315,-0.12839 43.91518,-0.31868 55.99455,-0.45634 3.722329,-0.0424 20.357878,-0.16175 36.967898,-0.26516 16.61001,-0.1034 33.38922,-0.22323 37.28713,-0.26626 3.89791,-0.043 15.64911,-0.13267 26.11377,-0.19919 19.79427,-0.12581 21.36158,-0.173 24.1966,-0.72858 1.56568,-0.30684 3.83201,-1.11095 5.36685,-1.90421 5.02308,-2.5961 8.71263,-6.54297 11.47899,-12.27962 1.17148,-2.42929 1.88046,-4.42598 2.48829,-7.00775 1.6707,-7.09618 1.37701,-13.85993 -0.91228,-21.01054 -2.95868,-9.24142 -9.39715,-16.46276 -17.00279,-19.07021 -1.92876,-0.66123 -3.01866,-0.88577 -5.12051,-1.05489 -0.94814,-0.0763 -2.31041,-0.20142 -3.02727,-0.27806 -0.91674,-0.098 -5.3677,-0.0971 -15.00424,0.003 -15.79082,0.1643 -46.49911,0.35875 -85.97661,0.54443 -15.170245,0.0713 -35.253581,0.18914 -44.629635,0.26175 -63.9711994,0.49542 -61.1186979,0.4688 -62.3793337,0.58203 -2.9800645,0.26768 -7.719705,1.06829 -8.6194576,1.456 -0.3862794,0.16645 -1.4053993,0.60199 -2.2647107,0.96787 -3.5910895,1.52902 -7.724751,4.61419 -10.517511,7.84978 -2.256172,2.61392 -3.964197,5.23057 -5.424084,8.30956 -2.47351,5.2168 -3.494313,10.17071 -3.335698,16.18799 0.110639,4.19724 0.671924,7.0925 2.075575,10.70639 3.590928,9.24532 11.271914,15.77016 20.4746588,17.39282 2.61729764,0.46149 4.0620362,0.51127 12.9744452,0.44709 4.775818,-0.0344 17.733736,-0.11904 28.795373,-0.18809 z M -2.7874891,90.346487 C -5.1051003,90.069876 -6.8589518,89.681518 -8.793665,89.01653 -18.700419,85.611442 -25.726646,76.673555 -27.401088,65.346494 c -0.311278,-2.105699 -0.310415,-7.10077 0.0016,-9.234478 1.398506,-9.563804 6.051148,-17.722342 13.295376,-23.313815 2.387994,-1.843177 4.9939558,-3.258974 8.3555174,-4.539481 1.7336193,-0.660381 8.9360317,-1.597144 11.8230532,-1.537735 0.913024,0.01879 9.1015084,-0.03758 18.1966324,-0.125269 27.758746,-0.267623 49.837291,-0.423051 79.426709,-0.559147 41.40043,-0.19042 72.81201,-0.381322 90.44803,-0.54969 11.37604,-0.108606 15.85266,-0.10929 16.66429,-0.0025 0.61036,0.08027 1.74184,0.176479 2.5144,0.213789 7.98272,0.385524 15.54844,5.774222 20.19718,14.385477 2.48471,4.602637 3.98385,10.030785 4.39025,15.896495 0.34264,4.945047 -0.5363,10.852095 -2.29177,15.402234 -3.43963,8.915527 -9.5218,14.787607 -17.44322,16.840692 -2.80419,0.726795 -6.25756,0.829853 -33.58396,1.002236 -53.33075,0.336426 -82.44611,0.545026 -110.712142,0.793207 -14.420659,0.126617 -42.653316,0.325955 -63.847834,0.450799 -9.24411254,0.05445 -11.5180404,0.03268 -12.8205081,-0.122776 z M 36.52987,90.147042 c 11.202103,-0.06761 23.384269,-0.155729 27.071482,-0.195824 14.874545,-0.161745 38.192508,-0.351094 65.316338,-0.530388 63.0228,-0.416593 70.26538,-0.471983 77.63896,-0.593774 8.18062,-0.13512 9.59058,-0.236282 11.97604,-0.859264 5.94766,-1.553275 11.33214,-5.924878 14.75996,-11.983447 2.45192,-4.333706 3.88907,-9.093817 4.36363,-14.453131 0.19513,-2.20375 0.0922,-6.792487 -0.19549,-8.717226 -0.47421,-3.172293 -1.40191,-6.594519 -2.5653,-9.463239 -2.79106,-6.882267 -7.8108,-12.557775 -13.61821,-15.397241 -2.55079,-1.247175 -4.66119,-1.824531 -7.50582,-2.053418 -0.94814,-0.07629 -2.31271,-0.201709 -3.03238,-0.278708 -0.92412,-0.09887 -5.40655,-0.09792 -15.25963,0.0033 -17.24659,0.177106 -48.92919,0.372462 -87.5677,0.539946 -16.18862,0.07017 -32.278274,0.158457 -35.754789,0.196189 -3.476514,0.03773 -15.773607,0.129554 -27.326872,0.204048 -11.553266,0.07449 -25.085814,0.189898 -30.07233,0.256453 -4.9865159,0.06655 -9.2284676,0.08702 -9.4265593,0.04547 -0.6097034,-0.127877 -4.86973557,0.349023 -8.4496759,0.945919 -1.9969866,0.332965 -2.4378533,0.474271 -5.065502,1.623595 -7.6455088,3.344117 -14.2311888,10.756197 -17.3251808,19.49922 -2.476698,6.998669 -2.680118,14.952914 -0.552955,21.621891 2.037619,6.388239 5.892674,11.691024 11.002935,15.134982 4.072206,2.744382 8.1605688,4.162227 13.2165012,4.583485 0.7725588,0.06437 5.1397506,0.08938 9.7048707,0.05558 4.5651201,-0.0338 17.4655751,-0.116773 28.6676771,-0.184381 z"
         id="path353" /><path
         style="fill:#294681;stroke-width:0.129791"
         d="m 2.0520401,266.37552 c -2.50606324,-0.14456 -5.0480868,-0.88031 -7.7255879,-2.23602 -4.7424302,-2.40128 -8.6280322,-6.92048 -10.5948752,-12.3225 -0.920657,-2.52863 -1.600061,-6.35608 -1.600061,-9.01403 0,-3.3257 0.816034,-7.27665 2.192911,-10.61727 2.522751,-6.1208 6.8493533,-10.95593 12.4361268,-13.89783 3.2453688,-1.70896 5.9327216,-2.50383 9.5054433,-2.81159 0.8779077,-0.0756 1.8835111,-0.16547 2.2346742,-0.19968 0.351163,-0.0342 12.8206447,-0.0922 27.7099597,-0.12894 34.206046,-0.0843 59.843983,-0.1901 65.188639,-0.26889 4.37561,-0.0645 16.52429,-0.14772 39.7772,-0.27243 7.72559,-0.0414 14.62115,-0.099 15.32348,-0.12792 0.70233,-0.0289 13.45912,-0.057 28.34844,-0.0624 18.4086,-0.007 27.66226,-0.0563 28.9177,-0.15502 2.32563,-0.18293 3.83861,-0.0238 5.94321,0.62497 1.75273,0.54031 3.73108,1.56139 5.17168,2.66924 1.53488,1.18035 3.76327,3.59286 4.96114,5.37105 1.31732,1.95552 3.02133,5.48851 3.72214,7.71731 2.25178,7.16141 1.9872,15.04184 -0.72536,21.60403 -2.4251,5.86676 -6.78281,10.3306 -11.46955,11.74887 -2.04464,0.61874 -2.67487,0.68298 -6.66671,0.67957 -2.09238,-0.002 -9.95288,0.0582 -17.46777,0.13325 -7.51489,0.0751 -22.54148,0.19625 -33.39242,0.26926 -10.85094,0.073 -24.32602,0.19091 -29.94463,0.26199 -5.61861,0.0711 -15.96196,0.16911 -22.98522,0.21784 -7.02327,0.0487 -13.286738,0.0981 -13.918832,0.10977 -0.632093,0.0116 -8.820578,0.0633 -18.196632,0.11488 -9.376054,0.0515 -20.954859,0.15087 -25.730677,0.22078 -4.775818,0.0699 -12.016162,0.12663 -16.089654,0.12604 -4.073492,0 -11.629883,0.0599 -16.79198,0.13439 -13.0373039,0.18817 -16.4381651,0.20904 -18.1327849,0.11127 z M 0.20045291,175.21584 c -0.70232617,-0.0478 -1.70792951,-0.18364 -2.23467421,-0.30184 -2.3591864,-0.52942 -5.5719519,-1.88214 -7.3425008,-3.09152 -2.2313999,-1.52417 -4.6762009,-4.04222 -6.1852929,-6.3706 -0.84033,-1.29655 -2.093627,-3.85504 -2.541454,-5.18814 -1.088253,-3.23955 -1.635758,-7.72427 -1.312577,-10.75157 0.507526,-4.75411 1.560031,-8.06777 3.863069,-12.16232 1.673514,-2.97533 5.004661,-6.5934 7.9639942,-8.64996 2.1084011,-1.46522 5.125012,-2.90342 7.40362879,-3.52976 2.02786981,-0.55742 3.04457751,-0.71091 6.91902631,-1.04452 0.4328027,-0.0373 11.7242917,-0.0981 25.0921987,-0.13524 40.999128,-0.11384 61.803714,-0.19985 65.742528,-0.2718 2.071862,-0.0378 15.087241,-0.13105 28.923071,-0.20714 13.83582,-0.0761 25.87433,-0.15918 26.75224,-0.18466 0.87791,-0.0255 14.09441,-0.0583 29.37,-0.073 17.02865,-0.0164 28.49016,-0.078 29.6254,-0.15939 2.31462,-0.1659 3.74444,-0.0124 5.7463,0.61704 5.04125,1.58502 9.18047,5.50029 12.15137,11.49393 2.95212,5.95574 3.95888,12.86974 2.84644,19.54792 -0.17496,1.05026 -0.8229,3.58274 -1.20738,4.71896 -0.45891,1.35626 -1.61011,3.9062 -2.20362,4.88108 -1.80648,2.96736 -4.14178,5.42229 -6.71255,7.05645 -1.36508,0.86773 -3.59627,1.66423 -5.51274,1.96793 -0.46727,0.074 -5.29462,0.16323 -11.04567,0.20405 -5.61861,0.0399 -13.51978,0.10134 -17.55815,0.13658 -4.03838,0.0352 -16.10562,0.12533 -26.81609,0.20022 -10.71048,0.0749 -24.44415,0.19344 -30.51927,0.26344 -6.07512,0.07 -17.22295,0.16014 -24.77296,0.20031 -7.550005,0.0402 -13.957135,0.0985 -14.238066,0.12964 -0.28093,0.0311 -7.43508,0.0884 -15.89811,0.12729 -16.181351,0.0743 -29.635427,0.20099 -29.767721,0.28022 -0.04316,0.0259 -5.387227,0.0589 -11.875697,0.0734 -6.488471,0.0145 -14.325593,0.072 -17.415828,0.12775 -8.4309405,0.15209 -15.8050511,0.19284 -17.23891509,0.0952 z M -3.6331089,83.821172 C -8.226211,82.780663 -11.451148,81.046005 -14.527712,77.961089 -18.82587,73.651262 -21.188667,67.957766 -21.405174,61.38886 c -0.112603,-3.416433 0.253931,-6.030807 1.311062,-9.351396 1.410789,-4.431472 3.618033,-8.066455 6.903898,-11.369631 4.2297236,-4.252006 9.434433,-6.829447 15.047969,-7.451951 2.9887707,-0.331435 4.3441261,-0.342891 60.658183,-0.51271 13.484663,-0.04066 27.103406,-0.103989 30.263873,-0.140722 5.892313,-0.06848 15.559489,-0.131463 42.075719,-0.274109 8.32257,-0.04477 15.16819,-0.104066 15.2125,-0.131765 0.0443,-0.0277 13.20337,-0.05756 29.24231,-0.06634 19.11818,-0.01048 29.79945,-0.06409 31.01333,-0.155673 2.19713,-0.165759 3.45744,-0.03804 5.55476,0.562925 6.18196,1.771367 11.53108,7.854414 14.11112,16.047235 1.77862,5.64793 1.95277,11.573692 0.51318,17.461382 -1.31939,5.396126 -4.23378,10.144149 -8.09726,13.191804 -1.80164,1.421198 -3.93019,2.413811 -6.19365,2.888305 -1.24719,0.261449 -1.72531,0.278323 -7.98098,0.281671 -3.65988,0.002 -9.92971,0.05863 -13.93297,0.125944 -4.00326,0.06731 -12.30667,0.136296 -18.45203,0.153303 -6.14535,0.01701 -14.67861,0.07361 -18.9628,0.125796 -4.28419,0.05218 -12.32902,0.129756 -17.8774,0.172386 -5.54837,0.04263 -16.92606,0.133824 -25.28374,0.202651 -8.35768,0.06883 -24.878307,0.186005 -36.712503,0.260393 -11.834196,0.07439 -23.125686,0.167029 -25.092199,0.205869 -1.966513,0.03884 -8.000134,0.10185 -13.408045,0.140021 -5.407911,0.03817 -12.016162,0.09492 -14.685002,0.126098 -2.668839,0.03118 -9.679331,0.08934 -15.5788711,0.129245 -10.3550996,0.07004 -10.7663154,0.06351 -11.8783888,-0.188414 z"
         id="path351" /><path
         style="fill:#26427b;stroke-width:0.129791"
         d="m 1.1581704,266.56908 c -2.9765694,-0.47854 -5.9068223,-1.50315 -8.1079431,-2.83511 -3.6456043,-2.20604 -7.0059433,-6.04816 -8.8219973,-10.08682 -1.667574,-3.70847 -2.573618,-8.84017 -2.233058,-12.64769 1.158171,-12.94855 9.9621042,-23.20803 21.8446074,-25.45615 0.5969773,-0.11294 1.9331898,-0.26071 2.969361,-0.32834 1.0361712,-0.0676 1.9268484,-0.15 1.9792828,-0.18302 0.052434,-0.033 15.2081168,-0.0959 33.6792958,-0.13975 18.471178,-0.0439 37.204132,-0.10908 41.628787,-0.14495 41.294944,-0.33468 132.093784,-0.73476 133.058884,-0.58628 0.28093,0.0432 -0.26497,0.0781 -1.21311,0.0775 -0.94814,0 -4.05114,0.0387 -6.89556,0.0872 -2.84442,0.0486 -19.27886,0.11845 -36.52096,0.15528 -17.24211,0.0368 -31.63661,0.0938 -31.98777,0.12658 -0.35116,0.0328 -8.91316,0.0949 -19.02665,0.13798 -10.1135,0.0431 -19.62364,0.10465 -21.13364,0.1368 -3.402345,0.0724 -28.861405,0.17751 -64.294765,0.26536 -14.819082,0.0367 -27.2311007,0.0948 -27.5822637,0.12893 -0.3511631,0.0342 -1.3567665,0.12399 -2.2346742,0.19961 -3.5727217,0.30776 -6.2600745,1.10263 -9.5054433,2.81159 -7.1237318,3.75123 -12.2461118,10.68846 -14.0000658,18.96023 -0.889757,4.19618 -0.807464,7.94275 0.267846,12.19432 1.364382,5.3945 4.311228,9.85904 8.629432,13.07376 2.1713103,1.61646 5.4516984,3.04165 8.32477425,3.61679 1.27051185,0.25433 1.79601915,0.273 7.43271785,0.26386 3.3360489,-0.005 9.3984009,-0.0659 13.4718929,-0.13437 4.073492,-0.0685 11.026521,-0.12609 15.451176,-0.12803 4.424655,-0.002 11.952314,-0.0607 16.728132,-0.13061 4.775818,-0.0699 16.354623,-0.16926 25.730677,-0.22078 9.376054,-0.0516 17.564539,-0.10323 18.196632,-0.11488 0.632094,-0.0116 6.895562,-0.0611 13.918832,-0.10977 7.02326,-0.0487 17.36661,-0.14676 22.98522,-0.21784 5.61861,-0.0711 19.09369,-0.18897 29.94463,-0.26199 10.85094,-0.073 25.87753,-0.19418 33.39242,-0.26926 7.51489,-0.0751 15.37539,-0.13505 17.46777,-0.13325 3.99184,0.003 4.62207,-0.0608 6.66671,-0.67957 3.89774,-1.17951 7.79301,-4.66606 10.25464,-9.17865 3.77626,-6.92256 4.50599,-16.0144 1.94027,-24.17425 -0.70081,-2.2288 -2.40482,-5.76179 -3.72214,-7.71731 -1.19828,-1.77878 -3.42717,-4.19165 -4.96114,-5.37063 -0.52675,-0.40484 -1.56108,-1.0679 -2.29852,-1.47345 -0.73745,-0.40557 -1.28334,-0.73745 -1.21311,-0.73753 0.26494,0 2.64847,1.4125 3.66574,2.17284 1.5683,1.1722 3.68826,3.43837 5.001,5.3459 1.30841,1.90126 2.99749,5.33545 3.69688,7.51641 0.52471,1.63625 1.03317,3.91453 1.31589,5.89619 0.25387,1.77939 0.28667,6.32885 0.0583,8.08745 -0.724,5.5754 -2.5266,10.13067 -5.50943,13.92268 -1.70852,2.17199 -4.49887,4.43928 -6.54802,5.32056 -2.18403,0.93931 -4.63476,1.43697 -6.30592,1.28052 -0.51476,-0.0482 -5.22979,-0.0258 -10.47782,0.0497 -5.24805,0.0755 -17.87404,0.19997 -28.05777,0.27653 -10.18373,0.0766 -24.80807,0.19567 -32.49854,0.26466 -19.52789,0.1752 -41.99564,0.35842 -55.100685,0.44937 -28.665267,0.19892 -48.159606,0.3486 -61.102377,0.46912 C 10.06473,266.57756 1.5342854,266.62945 1.1581604,266.569 Z M 220.34778,215.07696 c -0.16839,-0.0748 -0.19015,-0.11585 -0.0639,-0.12062 0.10535,-0.004 0.27774,0.0503 0.38309,0.12062 0.23343,0.15584 0.0318,0.15584 -0.31924,0 z m -0.71466,-0.18864 c -0.0302,-0.0312 -0.48511,-0.176 -1.01093,-0.3218 -0.52581,-0.1458 -0.81236,-0.26569 -0.63678,-0.26643 0.36465,-0.002 2.21352,0.6117 1.9048,0.63179 -0.11121,0.007 -0.22689,-0.0124 -0.25709,-0.0436 z M -0.50187326,175.41141 c -5.18654724,-0.8311 -9.12907814,-2.87244 -12.60287274,-6.52541 -1.395848,-1.46785 -1.747329,-1.91199 -2.751877,-3.47734 -2.771888,-4.31931 -4.262571,-10.453 -3.805221,-15.65728 0.615369,-7.0024 3.376673,-13.14571 8.053867,-17.91814 3.9199305,-3.99974 8.9181866,-6.66401 14.1069519,-7.51958 2.2028971,-0.36323 5.358718,-0.41385 33.0093301,-0.52941 41.316092,-0.17268 90.309815,-0.44531 106.115095,-0.59048 3.89791,-0.0358 20.70586,-0.0954 37.35099,-0.13243 16.64513,-0.037 31.49933,-0.0987 33.00933,-0.13713 1.51,-0.0384 3.02474,-0.0231 3.36607,0.034 0.42746,0.0715 -0.16871,0.11133 -1.91544,0.12804 -1.39482,0.0133 -2.73717,0.0545 -2.98298,0.0914 -0.24582,0.0369 -13.06008,0.0785 -28.47614,0.0924 -15.41605,0.0139 -33.2296,0.0727 -39.58565,0.13067 -29.19025,0.26622 -71.806874,0.49758 -107.724284,0.58483 -14.896456,0.0362 -27.4521329,0.0977 -27.9015029,0.1368 -3.9510725,0.3434 -4.9158822,0.48887 -6.94914711,1.04777 -2.27861679,0.62634 -5.29522769,2.06454 -7.40362879,3.52976 -2.9593332,2.05656 -6.2904802,5.67463 -7.9639942,8.64996 -2.303038,4.09455 -3.355543,7.40821 -3.863069,12.16232 -0.323181,3.0273 0.224324,7.51202 1.312577,10.75157 0.447827,1.3331 1.701124,3.89159 2.541454,5.18814 1.509092,2.32838 3.953893,4.84643 6.1852929,6.3706 1.9166826,1.3092 5.194873,2.64667 7.7648887,3.168 1.21447776,0.24636 1.76257694,0.26237 8.1970697,0.23957 3.7925617,-0.0135 9.0504307,-0.0653 11.6841537,-0.11524 2.633723,-0.0499 10.097335,-0.10373 16.585806,-0.11957 6.48847,-0.0159 11.832534,-0.05 11.875697,-0.0758 0.132294,-0.0792 13.58637,-0.20589 29.767721,-0.28022 8.46303,-0.0389 15.61718,-0.0962 15.89811,-0.12729 0.280931,-0.0311 6.688061,-0.0895 14.238066,-0.12964 7.55001,-0.0402 18.69784,-0.13031 24.77296,-0.20031 6.07512,-0.07 19.80879,-0.18854 30.51927,-0.26344 10.71047,-0.0749 22.77771,-0.16499 26.81609,-0.20022 4.03837,-0.0352 11.93954,-0.0967 17.55815,-0.13658 5.75105,-0.0408 10.5784,-0.13 11.04567,-0.20405 1.91647,-0.3037 4.14766,-1.1002 5.51274,-1.96793 2.0589,-1.30877 3.96983,-3.1322 5.45955,-5.20955 1.17665,-1.64077 1.54738,-2.27424 2.35472,-4.02359 2.69686,-5.84354 3.43244,-12.54977 2.10536,-19.19453 -1.36805,-6.84997 -4.9651,-13.0573 -9.63529,-16.6274 -0.49882,-0.38132 -1.08781,-0.78994 -1.30888,-0.90804 -0.22107,-0.1181 -0.40193,-0.24441 -0.40193,-0.28068 0,-0.13103 0.84858,0.38388 1.7235,1.04579 3.1486,2.38205 5.5853,5.48137 7.48044,9.51467 2.07405,4.41402 2.94893,8.48919 2.94546,13.7198 -0.002,3.10843 -0.22885,5.05516 -0.90276,7.74915 -1.95622,7.82006 -6.9308,13.93334 -12.90669,15.86107 -1.55831,0.50269 -3.42356,0.76982 -4.67501,0.66953 -0.56963,-0.0457 -5.42526,-0.0209 -10.79029,0.055 -5.36503,0.0759 -17.74196,0.19685 -27.50429,0.2688 -30.95125,0.22815 -35.11084,0.26304 -47.2474,0.39633 -6.53163,0.0717 -21.06978,0.19068 -32.307,0.26432 -27.083273,0.17746 -52.139957,0.36884 -69.2749,0.52911 -19.0603477,0.17827 -28.09607265,0.23283 -28.47613326,0.17192 z M 220.53933,124.711 c -0.38628,-0.21083 -0.65732,-0.38612 -0.60232,-0.38954 0.13572,-0.008 1.36849,0.64156 1.36849,0.72156 0,0.0881 0.0177,0.0958 -0.76617,-0.33202 z m -1.14926,-0.52769 c -0.10535,-0.0703 -0.13409,-0.12788 -0.0639,-0.12788 0.0702,0 0.21389,0.0575 0.31924,0.12788 0.10535,0.0703 0.13408,0.12788 0.0638,0.12788 -0.0702,0 -0.21389,-0.0575 -0.31923,-0.12788 z m -1.02157,-0.3438 c -0.31605,-0.10683 -0.97687,-0.30736 -1.4685,-0.44563 -0.49163,-0.13828 -0.77164,-0.25468 -0.62226,-0.25867 0.26753,-0.007 2.71864,0.72934 2.83814,0.85278 0.10136,0.10473 -0.14034,0.0567 -0.74738,-0.14848 z M -2.7483797,84.203167 c -1.885069,-0.250385 -4.8882897,-1.235634 -6.8266908,-2.239591 -3.8542495,-1.996233 -7.4094965,-5.7166 -9.4919535,-9.9328 -2.107808,-4.267527 -3.019208,-9.681944 -2.446415,-14.533589 1.133206,-9.598421 6.807235,-17.892452 15.0737172,-22.034059 3.0627078,-1.534454 6.91662433,-2.558975 9.6555176,-2.566813 0.4644841,-0.0013 1.1262503,-0.05761 1.4705931,-0.125078 C 5.0545496,32.699106 18.199799,32.61641 36.595811,32.570495 53.80165,32.527551 76.900855,32.435863 87.927376,32.366743 172.41456,31.837139 212.69054,31.692445 213.963,31.913951 c 0.96535,0.168047 2.52493,0.592145 2.45254,0.666925 -0.0245,0.02528 -0.61503,-0.108474 -1.31236,-0.297222 -1.482,-0.401135 -1.41789,-0.399556 -10.97275,-0.27035 -3.51163,0.04749 -20.14718,0.118334 -36.96789,0.157438 -16.82071,0.03911 -31.35887,0.09488 -32.30701,0.12395 -0.94814,0.02907 -10.64449,0.08839 -21.54747,0.131819 -10.90296,0.04343 -19.89592,0.102443 -19.984361,0.131133 -0.08844,0.02869 -13.089987,0.09061 -28.892326,0.137597 -58.4010881,0.173653 -59.5292448,0.18304 -62.573618,0.520641 -4.4246102,0.49066 -8.6934649,2.239709 -12.378067,5.071581 -4.458365,3.426562 -7.827914,8.265947 -9.5738,13.750001 -1.057131,3.320589 -1.423665,5.934963 -1.311062,9.351396 0.216507,6.568906 2.579304,12.262402 6.877462,16.572229 3.115604,3.124063 6.4110345,4.880647 11.0162945,5.872084 1.2660693,0.272563 1.4470984,0.275459 11.8843931,0.190071 5.8293074,-0.04769 12.7823364,-0.11211 15.4511754,-0.143155 2.66884,-0.03104 9.277091,-0.08767 14.685002,-0.125846 5.407911,-0.03817 11.441532,-0.101181 13.408045,-0.140021 1.966513,-0.03884 13.258003,-0.131482 25.092199,-0.205869 11.834196,-0.07439 28.354823,-0.191564 36.712503,-0.260393 8.35768,-0.06883 19.73537,-0.16002 25.28374,-0.202651 5.54838,-0.04263 13.59321,-0.120203 17.8774,-0.172386 4.28419,-0.05218 12.81745,-0.10879 18.9628,-0.125796 6.14536,-0.01701 14.44877,-0.08599 18.45203,-0.153303 4.00326,-0.06731 10.27309,-0.123985 13.93297,-0.125944 6.25567,-0.0034 6.73379,-0.02022 7.98098,-0.281671 2.26346,-0.474494 4.39201,-1.467107 6.19365,-2.888305 6.65542,-5.250044 10.07567,-15.031179 8.7843,-25.121098 -0.26748,-2.08997 -0.60244,-3.633858 -1.20022,-5.532088 -2.1061,-6.687839 -6.09897,-12.064697 -10.9435,-14.736693 -0.57548,-0.317409 -1.02432,-0.599849 -0.99743,-0.627644 0.0269,-0.02779 0.58395,0.255374 1.2379,0.629263 4.99457,2.855687 8.95844,8.220485 11.00344,14.892348 1.53455,5.006491 1.80032,10.999369 0.71768,16.182778 -1.88482,9.023998 -7.71306,15.947572 -14.65401,17.407959 -0.87737,0.184601 -2.05,0.23023 -6.89557,0.268315 -3.21112,0.02524 -12.27427,0.108176 -20.14032,0.184302 -7.86606,0.07613 -22.26055,0.199392 -31.98777,0.273924 -9.72722,0.07453 -23.17357,0.194988 -29.88078,0.26768 -6.70722,0.07269 -21.47522,0.192524 -32.817791,0.266297 -22.803598,0.148316 -46.631305,0.328231 -69.84953,0.527411 -8.392798,0.072 -17.8454697,0.152269 -21.0059374,0.178377 -3.16046778,0.02611 -6.0964082,9.24e-4 -6.5243113,-0.05587 z M 217.47463,33.02582 c -0.10535,-0.07034 -0.13408,-0.127881 -0.0639,-0.127881 0.0702,0 0.21389,0.05755 0.31924,0.127881 0.10535,0.07033 0.13408,0.127881 0.0639,0.127881 -0.0702,0 -0.21389,-0.05755 -0.31924,-0.127881 z"
         id="path349" /><path
         style="fill:#1d325e;stroke-width:0.129791"
         d="m 3.2993599,272.63089 c 0.2295138,-0.0294 0.5742921,-0.0288 0.766174,10e-4 0.1918819,0.0301 0.0041,0.0541 -0.417298,0.0534 -0.4213957,-0.001 -0.5783898,-0.0254 -0.348876,-0.0547 z m 4.5309091,-0.003 c 0.9656985,-0.0224 2.545932,-0.0224 3.511631,0 0.965698,0.0224 0.175581,0.0408 -1.7558156,0.0408 -1.9313969,0 -2.7215139,-0.0183 -1.7558154,-0.0408 z m -6.5763268,-0.12067 c 0.087791,-0.0366 0.2314484,-0.0366 0.3192391,0 0.087791,0.0366 0.015962,0.0665 -0.1596196,0.0665 -0.1755815,0 -0.2474103,-0.0299 -0.1596195,-0.0665 z m 24.3966648,-0.0111 c 0.72362,-0.0236 1.872881,-0.0235 2.553913,0 0.681033,0.0237 0.08898,0.043 -1.315673,0.0428 -1.404652,-1.2e-4 -1.96186,-0.0195 -1.23824,-0.043 z m -25.67362151,-0.12083 c 0.08779077,-0.0366 0.2314484,-0.0366 0.31923917,0 0.0877908,0.0366 0.015962,0.0665 -0.15961959,0.0665 -0.17558154,0 -0.24741035,-0.0299 -0.15961958,-0.0665 z m 46.48122251,-0.0113 c 1.14128,-0.0218 3.008829,-0.0218 4.150109,0 1.14128,0.0219 0.207506,0.0398 -2.075054,0.0398 -2.28256,0 -3.216335,-0.0179 -2.075055,-0.0398 z m 16.146425,-0.13159 c 0.751107,-0.0233 2.015295,-0.0234 2.809305,0 0.794009,0.0232 0.179466,0.0422 -1.365652,0.0423 -1.545117,9e-5 -2.194761,-0.0189 -1.443653,-0.0422 z m 15.785533,-0.13229 c 1.145703,-0.0219 2.984521,-0.0218 4.086261,1e-4 1.101742,0.0219 0.164349,0.0399 -2.083095,0.0398 -2.247444,-6e-5 -3.148868,-0.018 -2.003166,-0.0399 z m 15.372828,-0.1313 c 0.610983,-0.0241 1.645318,-0.0242 2.298522,0 0.653204,0.024 0.153309,0.0437 -1.110878,0.0439 -1.264187,0 -1.798627,-0.0195 -1.187644,-0.0436 z m 13.853206,-0.13249 c 1.20698,-0.0217 3.21818,-0.0217 4.46934,-8e-5 1.25117,0.0216 0.26363,0.0393 -2.19451,0.0394 -2.45814,6e-5 -3.48181,-0.0176 -2.27483,-0.0393 z m 17.63023,-0.13205 c 1.70315,-0.0208 4.4901,-0.0208 6.19324,0 1.70315,0.0208 0.30967,0.0378 -3.09662,0.0378 -3.40628,0 -4.79976,-0.017 -3.09662,-0.0378 z m 20.24869,-0.13196 c 1.8134,-0.0206 4.74401,-0.0206 6.51248,4e-5 1.76847,0.0207 0.28478,0.0376 -3.29709,0.0376 -3.58186,-3e-5 -5.02878,-0.0169 -3.21539,-0.0376 z m 19.84775,-0.1317 c 1.00082,-0.0223 2.63852,-0.0223 3.63933,0 1.00082,0.0223 0.18197,0.0405 -1.81966,0.0405 -2.00163,0 -2.82048,-0.0183 -1.81967,-0.0405 z m 14.36577,-0.13206 c 1.38709,-0.0213 3.65688,-0.0213 5.04398,0 1.38709,0.0213 0.25219,0.0387 -2.52199,0.0387 -2.77419,0 -3.90909,-0.0174 -2.52199,-0.0387 z m 21.64441,-0.13195 c 1.56268,-0.021 4.11978,-0.021 5.68246,0 1.56268,0.021 0.28412,0.0382 -2.84123,0.0382 -3.12535,0 -4.4039,-0.0172 -2.84123,-0.0382 z m 14.04653,-0.12854 c 0.22825,-0.0293 0.60176,-0.0293 0.83002,0 0.22825,0.0293 0.0415,0.0532 -0.41501,0.0532 -0.45652,0 -0.64327,-0.0239 -0.41501,-0.0532 z m 2.10697,-0.12743 c 0.12291,-0.0332 0.32403,-0.0332 0.44694,0 0.12291,0.0332 0.0224,0.0603 -0.22347,0.0603 -0.24581,0 -0.34637,-0.0272 -0.22347,-0.0603 z m 1.60418,-0.1311 c 0.0922,-0.0381 0.20232,-0.0334 0.24476,0.0104 0.0424,0.0438 -0.033,0.075 -0.16761,0.0693 -0.14876,-0.006 -0.17901,-0.0376 -0.0772,-0.0797 z M 1.235909,266.78155 c -3.0809555,-0.36843 -7.0844139,-1.92027 -9.5505709,-3.70205 -5.1987311,-3.75603 -8.4140041,-9.10708 -9.6209081,-16.01166 -0.28484,-1.62955 -0.386814,-5.20997 -0.197347,-6.92908 0.952883,-8.64593 5.375921,-16.13363 12.3316736,-20.87611 2.9021879,-1.97872 6.49057534,-3.41382 9.9929099,-3.99643 2.5090628,-0.41739 4.9421965,-0.48013 20.5263545,-0.52931 31.21799,-0.0985 80.694339,-0.32681 98.006429,-0.45224 14.29661,-0.10357 60.2061,-0.31529 88.74848,-0.40927 6.02449,-0.0198 6.2226,1.2e-4 8.811,0.88783 7.36656,2.52638 13.08927,10.41223 14.82716,20.4317 0.42691,2.46136 0.4886,7.15432 0.12757,9.70462 -0.84895,5.9966 -3.06046,10.97819 -6.51218,14.66916 -1.73921,1.85976 -3.14846,2.955 -5.05861,3.93148 -1.86848,0.95517 -3.59246,1.44917 -5.29937,1.5185 -0.66721,0.0271 -7.36166,0.10991 -14.87655,0.18403 -13.94662,0.13755 -19.33316,0.18182 -48.90744,0.40189 -9.2707,0.069 -21.91257,0.18423 -28.09304,0.25609 -6.18047,0.0719 -20.63243,0.19144 -32.115463,0.26577 -11.483033,0.0743 -28.233512,0.19463 -37.223287,0.26736 -30.42982,0.24622 -47.6161445,0.39485 -51.3336577,0.44399 -2.0367459,0.0269 -4.099165,0.002 -4.5831533,-0.0563 z m 28.270699,-0.38495 c 12.942771,-0.12052 32.43711,-0.2702 61.102377,-0.46912 13.105045,-0.091 35.572795,-0.27417 55.100685,-0.44937 7.69047,-0.069 22.31481,-0.18808 32.49854,-0.26466 10.18373,-0.0766 22.80972,-0.201 28.05777,-0.27653 5.24803,-0.0755 9.96306,-0.0979 10.47782,-0.0497 1.67116,0.15645 4.12189,-0.34121 6.30592,-1.28052 2.04915,-0.88128 4.8395,-3.14857 6.54802,-5.32056 2.98283,-3.79201 4.78543,-8.34728 5.50943,-13.92268 0.22836,-1.7586 0.19556,-6.30806 -0.0583,-8.08745 -0.52904,-3.70821 -1.29686,-6.3013 -2.82008,-9.52402 -2.29253,-4.85035 -5.62746,-8.61297 -9.49831,-10.71641 -1.43312,-0.77876 -3.67323,-1.56968 -5.09321,-1.79826 -0.76908,-0.12379 -7.39166,-0.13731 -29.40494,-0.06 -30.53381,0.10721 -81.3684,0.38545 -104.135814,0.56996 -4.424655,0.0359 -23.157609,0.10109 -41.628787,0.14495 -18.471179,0.0438 -33.6268614,0.10675 -33.6792958,0.13975 -0.052434,0.033 -0.9431116,0.11537 -1.9792828,0.18302 -3.7535196,0.24503 -6.74683505,1.07263 -10.0129889,2.76844 -4.0966762,2.127 -7.6344205,5.37835 -10.2587165,9.42818 -3.184389,4.91418 -4.997357,11.72826 -4.545343,17.08378 0.560179,6.63707 2.823169,11.80895 6.98725,15.96877 3.4393817,3.43587 7.1517016,5.29675 12.1788284,6.10494 0.376125,0.0605 8.9065696,0.009 28.3484376,-0.17248 z m -43.688206,-0.49702 c -0.158837,-0.20924 -0.154321,-0.2139 0.04821,-0.0498 0.212709,0.17234 0.280354,0.28068 0.175255,0.28068 -0.02652,0 -0.127076,-0.10389 -0.223467,-0.23086 z m 245.191968,-0.34664 c 0,-0.0274 0.10056,-0.13128 0.22347,-0.23086 0.20254,-0.16409 0.20704,-0.15943 0.0482,0.0498 -0.16683,0.21974 -0.27169,0.28963 -0.27169,0.18105 z m -246.64898,-1.03854 -0.633678,-0.69258 0.670402,0.65464 c 0.622949,0.60832 0.728964,0.73053 0.633678,0.73053 -0.0202,0 -0.32188,-0.31166 -0.670402,-0.69259 z m 248.37287,-0.62662 c 0.34588,-0.36278 0.65761,-0.65961 0.69273,-0.65961 0.0351,0 -0.21916,0.29683 -0.56503,0.65961 -0.34588,0.36278 -0.65761,0.6596 -0.69273,0.6596 -0.0351,0 0.21916,-0.29682 0.56503,-0.6596 z m -249.725163,-0.89047 c -0.158836,-0.20924 -0.15432,-0.2139 0.04821,-0.0498 0.212709,0.17234 0.280353,0.28067 0.175254,0.28067 -0.02652,0 -0.127076,-0.10389 -0.223467,-0.23086 z m 250.938273,-0.47856 c 0,-0.0274 0.10056,-0.13127 0.22347,-0.23086 0.20254,-0.16408 0.20704,-0.15942 0.0482,0.0498 -0.16683,0.21974 -0.27169,0.28963 -0.27169,0.18104 z m -251.576751,-0.31297 c -0.158837,-0.20924 -0.15432,-0.21389 0.04821,-0.0498 0.212709,0.17234 0.280353,0.28068 0.175256,0.28068 -0.02652,0 -0.127078,-0.10389 -0.223468,-0.23087 z m -5.975327,-14.35741 c 0.0061,-0.15368 0.03639,-0.18494 0.07715,-0.0797 0.03689,0.0952 0.03235,0.20901 -0.01008,0.25285 -0.04243,0.0438 -0.07261,-0.0341 -0.06707,-0.17315 z m -0.127695,-0.92344 c 0.0061,-0.15369 0.03639,-0.18494 0.07715,-0.0797 0.03689,0.0952 0.03235,0.20901 -0.01008,0.25285 -0.04243,0.0438 -0.07261,-0.0341 -0.06707,-0.17314 z m -0.112883,-1.70399 c 0.0026,-0.21767 0.03122,-0.29074 0.0636,-0.16239 0.03238,0.12835 0.03025,0.30645 -0.0047,0.39576 -0.03498,0.0893 -0.06147,-0.0157 -0.05887,-0.23337 z m 264.963776,-0.19788 c 0,-0.18139 0.029,-0.2556 0.0644,-0.1649 0.0354,0.0907 0.0354,0.2391 0,0.3298 -0.0354,0.0907 -0.0644,0.0165 -0.0644,-0.1649 z m 0.1277,-1.45113 c 0,-0.1814 0.029,-0.2556 0.0644,-0.16491 0.0354,0.0907 0.0354,0.23911 0,0.32981 -0.0354,0.0907 -0.0644,0.0165 -0.0644,-0.1649 z m 0.15828,-3.03419 c 0,-1.05207 0.0198,-1.48246 0.0441,-0.95643 0.0242,0.52604 0.0242,1.38682 0,1.91286 -0.0242,0.52603 -0.0441,0.0956 -0.0441,-0.95643 z m -265.242448,0.46172 c 0.0014,-0.29022 0.02757,-0.39342 0.05811,-0.22931 0.03054,0.16409 0.02938,0.40155 -0.0026,0.52768 -0.03196,0.12612 -0.05695,-0.008 -0.05553,-0.29837 z m 0.115656,-1.78093 c 0,-0.18139 0.02898,-0.2556 0.06441,-0.1649 0.03542,0.0907 0.03542,0.2391 0,0.3298 -0.03543,0.0907 -0.06441,0.0165 -0.06441,-0.1649 z m 264.968512,-1.8469 c 0,-0.18139 0.029,-0.25559 0.0644,-0.1649 0.0354,0.0907 0.0354,0.23911 0,0.3298 -0.0354,0.0907 -0.0644,0.0165 -0.0644,-0.1649 z m -264.467811,-1.39616 c 0.0061,-0.15369 0.03639,-0.18494 0.07715,-0.0797 0.03689,0.0952 0.03235,0.20901 -0.01008,0.25285 -0.04243,0.0438 -0.07261,-0.0341 -0.06707,-0.17315 z m 264.340111,-0.055 c 0,-0.18139 0.029,-0.2556 0.0644,-0.1649 0.0354,0.0907 0.0354,0.23911 0,0.3298 -0.0354,0.0907 -0.0644,0.0165 -0.0644,-0.1649 z M -16.846919,221.75513 c 0,-0.0274 0.100561,-0.13128 0.223468,-0.23086 0.202533,-0.16409 0.207049,-0.15943 0.04821,0.0498 -0.166818,0.21974 -0.271681,0.28963 -0.271681,0.18105 z m 0.510783,-0.65961 c 0,-0.0274 0.10056,-0.13127 0.223467,-0.23086 0.202533,-0.16408 0.20705,-0.15943 0.04821,0.0498 -0.166818,0.21974 -0.27168,0.28964 -0.27168,0.18105 z m 0.89387,-1.07151 c 0.164951,-0.1814 0.328641,-0.32981 0.363757,-0.32981 0.03512,0 -0.07111,0.14841 -0.236062,0.32981 -0.164951,0.18139 -0.328641,0.3298 -0.363757,0.3298 -0.03512,0 0.07111,-0.14841 0.236062,-0.3298 z m 1.340804,-1.5171 c 0.274321,-0.29022 0.527498,-0.52768 0.562615,-0.52768 0.03512,0 -0.160598,0.23746 -0.434919,0.52768 -0.274321,0.29023 -0.527498,0.52769 -0.562614,0.52769 -0.03512,0 0.160597,-0.23746 0.434918,-0.52769 z M 233.54799,217.3526 c -0.15883,-0.20924 -0.15432,-0.21389 0.0482,-0.0498 0.2127,0.17234 0.28035,0.28068 0.17525,0.28068 -0.0265,0 -0.12707,-0.10389 -0.22347,-0.23087 z m -245.989408,-0.42874 c 0.12712,-0.14511 0.259858,-0.26384 0.294974,-0.26384 0.03512,0 -0.04016,0.11873 -0.167278,0.26384 -0.12712,0.14511 -0.259859,0.26384 -0.294975,0.26384 -0.03512,0 0.04016,-0.11873 0.167279,-0.26384 z m 244.215138,-1.55007 -1.08259,-1.15431 1.11734,1.11841 c 0.61453,0.61514 1.11734,1.13458 1.11734,1.15431 0,0.096 -0.1466,-0.0463 -1.15209,-1.11841 z m -243.512812,0.97257 c 0,-0.0274 0.10056,-0.13127 0.223467,-0.23086 0.202533,-0.16408 0.20705,-0.15943 0.04821,0.0498 -0.166818,0.21974 -0.27168,0.28964 -0.27168,0.18105 z m 241.711602,-2.68755 c -0.15883,-0.20924 -0.15432,-0.21389 0.0482,-0.0498 0.12291,0.0996 0.22347,0.20347 0.22347,0.23086 0,0.10859 -0.10487,0.0387 -0.27169,-0.18105 z M -0.27042487,210.23769 c 0.0921797,-0.0381 0.20231719,-0.0334 0.24475046,0.0104 0.04243199,0.0438 -0.0329889,0.075 -0.16760056,0.0693 -0.14875907,-0.006 -0.17901656,-0.0376 -0.0771499,-0.0797 z m 1.66004367,-0.26384 c 0.09218,-0.0381 0.2023172,-0.0334 0.2447505,0.0104 0.042432,0.0438 -0.032989,0.075 -0.1676006,0.0693 -0.1487591,-0.006 -0.1790166,-0.0376 -0.07715,-0.0797 z M 3.0496625,209.71 c 0.09218,-0.0381 0.2023184,-0.0334 0.2447504,0.0104 0.042432,0.0438 -0.032989,0.075 -0.1676005,0.0693 -0.1487591,-0.006 -0.1790166,-0.0376 -0.07715,-0.0797 z m 1.907454,-0.26109 c 0.087791,-0.0366 0.2314484,-0.0366 0.3192392,0 0.087791,0.0366 0.015962,0.0665 -0.1596196,0.0665 -0.1755816,0 -0.2474104,-0.0299 -0.1596196,-0.0665 z m 1.532348,-0.13193 c 0.087791,-0.0366 0.2314484,-0.0366 0.3192392,0 0.087791,0.0366 0.015962,0.0666 -0.1596196,0.0666 -0.1755816,0 -0.2474104,-0.03 -0.1596196,-0.0666 z m 1.534635,-0.14015 c 0.2295138,-0.0294 0.5742921,-0.0288 0.766174,0.001 0.1918819,0.0301 0.0041,0.0541 -0.4172979,0.0534 -0.4213957,-0.001 -0.5783899,-0.0254 -0.3488761,-0.0547 z m 5.2970835,-0.001 c 0.333605,-0.0272 0.879504,-0.0272 1.213109,0 0.333604,0.0272 0.06065,0.0494 -0.606555,0.0494 -0.66721,0 -0.940159,-0.0222 -0.606554,-0.0494 z m 10.02411,-0.13325 c 0.649651,-0.0239 1.712718,-0.0239 2.362369,0 0.649652,0.0239 0.118119,0.0435 -1.181185,0.0435 -1.299303,0 -1.830836,-0.0196 -1.181184,-0.0435 z m 21.963654,-0.13227 c 1.000815,-0.0223 2.638512,-0.0223 3.639327,0 1.000815,0.0223 0.181966,0.0405 -1.819663,0.0405 -2.00163,0 -2.820479,-0.0182 -1.819664,-0.0405 z m 16.53013,-0.1314 c 0.610983,-0.0241 1.645318,-0.0242 2.298522,0 0.653204,0.024 0.153309,0.0437 -1.110878,0.0439 -1.264187,0 -1.798627,-0.0195 -1.187644,-0.0436 z m 19.416201,-0.13258 c 1.387094,-0.0213 3.656884,-0.0213 5.043978,0 1.387095,0.0213 0.252199,0.0387 -2.521989,0.0387 -2.774188,0 -3.909084,-0.0174 -2.521989,-0.0387 z m 21.827782,-0.13182 c 1.17191,-0.0218 3.12565,-0.0218 4.34166,-9e-5 1.216,0.0217 0.25718,0.0395 -2.13073,0.0395 -2.38791,5e-5 -3.38283,-0.0177 -2.21093,-0.0395 z m 31.17523,-0.13213 c 2.37547,-0.0201 6.22549,-0.0201 8.55561,3e-5 2.33011,0.0201 0.38655,0.0366 -4.31904,0.0366 -4.70559,-10e-6 -6.61204,-0.0165 -4.23657,-0.0366 z m 84.72475,0.009 c 0.0922,-0.0381 0.20232,-0.0334 0.24475,0.0104 0.0424,0.0438 -0.033,0.075 -0.1676,0.0693 -0.14877,-0.006 -0.17902,-0.0376 -0.0772,-0.0797 z m -63.72133,-0.14029 c 0.72363,-0.0235 1.87289,-0.0234 2.55391,0 0.68103,0.0237 0.089,0.043 -1.31567,0.0428 -1.40465,-1.2e-4 -1.96187,-0.0195 -1.23824,-0.043 z m 18.95601,-0.13222 c 1.3871,-0.0213 3.65689,-0.0213 5.04398,0 1.3871,0.0213 0.2522,0.0387 -2.52199,0.0387 -2.77419,0 -3.90908,-0.0174 -2.52199,-0.0387 z m 41.50109,0.003 c 0.26338,-0.0285 0.69435,-0.0285 0.95772,0 0.26337,0.0285 0.0479,0.0517 -0.47886,0.0517 -0.52674,0 -0.74223,-0.0233 -0.47886,-0.0517 z m -20.11206,-0.1343 c 0.79011,-0.0231 2.08303,-0.0231 2.87315,0 0.79012,0.0231 0.14366,0.0421 -1.43658,0.0421 -1.58023,0 -2.22669,-0.0189 -1.43657,-0.0421 z m 12.38648,-0.13212 c 1.07104,-0.0221 2.82367,-0.0221 3.89471,0 1.07105,0.0221 0.19474,0.0401 -1.94735,0.0401 -2.1421,0 -3.01841,-0.0181 -1.94736,-0.0401 z M 1.6393162,181.4734 c 0.2295138,-0.0294 0.5742921,-0.0288 0.766174,0.001 0.1918819,0.0301 0.0041,0.0541 -0.417298,0.0534 -0.4213957,-0.001 -0.5783898,-0.0254 -0.348876,-0.0547 z m 4.3956756,-0.003 c 0.8913209,-0.0226 2.3853602,-0.0227 3.3200873,0 0.9347289,0.0226 0.2054662,0.0411 -1.6205818,0.0412 -1.8260481,8e-5 -2.5908251,-0.0184 -1.6995055,-0.041 z m -6.43311233,-0.12351 c 0.0921797,-0.0381 0.20231718,-0.0334 0.24475045,0.0104 0.042432,0.0438 -0.0329889,0.075 -0.16760056,0.0693 -0.14875907,-0.006 -0.17901656,-0.0376 -0.0771499,-0.0797 z m 23.99880453,-0.008 c 0.719884,-0.0235 1.897877,-0.0235 2.617761,0 0.719884,0.0235 0.130888,0.0427 -1.308881,0.0427 -1.439768,0 -2.028764,-0.0192 -1.30888,-0.0427 z m -25.2837422,-0.1209 c 0.087791,-0.0366 0.2314484,-0.0366 0.3192392,0 0.087791,0.0366 0.015962,0.0665 -0.1596196,0.0665 -0.1755815,0 -0.2474104,-0.0299 -0.1596196,-0.0665 z m 46.4812232,-0.0113 c 1.14128,-0.0219 3.008829,-0.0219 4.150109,0 1.14128,0.0219 0.207505,0.0397 -2.075055,0.0397 -2.28256,0 -3.216334,-0.0179 -2.075054,-0.0397 z m 16.217349,-0.13162 c 0.719885,-0.0235 1.897877,-0.0235 2.617761,0 0.719885,0.0235 0.130889,0.0428 -1.30888,0.0428 -1.439769,0 -2.028765,-0.0192 -1.308881,-0.0428 z m 14.501428,-0.13225 c 1.110546,-0.022 2.891901,-0.0219 3.958566,10e-5 1.066663,0.022 0.158035,0.04 -2.019177,0.04 -2.177211,-7e-5 -3.049937,-0.0181 -1.939389,-0.0401 z m 15.251663,-0.13157 c 0.719884,-0.0235 1.897877,-0.0235 2.617761,0 0.719884,0.0235 0.130888,0.0428 -1.308881,0.0428 -1.439768,0 -2.028765,-0.0192 -1.30888,-0.0428 z m 13.663435,-0.13229 c 1.35198,-0.0214 3.56431,-0.0214 4.91628,0 1.35198,0.0214 0.24582,0.0388 -2.45814,0.0388 -2.70395,0 -3.81012,-0.0175 -2.45814,-0.0388 z m 18.397,-0.132 c 1.70801,-0.0208 4.46623,-0.0208 6.12939,4e-5 1.66318,0.0208 0.26572,0.0378 -3.10544,0.0378 -3.37117,-2e-5 -4.73194,-0.0171 -3.02395,-0.0379 z m 19.9117,-0.13189 c 1.70314,-0.0208 4.4901,-0.0208 6.19324,0 1.70314,0.0208 0.30966,0.0378 -3.09662,0.0378 -3.40628,0 -4.79976,-0.017 -3.09662,-0.0378 z m 20.63067,-0.1318 c 1.04022,-0.0222 2.70665,-0.0221 3.70317,1.2e-4 0.99651,0.0223 0.14542,0.0404 -1.89133,0.0403 -2.03674,-7e-5 -2.85208,-0.0183 -1.81184,-0.0405 z m 14.49404,-0.13202 c 1.3566,-0.0214 3.5402,-0.0214 4.85244,7e-5 1.31224,0.0214 0.20229,0.0389 -2.46655,0.0389 -2.66884,-3e-5 -3.74249,-0.0176 -2.38589,-0.0389 z m 21.51704,-0.13196 c 1.60258,-0.0209 4.18842,-0.0209 5.74631,6e-5 1.55787,0.021 0.24667,0.0381 -2.9138,0.0381 -3.16047,-4e-5 -4.4351,-0.0172 -2.83251,-0.0381 z m 14.0988,-0.12829 c 0.22669,-0.0291 0.62893,-0.0296 0.89387,-0.001 0.26495,0.0286 0.0795,0.0524 -0.41216,0.053 -0.49163,0 -0.70839,-0.0228 -0.48171,-0.0519 z m 2.36765,-0.12814 c 0.12424,-0.0334 0.29663,-0.0312 0.38308,0.005 0.0865,0.0361 -0.0152,0.0635 -0.22589,0.0608 -0.2107,-0.003 -0.28143,-0.0323 -0.15719,-0.0657 z m 1.60175,-0.13061 c 0.0922,-0.0381 0.20232,-0.0334 0.24475,0.0104 0.0424,0.0438 -0.033,0.075 -0.1676,0.0693 -0.14876,-0.006 -0.17902,-0.0376 -0.0771,-0.0797 z m 0.89387,-0.13192 c 0.0922,-0.0381 0.20232,-0.0334 0.24475,0.0104 0.0424,0.0438 -0.033,0.075 -0.1676,0.0693 -0.14876,-0.006 -0.17902,-0.0376 -0.0771,-0.0797 z M -0.4725288,175.61738 c -5.0609317,-0.60062 -10.2267262,-3.43297 -13.6372092,-7.47712 -3.976605,-4.71547 -5.969857,-10.71771 -5.766641,-17.36497 0.122312,-4.00088 0.930249,-7.40025 2.636089,-11.09125 3.845459,-8.32058 11.2379425,-14.15905 19.708065,-15.56513 2.6121311,-0.43362 4.8926225,-0.49242 20.973289,-0.54081 25.608758,-0.077 75.829327,-0.31177 96.474076,-0.4509 15.55543,-0.10483 62.15773,-0.31854 89.32312,-0.40962 5.21863,-0.0175 6.13498,0.009 7.02326,0.20461 6.2152,1.36725 11.31925,5.80956 14.57172,12.68249 3.04197,6.42811 3.83407,14.53529 2.09747,21.46787 -1.26375,5.045 -3.36421,8.89468 -6.59973,12.09586 -1.91526,1.89493 -3.7704,3.09767 -6.07083,3.93588 -1.92096,0.69995 -2.83554,0.8135 -6.53473,0.81132 -1.83584,-10e-4 -7.99241,0.0574 -13.68125,0.12997 -5.68884,0.0726 -19.36505,0.19475 -30.39157,0.27152 -11.02652,0.0768 -28.58148,0.22473 -39.01102,0.3288 -10.42955,0.10407 -28.09943,0.24963 -39.266421,0.32348 -11.166986,0.0738 -27.543955,0.19397 -36.393265,0.26693 -32.956539,0.27173 -47.2208922,0.39607 -50.8228754,0.44299 -2.0367459,0.0265 -4.12094223,-0.001 -4.6315474,-0.0619 z M 27.97426,175.23949 c 17.134943,-0.16027 42.191627,-0.35165 69.2749,-0.52911 11.23722,-0.0736 25.77537,-0.19258 32.307,-0.26432 12.13656,-0.13329 16.29615,-0.16818 47.2474,-0.39633 9.76233,-0.072 22.13926,-0.19292 27.50429,-0.2688 5.36503,-0.0759 10.22066,-0.10063 10.79029,-0.055 1.25145,0.10029 3.1167,-0.16684 4.67501,-0.66953 4.32129,-1.39398 8.30594,-5.12517 10.77362,-10.08831 2.10344,-4.23055 3.03242,-8.36831 3.03583,-13.52191 0.003,-5.23061 -0.87141,-9.30578 -2.94546,-13.7198 -2.87029,-6.10861 -7.21482,-10.3377 -12.39634,-12.06696 -2.05393,-0.68547 -3.27681,-0.83064 -6.25708,-0.74279 -1.43977,0.0424 -16.29397,0.10756 -33.00933,0.14471 -16.71537,0.0371 -33.55204,0.0969 -37.41483,0.13267 -15.46443,0.14342 -64.6677,0.41725 -106.051255,0.59021 -27.6506121,0.11556 -30.806433,0.16618 -33.0093301,0.52941 -6.9513115,1.14619 -13.4453579,5.51193 -17.5526559,11.8001 -3.317713,5.07933 -5.066194,11.62537 -4.61169,17.26545 0.373326,4.63271 1.650403,8.6662 3.808748,12.02945 1.004548,1.56535 1.356029,2.00949 2.751877,3.47734 3.4737946,3.65297 7.4163255,5.69431 12.60287274,6.52541 0.38006061,0.0609 9.41578556,0.006 28.47613326,-0.17192 z M -15.713946,174.874 c -0.158837,-0.20924 -0.154321,-0.21389 0.04821,-0.0498 0.212709,0.17234 0.280354,0.28068 0.175255,0.28068 -0.02652,0 -0.127076,-0.10389 -0.223467,-0.23087 z m 245.383516,-0.8245 c 0.12712,-0.14512 0.25986,-0.26385 0.29497,-0.26385 0.0351,0 -0.0402,0.11873 -0.16728,0.26385 -0.12712,0.14511 -0.25986,0.26384 -0.29497,0.26384 -0.0351,0 0.0402,-0.11873 0.16728,-0.26384 z m -247.03096,-0.75855 -0.826333,-0.89047 0.861946,0.85368 c 0.47407,0.46952 0.861945,0.87023 0.861945,0.89046 0,0.0971 -0.130024,-0.0266 -0.897558,-0.85367 z m 248.37176,-0.4947 c 0.23826,-0.25395 0.46191,-0.46173 0.49703,-0.46173 0.0351,0 -0.13108,0.20778 -0.36933,0.46173 -0.23826,0.25394 -0.46192,0.46172 -0.49703,0.46172 -0.0351,0 0.13108,-0.20778 0.36933,-0.46172 z M -18.778642,171.7079 c -0.158837,-0.20924 -0.15432,-0.2139 0.04821,-0.0498 0.212709,0.17234 0.280353,0.28068 0.175256,0.28068 -0.02652,0 -0.127078,-0.10389 -0.223468,-0.23086 z m 251.002122,-0.29683 c 0.12712,-0.14511 0.25986,-0.26384 0.29498,-0.26384 0.0351,0 -0.0402,0.11873 -0.16728,0.26384 -0.12713,0.14512 -0.25987,0.26385 -0.29498,0.26385 -0.0351,0 0.0402,-0.11873 0.16728,-0.26385 z m 6.96949,-15.90748 c 0.006,-0.15369 0.0364,-0.18494 0.0771,-0.0797 0.0369,0.0952 0.0324,0.20902 -0.0101,0.25286 -0.0424,0.0438 -0.0726,-0.0341 -0.0671,-0.17315 z m 0.12769,-0.79153 c 0.006,-0.15368 0.0364,-0.18494 0.0772,-0.0797 0.0369,0.0952 0.0324,0.20901 -0.0101,0.25285 -0.0424,0.0438 -0.0726,-0.0341 -0.0671,-0.17315 z m -264.821258,-0.45073 c 0,-0.25395 0.02628,-0.35784 0.0584,-0.23086 0.03212,0.12697 0.03212,0.33475 0,0.46172 -0.03212,0.12697 -0.0584,0.0231 -0.0584,-0.23086 z m 264.959048,-0.52769 c 0,-0.18139 0.029,-0.25559 0.0644,-0.1649 0.0354,0.0907 0.0354,0.23911 0,0.32981 -0.0354,0.0907 -0.0644,0.0165 -0.0644,-0.16491 z m 0.13242,-1.51709 c 0.003,-0.21767 0.0312,-0.29075 0.0636,-0.16239 0.0324,0.12836 0.0302,0.30645 -0.005,0.39576 -0.035,0.0893 -0.0615,-0.0157 -0.0589,-0.23337 z m 0.15202,-2.8363 c 0,-0.90696 0.0204,-1.27799 0.0453,-0.82451 0.0249,0.45348 0.0249,1.19554 0,1.64901 -0.0249,0.45348 -0.0453,0.0825 -0.0453,-0.8245 z m -265.240911,0.3298 c 0.0014,-0.29023 0.02757,-0.39342 0.05811,-0.22932 0.03054,0.16409 0.02938,0.40155 -0.0026,0.52768 -0.03196,0.12613 -0.05695,-0.008 -0.05553,-0.29836 z m 0.105574,-1.72597 c 0.0061,-0.15368 0.03639,-0.18494 0.07715,-0.0797 0.03689,0.0952 0.03235,0.20901 -0.01008,0.25285 -0.04243,0.0438 -0.07261,-0.0341 -0.06707,-0.17315 z m 0.127696,-0.92345 c 0.0061,-0.15368 0.03638,-0.18494 0.07715,-0.0797 0.03689,0.0952 0.03235,0.20901 -0.01008,0.25285 -0.04243,0.0438 -0.07261,-0.0341 -0.06707,-0.17315 z m 264.850891,-0.71457 c 0,-0.18139 0.029,-0.2556 0.0644,-0.1649 0.0354,0.0907 0.0354,0.23911 0,0.3298 -0.0354,0.0907 -0.0644,0.0165 -0.0644,-0.1649 z m -0.12769,-1.45113 c 0,-0.18139 0.029,-0.2556 0.0644,-0.1649 0.0354,0.0907 0.0354,0.2391 0,0.3298 -0.0354,0.0907 -0.0644,0.0165 -0.0644,-0.1649 z m -0.13779,-1.0004 c 0.006,-0.15368 0.0364,-0.18494 0.0772,-0.0797 0.0369,0.0952 0.0324,0.20902 -0.0101,0.25285 -0.0424,0.0438 -0.0726,-0.0341 -0.0671,-0.17314 z m -0.12769,-0.79153 c 0.006,-0.15368 0.0364,-0.18494 0.0771,-0.0797 0.0369,0.0952 0.0324,0.20901 -0.0101,0.25285 -0.0424,0.0438 -0.0726,-0.0341 -0.0671,-0.17315 z M -18.123875,130.06996 c 0,-0.0274 0.10056,-0.13129 0.223467,-0.23087 0.202533,-0.16409 0.207049,-0.15942 0.04821,0.0498 -0.166817,0.21975 -0.271679,0.28963 -0.271679,0.18106 z m 0.830022,-1.00557 c 0.127119,-0.14511 0.259857,-0.26384 0.294973,-0.26384 0.03512,0 -0.04016,0.11873 -0.167278,0.26384 -0.127119,0.14512 -0.259857,0.26385 -0.294974,0.26385 -0.03512,0 0.04016,-0.11873 0.167279,-0.26385 z m 1.596195,-1.78093 c 0.452454,-0.47162 0.851375,-0.85749 0.886492,-0.85749 0.03512,0 -0.306342,0.38587 -0.758796,0.85749 -0.452454,0.47162 -0.851375,0.85749 -0.886491,0.85749 -0.03512,0 0.306342,-0.38587 0.758795,-0.85749 z m 248.096388,-0.42874 c -0.15883,-0.20924 -0.15432,-0.21391 0.0482,-0.0498 0.2127,0.17234 0.28035,0.28067 0.17525,0.28067 -0.0265,0 -0.12707,-0.10389 -0.22347,-0.23086 z m -0.63848,-0.79153 c -0.15883,-0.20924 -0.15432,-0.2139 0.0482,-0.0498 0.2127,0.17234 0.28035,0.28067 0.17525,0.28067 -0.0265,0 -0.12707,-0.10389 -0.22347,-0.23086 z m -245.734016,-0.42874 c 0.12712,-0.14512 0.259858,-0.26385 0.294974,-0.26385 0.03512,0 -0.04016,0.11873 -0.167278,0.26385 -0.12712,0.14511 -0.259859,0.26384 -0.294975,0.26384 -0.03512,0 0.04016,-0.11873 0.167279,-0.26384 z m 244.151116,-1.3522 -1.01857,-1.08835 1.05349,1.05228 c 0.57942,0.57875 1.05349,1.06851 1.05349,1.08835 0,0.0962 -0.14239,-0.0414 -1.08841,-1.05228 z m -1.73719,-1.64901 c -0.15882,-0.20923 -0.15432,-0.2139 0.0482,-0.0498 0.12291,0.0996 0.22347,0.20347 0.22347,0.23086 0,0.10858 -0.10486,0.0387 -0.27169,-0.18105 z M -1.9304685,119.08019 c 0.09218,-0.0381 0.2023171,-0.0334 0.2447504,0.0104 0.042432,0.0438 -0.032989,0.075 -0.1676005,0.0693 -0.1487591,-0.006 -0.1790166,-0.0376 -0.07715,-0.0797 z m 1.66004363,-0.26384 c 0.0921797,-0.0381 0.20231719,-0.0334 0.24475046,0.0104 0.04243199,0.0438 -0.0329889,0.075 -0.16760056,0.0693 -0.14875907,-0.006 -0.17901656,-0.0376 -0.0771499,-0.0797 z m 1.66004367,-0.26384 c 0.09218,-0.0381 0.2023172,-0.0334 0.2447505,0.0104 0.042432,0.0438 -0.032989,0.075 -0.1676006,0.0693 -0.1487591,-0.006 -0.1790166,-0.0376 -0.07715,-0.0797 z m 1.0215653,-0.13192 c 0.09218,-0.0381 0.2023172,-0.0334 0.2447505,0.0104 0.042432,0.0438 -0.032989,0.075 -0.1676006,0.0693 -0.148759,-0.006 -0.1790165,-0.0376 -0.07715,-0.0797 z m 0.8858887,-0.12917 c 0.087791,-0.0366 0.2314484,-0.0366 0.3192392,0 0.087791,0.0366 0.015962,0.0665 -0.1596196,0.0665 -0.1755815,0 -0.2474103,-0.0299 -0.1596196,-0.0665 z m 1.532348,-0.13193 c 0.087791,-0.0366 0.2314484,-0.0366 0.3192392,0 0.087791,0.0366 0.015962,0.0665 -0.1596196,0.0665 -0.1755815,0 -0.2474103,-0.0299 -0.1596196,-0.0665 z m 1.5346351,-0.14016 c 0.2295138,-0.0294 0.5742921,-0.0288 0.766174,0.001 0.1918819,0.0301 0.0041,0.0541 -0.417298,0.0534 -0.4213957,-7.9e-4 -0.5783898,-0.0254 -0.348876,-0.0547 z m 5.1693871,-10e-4 c 0.333605,-0.0272 0.879504,-0.0272 1.213109,0 0.333605,0.0272 0.06066,0.0494 -0.606554,0.0494 -0.66721,0 -0.94016,-0.0222 -0.606555,-0.0494 z m 10.02411,-0.13311 c 0.579419,-0.0244 1.52756,-0.0244 2.106979,0 0.579419,0.0244 0.105349,0.0444 -1.05349,0.0444 -1.158838,0 -1.632908,-0.02 -1.053489,-0.0444 z m 21.205374,-0.13249 c 1.075388,-0.0221 2.799279,-0.022 3.83087,1.1e-4 1.031589,0.0222 0.151727,0.0402 -1.955252,0.0402 -2.106978,-6e-5 -2.951007,-0.0182 -1.875618,-0.0403 z m 16.918415,-0.13163 c 0.688417,-0.0238 1.780215,-0.0237 2.426218,2.6e-4 0.646003,0.0239 0.08275,0.0433 -1.251665,0.0432 -1.33442,-1.2e-4 -1.862969,-0.0197 -1.174553,-0.0434 z m 18.756126,-0.13224 c 1.382417,-0.0213 3.680939,-0.0213 5.107827,-6e-5 1.426888,0.0212 0.29582,0.0387 -2.513485,0.0387 -2.809305,4e-5 -3.976758,-0.0174 -2.594342,-0.0386 z m 21.261597,-0.13187 c 1.206975,-0.0217 3.218185,-0.0217 4.469345,-8e-5 1.25117,0.0216 0.26363,0.0393 -2.19451,0.0394 -2.458142,4e-5 -3.481814,-0.0176 -2.274835,-0.0393 z m 29.642955,-0.13212 c 2.4106,-0.0201 6.31809,-0.0201 8.6833,3e-5 2.36523,0.0201 0.39292,0.0365 -4.3829,0.0365 -4.77581,-10e-6 -6.71099,-0.0165 -4.3004,-0.0365 z m 23.86977,-0.13132 c 0.64965,-0.0239 1.71271,-0.0239 2.36237,0 0.64965,0.0239 0.11811,0.0435 -1.18119,0.0435 -1.2993,0 -1.83084,-0.0196 -1.18118,-0.0435 z m 18.65186,-0.13241 c 1.28631,-0.0215 3.35498,-0.0215 4.59705,8e-5 1.24205,0.0216 0.18963,0.0392 -2.33875,0.0392 -2.52837,-5e-5 -3.54461,-0.0177 -2.2583,-0.0392 z m 42.19512,0.003 c 0.26337,-0.0285 0.69435,-0.0285 0.95772,0 0.26337,0.0285 0.0479,0.0517 -0.47886,0.0517 -0.52674,0 -0.74223,-0.0233 -0.47886,-0.0517 z m -20.29666,-0.13433 c 0.7588,-0.0234 1.96553,-0.0233 2.68161,1.3e-4 0.71606,0.0235 0.0952,0.0426 -1.37968,0.0425 -1.47488,-1.1e-4 -2.06075,-0.0193 -1.30193,-0.0427 z m 12.32373,-0.13216 c 1.1457,-0.0219 2.98451,-0.0218 4.08626,1e-4 1.10173,0.0219 0.16434,0.0399 -2.0831,0.0398 -2.24744,-5e-5 -3.14887,-0.018 -2.00316,-0.0399 z M -0.14842315,90.315899 c 0.22951381,-0.02936 0.57429211,-0.02875 0.766174,0.0013 0.1918819,0.0301 0.004099,0.05412 -0.41729794,0.05338 -0.4213957,-7.91e-4 -0.57838987,-0.02537 -0.34887606,-0.05473 z m 4.15525655,-0.003 c 0.8995534,-0.02271 2.3361297,-0.02264 3.1923917,1.32e-4 0.8562608,0.02279 0.1202612,0.04137 -1.6355542,0.04129 -1.7558154,-8e-5 -2.4563921,-0.01873 -1.5568375,-0.04143 z M -2.3135555,90.18947 c 0.09218,-0.03811 0.2023171,-0.03342 0.2447504,0.01041 0.042432,0.04384 -0.032989,0.07502 -0.1676005,0.06929 -0.1487591,-0.0063 -0.1790166,-0.03759 -0.07715,-0.0797 z m 23.8779005,-0.0084 c 0.723621,-0.02356 1.872882,-0.02346 2.553914,2.64e-4 0.681033,0.02367 0.08898,0.04295 -1.315673,0.04283 -1.404652,-1.16e-4 -1.96186,-0.01949 -1.238241,-0.04304 z M -3.5984932,90.06026 c 0.087791,-0.0366 0.2314484,-0.0366 0.3192392,0 0.087791,0.0366 0.015962,0.06654 -0.1596196,0.06654 -0.1755815,0 -0.2474104,-0.02994 -0.1596196,-0.06654 z M 41.797316,90.04895 c 1.176397,-0.02177 3.101409,-0.02177 4.277805,0 1.176397,0.02177 0.213891,0.03958 -2.138902,0.03958 -2.352793,0 -3.315299,-0.01781 -2.138903,-0.03958 z m 16.59336,-0.131571 c 0.751107,-0.02328 2.015295,-0.02336 2.809305,-1.32e-4 0.794009,0.02318 0.179466,0.04223 -1.365652,0.04233 -1.545117,1e-4 -2.194761,-0.01887 -1.443653,-0.04215 z M 72.63582,89.785117 c 1.14128,-0.02186 3.008829,-0.02186 4.150109,0 1.14128,0.02187 0.207506,0.03975 -2.075054,0.03975 -2.28256,0 -3.216335,-0.01789 -2.075055,-0.03975 z m 15.706567,-0.131613 c 0.719884,-0.02352 1.897877,-0.02352 2.617761,0 0.719885,0.02352 0.130888,0.04275 -1.30888,0.04275 -1.439769,0 -2.028765,-0.01924 -1.308881,-0.04275 z m 13.225053,-0.132341 c 1.46203,-0.02118 3.81802,-0.02115 5.23553,6.2e-5 1.4175,0.02121 0.22129,0.03854 -2.65824,0.03851 -2.87954,-3.4e-5 -4.03932,-0.01739 -2.57729,-0.03857 z M 120.5217,89.38923 c 1.70314,-0.02078 4.49009,-0.02078 6.19323,0 1.70315,0.02078 0.30967,0.03778 -3.09661,0.03778 -3.40629,0 -4.79977,-0.017 -3.09662,-0.03778 z m 20.03935,-0.1319 c 1.69827,-0.02077 4.51396,-0.02079 6.25709,-4.5e-5 1.74314,0.02075 0.35364,0.03774 -3.08776,0.03776 -3.4414,2.3e-5 -4.86759,-0.01695 -3.16933,-0.03772 z m 20.82326,-0.131754 c 1.00081,-0.02229 2.63851,-0.02229 3.63933,0 1.00081,0.02229 0.18196,0.04053 -1.81967,0.04053 -2.00163,0 -2.82048,-0.01824 -1.81966,-0.04053 z m 14.37411,-0.132071 c 1.32146,-0.02146 3.44759,-0.02142 4.72474,7.4e-5 1.27715,0.0215 0.19596,0.03906 -2.40264,0.03902 -2.59861,-4e-5 -3.64356,-0.01763 -2.3221,-0.03909 z m 20.99759,-0.13194 c 1.56267,-0.02099 4.11978,-0.02099 5.68246,0 1.56267,0.02099 0.28412,0.03816 -2.84123,0.03816 -3.12535,0 -4.40391,-0.01717 -2.84123,-0.03816 z m 14.62115,-0.129212 c 0.26337,-0.02846 0.69435,-0.02846 0.95772,0 0.26337,0.02846 0.0479,0.05175 -0.47886,0.05175 -0.52674,0 -0.74223,-0.02329 -0.47886,-0.05175 z m 2.42622,-0.126758 c 0.12291,-0.03318 0.32403,-0.03318 0.44693,0 0.12291,0.03318 0.0223,0.06033 -0.22346,0.06033 -0.24582,0 -0.34638,-0.02715 -0.22347,-0.06033 z m 1.60418,-0.131101 c 0.0922,-0.03811 0.20232,-0.03342 0.24475,0.01041 0.0424,0.04384 -0.033,0.07501 -0.1676,0.06929 -0.14877,-0.0063 -0.17902,-0.03759 -0.0772,-0.0797 z m 1.02156,-0.131921 c 0.0922,-0.03811 0.20232,-0.03342 0.24476,0.01041 0.0424,0.04384 -0.033,0.07502 -0.1676,0.06929 -0.14877,-0.0063 -0.17902,-0.03759 -0.0772,-0.0797 z M -2.3879638,84.460231 c -3.2422453,-0.386012 -7.1674058,-1.943302 -9.8619112,-3.91267 -1.550897,-1.133524 -4.158535,-3.825351 -5.268798,-5.438904 -1.08705,-1.579816 -2.512338,-4.515588 -3.096896,-6.378901 -2.134996,-6.805432 -1.584374,-13.856017 1.610355,-20.620221 C -15.195376,40.04296 -7.528238,34.15475 0.80781819,32.893521 3.175988,32.535221 5.8399865,32.469461 19.865586,32.423086 c 32.377691,-0.107054 81.293434,-0.334443 97.814884,-0.454701 14.60201,-0.106287 65.24672,-0.336848 89.25927,-0.406356 6.15369,-0.01781 6.43099,-0.0079 7.66174,0.273282 8.82816,2.017091 15.47556,10.723341 17.07526,22.363848 0.25269,1.838829 0.21019,6.794416 -0.0735,8.574873 -0.53691,3.368984 -1.34122,6.042173 -2.62105,8.711357 -2.68479,5.599345 -6.78764,9.363699 -11.81533,10.840538 l -1.16068,0.340939 -7.4702,0.102994 c -8.00259,0.110333 -29.96232,0.301234 -58.74,0.510637 -9.79745,0.07129 -19.33632,0.162726 -21.19748,0.203187 -1.86117,0.04046 -15.91088,0.159471 -31.221595,0.264472 -36.461234,0.250049 -86.416539,0.656117 -95.1971193,0.773819 -2.00162954,0.02683 -4.0570943,-9.23e-4 -4.5676995,-0.06174 z M 24.781869,84.080658 c 23.218225,-0.19918 47.045932,-0.379095 69.84953,-0.527411 11.342571,-0.07377 26.110571,-0.193608 32.817791,-0.266297 6.70721,-0.07269 20.15356,-0.193147 29.88078,-0.26768 9.72722,-0.07453 24.12171,-0.197799 31.98777,-0.273924 7.86605,-0.07613 16.9292,-0.159061 20.14032,-0.184302 6.30342,-0.04954 6.91544,-0.106407 8.84659,-0.821935 6.88966,-2.552741 12.01703,-10.22182 13.16136,-19.685629 0.24047,-1.988726 0.23296,-5.674786 -0.0158,-7.766836 -1.06403,-8.947603 -5.71477,-16.789643 -12.13381,-20.459955 -1.33208,-0.76166 -3.73853,-1.632382 -5.22568,-1.890796 -1.41764,-0.246335 -38.13722,-0.120937 -126.163324,0.43085 -11.026521,0.06912 -34.125726,0.160808 -51.331565,0.203752 -18.396012,0.04592 -31.5412614,0.128611 -31.9094221,0.200742 -0.3443428,0.06746 -1.006109,0.123749 -1.4705931,0.125078 -0.464484,0.0013 -1.4318004,0.08867 -2.1495918,0.194089 -8.5547094,1.2564 -16.126092,7.049724 -19.957462,15.270665 -2.896019,6.213967 -3.540462,12.578672 -1.914605,18.909212 1.887785,7.350405 6.838874,13.125927 13.433816,15.670759 1.4151974,0.546091 3.4835429,1.110689 4.6236673,1.262127 0.4279031,0.05684 3.36384352,0.08198 6.5243113,0.05587 3.1604677,-0.02611 12.6131394,-0.106378 21.0059374,-0.178377 z m -42.283554,-0.232227 c -0.158837,-0.209235 -0.154321,-0.213901 0.04821,-0.04981 0.122907,0.09958 0.223467,0.203468 0.223467,0.230862 0,0.108576 -0.104862,0.03869 -0.271679,-0.181054 z M 227.05181,83.5018 c 0,-0.02739 0.10056,-0.131281 0.22346,-0.230862 0.20254,-0.164092 0.20705,-0.159426 0.0482,0.04981 -0.16682,0.219748 -0.27168,0.289631 -0.27168,0.181054 z m -245.502958,-0.510856 -0.375053,-0.428744 0.41501,0.387464 c 0.228256,0.213106 0.415011,0.40604 0.415011,0.428744 0,0.101917 -0.105365,0.01219 -0.454968,-0.387464 z M 228.00952,82.628161 c 0.12712,-0.145114 0.25986,-0.263843 0.29498,-0.263843 0.0351,0 -0.0402,0.118729 -0.16728,0.263843 -0.12712,0.145113 -0.25986,0.263842 -0.29498,0.263842 -0.0351,0 0.0402,-0.118729 0.16728,-0.263842 z m -248.058495,-1.286231 -0.309574,-0.362783 0.351163,0.319817 c 0.328214,0.298919 0.409722,0.405749 0.309574,0.405749 -0.02287,0 -0.180897,-0.163253 -0.351163,-0.362783 z M 229.98881,80.583383 c 0.16494,-0.181391 0.32863,-0.329803 0.36375,-0.329803 0.0351,0 -0.0711,0.148412 -0.23606,0.329803 -0.16494,0.181392 -0.32864,0.329803 -0.36375,0.329803 -0.0351,0 0.0711,-0.148411 0.23606,-0.329803 z M -20.949468,80.286561 c -0.158837,-0.209235 -0.154321,-0.213901 0.04821,-0.04981 0.122907,0.09958 0.223467,0.203468 0.223467,0.230861 0,0.108577 -0.104862,0.03869 -0.271679,-0.181053 z M 230.62728,79.808009 c 0,-0.02739 0.10056,-0.131281 0.22347,-0.230862 0.20254,-0.164093 0.20705,-0.159427 0.0482,0.04981 -0.16682,0.219748 -0.27169,0.28963 -0.27169,0.181054 z M -27.307882,65.005698 c 0.0061,-0.153681 0.03639,-0.18494 0.07715,-0.0797 0.03689,0.09523 0.03235,0.209014 -0.01008,0.25285 -0.04243,0.04384 -0.07261,-0.03408 -0.06707,-0.173147 z M 237.27753,64.08225 c 0.006,-0.153681 0.0364,-0.18494 0.0772,-0.0797 0.0369,0.09523 0.0324,0.209013 -0.0101,0.252849 -0.0424,0.04384 -0.0726,-0.03408 -0.0671,-0.173147 z M -27.420765,63.69748 c 0.0026,-0.21767 0.03122,-0.290746 0.0636,-0.162391 0.03238,0.128355 0.03025,0.306449 -0.0047,0.395763 -0.03498,0.08931 -0.06147,-0.0157 -0.05887,-0.233372 z M 237.40523,63.290724 c 0.006,-0.153682 0.0364,-0.184941 0.0772,-0.0797 0.0369,0.09523 0.0324,0.209013 -0.0101,0.252849 -0.0424,0.04384 -0.0726,-0.03408 -0.0671,-0.173146 z m 0.13778,-1.242258 c 0,-0.181392 0.029,-0.255597 0.0644,-0.164901 0.0354,0.0907 0.0354,0.239107 0,0.329802 -0.0354,0.0907 -0.0644,0.01649 -0.0644,-0.164901 z M -27.526716,60.795215 c 3.32e-4,-0.725566 0.02178,-1.005558 0.04765,-0.622203 0.02588,0.383355 0.02561,0.977 -6e-4,1.319211 -0.02621,0.342211 -0.04739,0.02856 -0.04705,-0.697008 z M 237.67071,60.597334 c 0,-0.181392 0.029,-0.255598 0.0644,-0.164902 0.0354,0.0907 0.0354,0.239107 0,0.329803 -0.0354,0.0907 -0.0644,0.01649 -0.0644,-0.164901 z M -27.416033,57.82699 c 0,-0.253948 0.02628,-0.357836 0.0584,-0.230862 0.03212,0.126974 0.03212,0.33475 0,0.461724 -0.03212,0.126974 -0.0584,0.02309 -0.0584,-0.230862 z m 0.108151,-1.396165 c 0.0061,-0.153681 0.03639,-0.18494 0.07715,-0.0797 0.03689,0.09523 0.03235,0.209011 -0.01008,0.252849 -0.04243,0.04384 -0.07261,-0.03408 -0.06707,-0.173147 z M 237.67543,55.650292 c 0.003,-0.21767 0.0312,-0.290747 0.0636,-0.162391 0.0324,0.128355 0.0303,0.306449 -0.005,0.395763 -0.035,0.08931 -0.0615,-0.0157 -0.0589,-0.233372 z M -27.180186,55.507378 c 0.0061,-0.153682 0.03638,-0.184941 0.07715,-0.0797 0.03689,0.09523 0.03235,0.209012 -0.01008,0.252849 -0.04243,0.04384 -0.07261,-0.03408 -0.06707,-0.173146 z M 237.54774,54.199159 c 0.003,-0.21767 0.0312,-0.290746 0.0636,-0.162391 0.0324,0.128356 0.0302,0.306449 -0.005,0.395764 -0.035,0.08931 -0.0615,-0.0157 -0.0589,-0.233373 z m -0.14251,-1.198283 c 0.006,-0.153681 0.0364,-0.18494 0.0772,-0.0797 0.0369,0.09523 0.0324,0.209011 -0.0101,0.252849 -0.0424,0.04384 -0.0726,-0.03408 -0.0671,-0.173147 z m -0.1277,-0.791526 c 0.006,-0.153682 0.0364,-0.184941 0.0772,-0.0797 0.0369,0.09523 0.0324,0.209012 -0.0101,0.252849 -0.0424,0.04384 -0.0726,-0.03408 -0.0671,-0.173146 z M -20.677789,39.703989 c 0,-0.02739 0.100561,-0.131282 0.223468,-0.230862 0.202532,-0.164093 0.207049,-0.159427 0.04821,0.04981 -0.166818,0.219747 -0.27168,0.28963 -0.27168,0.181054 z m 1.213109,-1.533246 c 0.127119,-0.145113 0.259858,-0.263842 0.294974,-0.263842 0.03512,0 -0.04016,0.118729 -0.167278,0.263842 -0.127119,0.145114 -0.259858,0.263843 -0.294974,0.263843 -0.03512,0 0.04016,-0.118729 0.167278,-0.263843 z m 1.851587,-2.044777 c 0.664435,-0.689288 1.236797,-1.253251 1.271913,-1.253251 0.03512,0 -0.479782,0.563963 -1.144217,1.253251 -0.664436,0.689288 -1.236796,1.253251 -1.271913,1.253251 -0.03512,0 0.479782,-0.563963 1.144217,-1.253251 z M 229.58942,34.641853 c -0.15882,-0.209234 -0.15432,-0.2139 0.0482,-0.04981 0.12291,0.09958 0.22347,0.203468 0.22347,0.230862 0,0.108575 -0.10486,0.03869 -0.27169,-0.181055 z M -15.825353,34.427145 c 0,-0.0274 0.10056,-0.131283 0.223467,-0.230862 0.202533,-0.164093 0.20705,-0.159427 0.04821,0.04981 -0.166818,0.219747 -0.27168,0.28963 -0.27168,0.181055 z M 228.1942,33.0588 l -0.44007,-0.494704 0.47886,0.454622 c 0.44571,0.423152 0.53757,0.534786 0.44007,0.534786 -0.0213,0 -0.23683,-0.222617 -0.47886,-0.494704 z m -1.47376,-1.385172 -0.24327,-0.296822 0.28732,0.251308 c 0.27,0.236167 0.34544,0.342337 0.24326,0.342337 -0.0242,0 -0.15353,-0.13357 -0.28731,-0.296823 z M -3.8459035,27.9227 c 0.09218,-0.03811 0.2023171,-0.03342 0.2447504,0.01042 0.042432,0.04384 -0.032989,0.07502 -0.1676005,0.06929 -0.1487591,-0.0063 -0.1790166,-0.03759 -0.07715,-0.0797 z m 3.19239163,-0.527684 c 0.0921797,-0.03811 0.20231719,-0.03342 0.24475046,0.01042 0.042432,0.04384 -0.0329889,0.07502 -0.16760057,0.06929 -0.14875906,-0.0063 -0.17901655,-0.03759 -0.0771499,-0.0797 z m 1.14926101,-0.131922 c 0.0921797,-0.03811 0.20231718,-0.03342 0.24475045,0.01042 0.042432,0.04384 -0.0329889,0.07501 -0.16760056,0.06929 -0.14875907,-0.0063 -0.17901656,-0.03759 -0.0771499,-0.0797 z M 1.3896188,27.131173 c 0.09218,-0.03811 0.2023172,-0.03342 0.2447505,0.01041 0.042432,0.04384 -0.032989,0.07502 -0.1676006,0.06929 -0.1487591,-0.0063 -0.1790166,-0.03759 -0.07715,-0.0797 z m 1.532348,-0.131921 c 0.09218,-0.03811 0.2023185,-0.03342 0.2447505,0.01042 0.042432,0.04384 -0.032989,0.07502 -0.1676006,0.06929 -0.1487591,-0.0063 -0.1790166,-0.03759 -0.07715,-0.0797 z m 1.3966714,-0.137235 c 0.228256,-0.02926 0.6017658,-0.02926 0.8300218,0 0.228256,0.02926 0.041501,0.05321 -0.4150109,0.05321 -0.456512,0 -0.6432669,-0.02394 -0.4150109,-0.05321 z m 5.1716745,-0.0015 c 0.3336049,-0.02717 0.8795043,-0.02717 1.2131093,0 0.333604,0.02718 0.06066,0.04941 -0.606555,0.04941 -0.6672098,0 -0.9401593,-0.02223 -0.6065543,-0.04941 z m 9.8388363,-0.133272 c 0.617984,-0.02423 1.594856,-0.02411 2.170826,2.77e-4 0.575972,0.02439 0.07035,0.04422 -1.123607,0.04406 -1.193954,-1.45e-4 -1.665202,-0.0201 -1.047219,-0.04434 z m 20.241534,-0.132347 c 1.145704,-0.02188 2.984521,-0.02184 4.086262,9.6e-5 1.101741,0.02194 0.164348,0.03985 -2.083096,0.03979 -2.247444,-5.3e-5 -3.148868,-0.018 -2.003166,-0.03989 z m 16.918575,-0.131691 c 0.758818,-0.02336 1.965542,-0.02327 2.681609,1.98e-4 0.716068,0.02347 0.09522,0.04259 -1.379668,0.04248 -1.474885,-1.08e-4 -2.060758,-0.01931 -1.301941,-0.04267 z m 14.74191,-0.120776 c 0.08779,-0.0366 0.231448,-0.0366 0.319239,0 0.08779,0.0366 0.01596,0.06654 -0.15962,0.06654 -0.175581,0 -0.24741,-0.02994 -0.159619,-0.06654 z m 3.45654,-0.01147 c 1.637724,-0.02089 4.281024,-0.02087 5.874001,5e-5 1.592975,0.02092 0.253018,0.03802 -2.977682,0.03799 -3.2307,-2.8e-5 -4.534044,-0.01714 -2.896319,-0.03804 z m 22.274137,-0.131796 c 1.176396,-0.02177 3.101405,-0.02177 4.277805,0 1.1764,0.02177 0.21389,0.03958 -2.138903,0.03958 -2.352793,0 -3.315299,-0.01781 -2.138902,-0.03958 z m 29.123985,-0.132102 c 2.51597,-0.02001 6.59585,-0.02 9.06639,2.2e-5 2.47054,0.02002 0.41202,0.03639 -4.57449,0.03638 -4.98652,-1.2e-5 -7.00788,-0.01639 -4.4919,-0.0364 z m 25.01898,-0.131371 c 0.68477,-0.02372 1.80529,-0.02372 2.49006,0 0.68477,0.02372 0.12451,0.04313 -1.24503,0.04313 -1.36954,0 -1.9298,-0.01941 -1.24503,-0.04313 z m 18.18839,-0.132266 c 1.20698,-0.02166 3.21819,-0.0217 4.46935,-8.2e-5 1.25116,0.02162 0.26363,0.03934 -2.19451,0.03939 -2.45814,4.5e-5 -3.48182,-0.01764 -2.27484,-0.0393 z m 42.85014,0.0026 c 0.26337,-0.02846 0.69434,-0.02846 0.95771,0 0.26338,0.02846 0.0479,0.05175 -0.47886,0.05175 -0.52674,0 -0.74223,-0.02329 -0.47885,-0.05175 z m -20.62285,-0.134218 c 0.71988,-0.02351 1.89787,-0.02351 2.61776,0 0.71988,0.02351 0.13089,0.04275 -1.30888,0.04275 -1.43977,0 -2.02877,-0.01924 -1.30888,-0.04275 z m 12.45843,-0.132279 c 1.18086,-0.02179 3.07714,-0.02175 4.21396,9.1e-5 1.13682,0.02184 0.17066,0.03967 -2.14701,0.03962 -2.31768,-5e-5 -3.2478,-0.01792 -2.06695,-0.03971 z"
         id="path347" /><path
         style="fill:#0d172d;stroke-width:0.129791"
         d="m 3.5205402,272.63134 c -5.7397465,-0.18743 -10.5284451,-1.67441 -14.8765452,-4.61946 -6.57077,-4.45047 -10.935021,-11.72372 -12.211094,-20.3504 -0.308295,-2.08418 -0.308645,-6.95233 -6.51e-4,-9.14201 1.404221,-9.98349 6.648264,-18.70258 14.5741149,-24.23186 1.4047264,-0.97997 3.0804051,-1.91228 4.4693483,-2.48667 0.7023262,-0.29042 1.6163782,-0.68471 2.0312282,-0.87617 0.770605,-0.35563 2.6519338,-0.73255 6.2921682,-1.26061 2.5403815,-0.36852 8.3071624,-0.47887 34.0715654,-0.65199 11.096753,-0.0746 29.082688,-0.19633 39.968743,-0.27056 10.886056,-0.0742 32.463432,-0.19204 47.949722,-0.26178 15.48629,-0.0697 36.43158,-0.18636 46.54507,-0.25914 10.1135,-0.0728 23.73224,-0.14791 30.26388,-0.16692 14.92475,-0.0435 16.35328,0.0446 19.75561,1.21799 4.31872,1.48943 8.1113,4.26594 11.44344,8.37767 4.07312,5.02606 6.7712,12.05624 7.43773,19.37993 0.19353,2.12652 0.0861,6.88656 -0.19822,8.78523 -1.40907,9.40866 -5.72917,16.96431 -12.22529,21.38149 -3.04518,2.07065 -6.49137,3.28844 -10.44286,3.69026 -1.59696,0.16239 -33.01242,0.4503 -85.93918,0.78757 -10.99141,0.0701 -26.19039,0.18747 -33.775508,0.26094 -24.451233,0.23685 -43.700904,0.39087 -65.571725,0.52465 -11.763963,0.072 -23.026721,0.14663 -25.0283506,0.16593 -2.0016296,0.0193 -4.0415678,0.022 -4.5331962,0.006 z m 46.1619838,-0.43877 c 9.095124,-0.0722 22.886256,-0.18829 30.64696,-0.25804 32.125986,-0.28872 59.475896,-0.48726 108.349776,-0.78654 22.38541,-0.13706 28.90265,-0.26024 31.09389,-0.58763 4.46351,-0.66689 8.23838,-2.51141 11.86202,-5.79618 3.8778,-3.51514 7.06394,-9.17795 8.50936,-15.12388 3.31038,-13.61765 -1.12843,-28.47059 -10.86304,-36.34935 -3.00352,-2.43092 -6.69121,-4.14835 -10.08297,-4.69586 -3.03432,-0.48981 -5.48011,-0.50409 -42.52266,-0.2482 -11.02652,0.0762 -32.46023,0.19636 -47.63048,0.2671 -15.17024,0.0707 -36.74762,0.18824 -47.949722,0.26114 -11.202102,0.0729 -29.733936,0.1935 -41.181853,0.26804 -26.968331,0.17558 -33.3448908,0.28956 -35.8583361,0.64097 -3.5495935,0.49626 -5.3868711,0.83566 -6.153538,1.13669 -5.112328,2.00738 -8.1366709,4.01357 -11.8131609,7.83622 -5.432414,5.64839 -8.475385,12.12104 -9.588475,20.39552 -0.260816,1.93884 -0.196796,6.6603 0.118058,8.70679 1.162257,7.55441 4.846605,14.31424 10.111843,18.55262 4.2051803,3.38506 8.3485178,5.14691 13.78949607,5.86362 1.48217383,0.19524 17.50771693,0.16817 49.16283193,-0.083 z M 1.4135617,267.05241 c -2.4813809,-0.29433 -4.9234392,-1.07059 -7.4701965,-2.37457 -1.9978638,-1.02294 -3.5071295,-2.12013 -5.1308382,-3.72999 -4.034978,-4.00053 -6.338621,-8.86783 -7.123098,-15.05018 -0.901991,-7.10847 1.51744,-15.33966 6.209213,-21.1245 4.7150027,-5.81349 11.12674389,-9.35126 18.0481159,-9.95829 0.913024,-0.0801 2.2921372,-0.20829 3.064696,-0.28491 0.7725588,-0.0766 2.0367461,-0.11801 2.8093051,-0.092 1.72534,0.0581 63.464641,-0.10158 82.172161,-0.21256 7.47977,-0.0444 21.73061,-0.13617 31.66853,-0.20397 9.93791,-0.0678 26.54473,-0.15605 36.90404,-0.19608 43.25761,-0.16723 52.27694,-0.21552 52.37866,-0.28047 0.12789,-0.0817 2.32995,0.16328 3.23281,0.35959 6.10651,1.32775 11.44693,6.06597 14.62902,12.9794 2.03352,4.41808 2.92673,8.62433 2.92742,13.78576 0.002,11.25042 -5.71088,21.04445 -13.93433,23.89073 -1.93984,0.67141 -2.77493,0.77884 -6.02764,0.77539 -1.62673,-0.002 -8.41668,0.0581 -15.08878,0.13289 -6.6721,0.0748 -20.49196,0.19516 -30.71081,0.26747 -10.21884,0.0723 -24.757,0.1915 -32.307,0.26488 -20.43468,0.19864 -42.36871,0.37893 -64.550161,0.53062 -10.886056,0.0744 -26.171227,0.19181 -33.967048,0.26083 -7.79582,0.069 -18.426484,0.15722 -23.623698,0.196 -5.197214,0.0388 -10.2826936,0.0946 -11.3010666,0.12403 -1.0183729,0.0294 -2.28256,0.002 -2.8093047,-0.0601 z m 23.7513943,-0.39493 c 33.225527,-0.2791 49.074941,-0.40069 69.211051,-0.53101 11.483033,-0.0743 25.934993,-0.19391 32.115463,-0.26577 6.18047,-0.0719 18.82234,-0.18709 28.09304,-0.25609 29.57428,-0.22007 34.96082,-0.26434 48.90744,-0.40189 7.51489,-0.0741 14.20934,-0.15694 14.87655,-0.18403 1.70691,-0.0693 3.43089,-0.56333 5.29937,-1.5185 1.91015,-0.97648 3.3194,-2.07172 5.05861,-3.93148 3.45172,-3.69097 5.66323,-8.67256 6.51218,-14.66916 0.36103,-2.5503 0.29934,-7.24326 -0.12757,-9.70462 -1.73789,-10.01947 -7.4606,-17.90532 -14.82716,-20.4317 -2.5884,-0.88771 -2.78651,-0.90767 -8.811,-0.88783 -28.54238,0.094 -74.45187,0.3057 -88.74848,0.40927 -17.31209,0.12543 -66.788439,0.35372 -98.006429,0.45224 -18.2187124,0.0575 -19.4276367,0.11351 -22.9678867,1.06416 -8.8943582,2.38836 -16.2832973,9.91859 -18.9005413,19.26194 -0.849402,3.0323 -1.163372,5.58171 -1.063758,8.63762 0.262938,8.06624 3.785246,14.96137 9.8995031,19.37887 1.9174385,1.38534 5.1221107,2.7906 7.69898371,3.37607 1.65588589,0.37621 2.60888379,0.43282 6.43474049,0.38225 2.0367458,-0.0269 10.7423977,-0.10806 19.3458937,-0.18034 z M 1.7328009,181.47462 c -5.3373596,-0.15855 -9.925599,-1.52593 -14.1248549,-4.20943 -6.898513,-4.40845 -11.512257,-11.8251 -12.833036,-20.62928 -0.30687,-2.04557 -0.31383,-7.20038 -0.01256,-9.30044 0.896603,-6.24987 2.997554,-11.46076 6.632362,-16.44993 3.189777,-4.37832 7.953965,-8.35527 12.1317506,-10.12708 0.6506899,-0.27596 1.5162609,-0.65514 1.92349,-0.84262 1.2039378,-0.55428 1.9438588,-0.70906 6.7936266,-1.42111 2.4249931,-0.35605 8.3731168,-0.46933 33.5839608,-0.63961 11.02652,-0.0745 28.782603,-0.19598 39.457961,-0.27001 10.675357,-0.074 31.994149,-0.19193 47.375099,-0.26203 15.38094,-0.0701 36.35495,-0.18736 46.60892,-0.26058 29.20739,-0.20857 43.2359,-0.22322 45.6512,-0.0477 3.45442,0.25107 5.91349,0.91395 8.6905,2.34267 2.58426,1.32954 4.77245,3.02273 7.02129,5.43292 4.6538,4.98775 7.58078,11.46342 8.7592,19.37895 0.32925,2.2116 0.33356,8.02233 0.008,10.22389 -0.85361,5.76507 -2.50911,10.2909 -5.3322,14.57728 -3.28837,4.99282 -8.25166,8.70028 -13.50095,10.0849 -3.01503,0.79527 -5.53005,0.90358 -23.07588,0.99371 -7.86605,0.0404 -21.19748,0.13171 -29.6254,0.20289 -8.42791,0.0712 -25.17839,0.18911 -37.22328,0.26205 -12.0449,0.0729 -27.99089,0.19196 -35.435554,0.26451 -30.116036,0.29354 -43.00179,0.39907 -63.911681,0.52345 -12.044894,0.0717 -23.3938461,0.14662 -25.2198941,0.16661 -1.826048,0.02 -3.7797917,0.0227 -4.3416527,0.006 z m 26.0499161,-0.29603 c 12.852569,-0.075 26.040339,-0.17023 29.306156,-0.2117 15.993182,-0.20308 69.593777,-0.60747 129.483407,-0.97689 27.98002,-0.1726 30.98219,-0.26578 33.85114,-1.05074 6.83846,-1.87104 12.18824,-6.6169 15.69853,-13.92636 5.11314,-10.6471 4.48898,-24.28894 -1.59022,-34.75619 -3.57891,-6.16223 -9.24098,-10.81716 -15.08064,-12.3982 -3.51771,-0.9524 -3.71806,-0.95531 -45.71223,-0.66556 -10.81582,0.0746 -32.33573,0.19284 -47.82202,0.26269 -15.48629,0.0699 -37.121133,0.18852 -48.077422,0.2637 -10.956288,0.0752 -28.482518,0.19157 -38.947178,0.25865 -24.189337,0.15506 -32.4471574,0.25433 -34.2862866,0.41217 -1.8044368,0.15486 -6.5708372,0.85464 -7.5534605,1.10896 -1.6820456,0.43533 -5.4303833,2.25903 -7.3977509,3.59925 -7.148042,4.86944 -12.35131,12.66411 -14.218253,21.29941 -0.572898,2.64986 -0.746264,4.40041 -0.748205,7.55493 -0.002,3.32239 0.191964,5.06169 0.870294,7.80225 2.260396,9.13233 8.17977,16.23516 16.3071953,19.56749 2.5129601,1.03034 4.6874577,1.55598 7.63235344,1.84498 1.46657196,0.14391 3.62470156,0.2287 4.46934836,0.17558 0.2458141,-0.0155 10.9626729,-0.0894 23.8152419,-0.16442 z m -27.91586136,-5.27736 c -2.72358894,-0.28637 -6.02413884,-1.39463 -8.58611744,-2.88307 -3.2207952,-1.87118 -6.5416062,-5.40086 -8.4821422,-9.01566 -2.774796,-5.16885 -3.6792,-12.30686 -2.320687,-18.31604 1.262477,-5.58439 3.835691,-10.32403 7.737207,-14.2513 2.3326963,-2.34808 4.1440491,-3.69244 6.8878625,-5.11206 2.9709061,-1.53711 5.85977668,-2.3729 9.2249738,-2.66892 0.8903427,-0.0783 2.2508992,-0.20501 3.023458,-0.28155 0.7725587,-0.0765 2.0654774,-0.11688 2.8731527,-0.0897 2.163928,0.0729 66.13805,-0.12719 90.983167,-0.2846 25.07253,-0.15885 65.06428,-0.35847 92.56357,-0.46203 10.66668,-0.0402 19.44478,-0.10549 19.50692,-0.14516 0.13256,-0.0847 2.31616,0.15525 3.23869,0.35581 7.76504,1.68812 14.33763,9.10323 16.64972,18.78395 0.61216,2.56312 0.90587,5.1339 0.90733,7.94149 0.005,8.79442 -3.50256,16.88352 -9.26152,21.36149 -1.96103,1.52484 -3.93791,2.47344 -6.31624,3.03086 -1.22794,0.2878 -1.62028,0.3141 -4.6609,0.3126 -1.82604,-10e-4 -8.60668,0.0594 -15.06808,0.13409 -6.46141,0.0746 -20.36746,0.19546 -30.90236,0.26847 -10.53489,0.073 -24.98685,0.1912 -32.11546,0.26268 -13.70215,0.13738 -35.0735,0.31044 -65.827113,0.53304 -10.253962,0.0742 -25.021966,0.19082 -32.817786,0.25912 -7.795821,0.0683 -18.340291,0.15547 -23.432155,0.1937 -5.0918649,0.0382 -10.0624188,0.0932 -11.0456754,0.12225 -0.9832567,0.029 -2.22517364,0.007 -2.75981496,-0.0495 z M 23.377216,175.50002 c 35.68717,-0.30142 48.742436,-0.40331 67.997943,-0.53064 11.166991,-0.0738 28.836871,-0.21941 39.266421,-0.32348 10.42954,-0.10407 27.9845,-0.25204 39.01102,-0.3288 11.02652,-0.0768 24.70273,-0.19895 30.39157,-0.27152 5.68884,-0.0726 11.84541,-0.13105 13.68125,-0.12997 3.69919,0.002 4.61377,-0.11137 6.53473,-0.81132 2.30043,-0.83821 4.15557,-2.04095 6.07083,-3.93588 4.82964,-4.77839 7.48577,-11.75274 7.48801,-19.66172 10e-4,-5.06141 -0.99279,-9.69061 -2.98575,-13.90201 -3.25247,-6.87293 -8.35652,-11.31524 -14.57172,-12.68249 -0.88828,-0.19541 -1.80463,-0.22211 -7.02326,-0.20461 -27.16539,0.0911 -73.76769,0.30479 -89.32312,0.40962 -20.644749,0.13913 -70.865318,0.37385 -96.474076,0.4509 -9.865303,0.0297 -16.7933182,0.10366 -17.908593,0.19121 -4.2147768,0.3309 -7.0346687,1.09116 -10.338826,2.78742 -7.832483,4.02097 -13.188887,11.54389 -14.794707,20.77874 -0.276462,1.5899 -0.382685,5.34766 -0.19792,7.00169 1.191883,10.66984 7.724845,18.59368 17.2194747,20.88554 1.84461115,0.44526 2.77423944,0.50825 6.7385259,0.4566 2.0367459,-0.0265 10.6849354,-0.10721 19.2181974,-0.17928 z M -0.05493843,90.317481 c -2.91579007,-0.08011 -6.25467547,-0.638167 -8.61945747,-1.440658 -1.6390681,-0.556219 -4.7680681,-2.13123 -6.3209351,-3.181704 -6.465973,-4.374054 -10.843018,-11.586222 -12.159514,-20.035537 -0.317862,-2.040054 -0.313386,-7.804028 0.0077,-9.905193 0.602009,-3.939596 1.7403,-7.531098 3.47782,-10.973119 1.60145,-3.172468 3.290706,-5.572806 5.800695,-8.242462 3.619818,-3.850084 7.291827,-6.293354 12.1312414,-8.071849 0.8368778,-0.307554 2.6503759,-0.652298 5.93784851,-1.12878 2.43000899,-0.352201 8.54534929,-0.470232 33.20087309,-0.640802 10.815823,-0.07483 28.342054,-0.196118 38.947179,-0.26954 10.605125,-0.07342 32.067578,-0.190964 47.694338,-0.261202 15.62675,-0.07024 36.6295,-0.187605 46.67276,-0.260815 28.81109,-0.210017 43.86672,-0.224966 46.28968,-0.04596 3.41442,0.252251 5.51808,0.800999 8.27269,2.157967 6.76437,3.332238 11.99542,9.911716 14.69059,18.477439 2.80149,8.903643 2.29762,18.723592 -1.37679,26.83232 -3.35151,7.396155 -9.00403,12.608788 -15.72361,14.499978 -3.04769,0.857758 -5.53724,0.969842 -23.61258,1.063085 -7.90117,0.04076 -21.11767,0.132187 -29.37,0.203171 -8.25233,0.07099 -25.14647,0.188919 -37.54253,0.262076 -12.39605,0.07315 -28.543172,0.192417 -35.882481,0.265025 -26.836805,0.265499 -42.66213,0.395894 -63.65629,0.524503 -11.799079,0.07228 -22.889448,0.146878 -24.6452634,0.165772 -1.7558154,0.01889 -3.65209609,0.02172 -4.21395703,0.0063 z M 44.830089,89.877688 c 8.74396,-0.0712 22.247777,-0.186531 30.008481,-0.256295 20.694135,-0.186028 45.40425,-0.376296 69.21105,-0.532929 42.50064,-0.279626 69.05373,-0.525468 70.36031,-0.651431 3.30522,-0.318647 5.65607,-0.954484 8.13703,-2.200832 5.0884,-2.556225 8.9906,-6.762541 11.73047,-12.644637 1.85208,-3.976192 2.75198,-7.424101 3.18485,-12.202704 0.23231,-2.564352 0.23247,-3.744814 0.001,-6.398174 -0.29965,-3.433325 -0.79112,-5.865912 -1.8257,-9.036597 -1.9594,-6.003761 -5.23982,-11.015087 -9.60762,-14.676528 -3.94522,-3.307198 -8.82062,-5.243561 -13.20229,-5.243561 -0.579,0 -1.39368,-0.06541 -1.81042,-0.145352 -0.70423,-0.135094 -30.33677,-0.0097 -49.98438,0.211436 -3.33605,0.03756 -19.79922,0.12697 -36.58481,0.198699 -16.7856,0.07173 -39.22492,0.191163 -49.865161,0.265407 -10.640242,0.07424 -27.93662,0.19033 -38.436396,0.257969 -26.1888692,0.168707 -31.8665365,0.248152 -34.1341192,0.477627 -2.58613347,0.26171 -6.7818964,0.948522 -7.5585159,1.237266 -2.9939526,1.113138 -5.8947129,2.673299 -8.1115029,4.362734 -7.273467,5.543173 -12.012167,13.735122 -13.363851,23.102541 -0.311772,2.160633 -0.307844,7.529166 0.007,9.608009 0.481673,3.180088 1.332945,5.932684 2.753871,8.904676 2.43231,5.087387 5.810383,8.901572 10.373879,11.713153 3.326024,2.049172 6.6445785,3.198645 10.7667926,3.729377 1.5466473,0.19913 16.8091384,0.173711 47.9497234,-0.07985 z M -2.0485794,84.74565 C -3.2300656,84.619107 -4.6697155,84.305189 -6.1204826,83.857764 -14.718835,81.205981 -20.857929,73.301333 -21.965928,63.455298 c -0.22155,-1.968765 -0.08763,-5.994746 0.25895,-7.784942 1.025637,-5.297673 3.115263,-9.791534 6.375585,-13.711062 4.098515,-4.927197 9.9781558,-8.349551 15.90716263,-9.259055 3.38427997,-0.519145 1.60523027,-0.497551 54.34227637,-0.659627 14.503036,-0.04457 34.643835,-0.137163 44.757331,-0.205758 19.289643,-0.130831 59.442943,-0.331545 92.068573,-0.460222 10.60513,-0.04183 19.40264,-0.107154 19.55004,-0.145171 0.47051,-0.121353 3.28214,0.328236 4.65862,0.74493 1.6849,0.510052 4.06207,1.705146 5.54202,2.786178 1.39762,1.020893 3.70475,3.353122 4.78022,4.832242 2.74383,3.77361 4.66021,8.442508 5.4267,13.221177 1.50122,9.359238 -0.97371,18.759088 -6.48729,24.638907 -2.10618,2.2461 -3.80415,3.470178 -6.18167,4.456406 -2.33503,0.968609 -3.34972,1.115025 -7.70741,1.112153 -2.06083,-0.0014 -8.66005,0.05773 -14.66494,0.131304 -6.00489,0.07358 -19.88222,0.194939 -30.83851,0.269693 -10.95629,0.07476 -25.37951,0.193286 -32.05161,0.263402 -11.90776,0.125135 -29.83141,0.266561 -66.657138,0.525952 -23.603135,0.166255 -32.202935,0.241253 -46.736614,0.407586 -6.4614,0.07395 -13.2707719,0.123283 -15.1319362,0.109633 -1.8611644,-0.01365 -4.0447603,0.0079 -4.85243539,0.04796 -0.8076751,0.04003 -1.90593441,0.02593 -2.44057581,-0.03133 z M 20.823303,84.343036 c 28.138081,-0.244084 48.694972,-0.403828 76.553552,-0.59488 15.310715,-0.105001 29.360425,-0.224014 31.221595,-0.264472 1.86116,-0.04046 11.40003,-0.131894 21.19748,-0.203187 28.77768,-0.209403 50.73741,-0.400304 58.74,-0.510637 l 7.4702,-0.102994 1.16068,-0.340939 c 5.02769,-1.476839 9.13054,-5.241193 11.81533,-10.840538 1.27983,-2.669184 2.08414,-5.342373 2.62105,-8.711357 0.28374,-1.780457 0.32624,-6.736044 0.0735,-8.574873 -0.50467,-3.67233 -1.45462,-6.921078 -2.90527,-9.935776 -3.24101,-6.735396 -8.168,-11.056716 -14.16999,-12.428072 -1.23075,-0.281203 -1.50805,-0.291094 -7.66174,-0.273282 -24.01255,0.06951 -74.65726,0.300069 -89.25927,0.406356 -16.52145,0.120258 -65.437193,0.347647 -97.814884,0.454701 -16.7273295,0.05531 -18.0829812,0.115499 -21.3183936,0.946543 -4.5650039,1.172561 -8.4930988,3.426119 -11.9263924,6.842201 -2.406858,2.394791 -4.24705,4.978022 -5.626014,7.897705 -1.67661,3.54989 -2.465341,6.484823 -2.821486,10.498994 -0.264252,2.978428 0.207753,6.922896 1.211131,10.121227 0.584558,1.863313 2.009846,4.799085 3.096896,6.378901 1.110263,1.613553 3.717901,4.30538 5.268798,5.438904 2.6945054,1.969368 6.6196659,3.526658 9.8619112,3.91267 0.5106052,0.06079 2.56606996,0.08858 4.5676995,0.06174 2.0016296,-0.02683 10.3912353,-0.107353 18.6435673,-0.178939 z"
         id="path345" /><path
         style="fill:#000001;stroke-width:0.129791"
         d="m 0.51969207,272.2756 c -4.63564637,-0.61064 -7.87859407,-1.80353 -11.62030607,-4.27444 -6.569336,-4.33819 -10.95667,-11.53373 -12.281033,-20.1418 -0.314854,-2.04649 -0.378874,-6.76795 -0.118058,-8.70679 1.11309,-8.27448 4.156061,-14.74713 9.588475,-20.39552 3.67649,-3.82265 6.7008329,-5.82884 11.8131609,-7.83622 0.7666669,-0.30103 2.6039445,-0.64043 6.153538,-1.13669 2.5134453,-0.35141 8.8900051,-0.46539 35.8583361,-0.64097 11.447917,-0.0745 29.979751,-0.19516 41.181853,-0.26804 11.202102,-0.0729 32.779482,-0.1904 47.949722,-0.26114 15.17025,-0.0707 36.60396,-0.19093 47.63048,-0.2671 40.82569,-0.28202 40.82313,-0.28206 44.37425,0.65974 5.51526,1.46273 10.79792,5.58227 14.44266,11.26274 5.3444,8.32943 7.08902,19.34494 4.65176,29.37093 -1.44542,5.94593 -4.63156,11.60874 -8.50936,15.12388 -3.62364,3.28477 -7.39851,5.12929 -11.86202,5.79618 -2.19124,0.32739 -8.70848,0.45057 -31.09389,0.58763 -48.87388,0.29928 -76.22379,0.49782 -108.349776,0.78654 -53.557864,0.48134 -77.9534762,0.5856 -79.80979193,0.34107 z M 15.523933,266.98847 c 5.197214,-0.0388 15.827878,-0.12698 23.623698,-0.196 7.795821,-0.069 23.080992,-0.1864 33.967048,-0.26083 22.181451,-0.15169 44.115481,-0.33198 64.550161,-0.53062 7.55,-0.0734 22.08816,-0.19258 32.307,-0.26488 10.21885,-0.0723 24.03871,-0.19266 30.71081,-0.26747 6.6721,-0.0748 13.46205,-0.13461 15.08878,-0.13289 3.25271,0.003 4.0878,-0.10398 6.02764,-0.77539 4.6069,-1.59453 8.60936,-5.48483 11.0749,-10.76458 1.95394,-4.18415 2.86007,-8.34373 2.85943,-13.12615 -10e-4,-5.16143 -0.8939,-9.36768 -2.92742,-13.78576 -3.18209,-6.91343 -8.52251,-11.65165 -14.62902,-12.9794 -0.90286,-0.19631 -3.10492,-0.44125 -3.23281,-0.35959 -0.10172,0.065 -9.12105,0.11324 -52.37866,0.28047 -10.35931,0.04 -26.96613,0.12828 -36.90404,0.19608 -9.93792,0.0678 -24.18876,0.15959 -31.66853,0.20397 -18.70752,0.11098 -80.446821,0.2707 -82.172161,0.21256 -0.772559,-0.026 -2.0367463,0.0154 -2.8093051,0.092 -0.7725588,0.0766 -2.151672,0.20483 -3.064696,0.28491 -6.92137201,0.60703 -13.3331132,4.1448 -18.0481159,9.95829 -4.691773,5.78484 -7.111204,14.01603 -6.209213,21.1245 0.913424,7.19857 4.071263,12.94531 9.341147,16.99934 1.2976957,0.99829 4.1762983,2.51732 5.8569929,3.09073 2.6323772,0.89808 4.6221604,1.20317 7.3352975,1.12476 1.018373,-0.0294 6.1038526,-0.0853 11.3010666,-0.12403 z M 2.2435836,181.34133 c -1.56584388,-0.0365 -3.8687331,-0.25649 -5.2355224,-0.50007 -5.8859223,-1.04895 -11.7073992,-4.47019 -15.4849432,-9.10038 -3.534083,-4.33178 -5.820204,-9.62027 -6.615161,-15.30285 -0.295104,-2.1095 -0.301332,-6.75844 -0.01197,-8.9401 1.328485,-10.01643 6.713333,-18.91879 14.75876,-24.39956 1.9673678,-1.34022 5.7157056,-3.16392 7.3977512,-3.59925 0.9826233,-0.25432 5.7490236,-0.9541 7.5534605,-1.10896 1.8391292,-0.15784 10.0969503,-0.25711 34.2862863,-0.41217 10.46466,-0.0671 27.99089,-0.18347 38.947179,-0.25865 10.956288,-0.0752 32.591126,-0.19384 48.077426,-0.2637 15.48629,-0.0699 37.00619,-0.18807 47.82201,-0.26269 41.99417,-0.28975 42.19452,-0.28684 45.71223,0.66556 5.83967,1.58104 11.50174,6.23597 15.08064,12.3982 3.2537,5.60227 5.03403,12.34215 5.03403,19.05758 0,8.01067 -2.44311,15.59894 -6.84826,21.27061 -3.79737,4.88912 -8.96848,8.00869 -14.60439,8.81034 -2.32903,0.33128 -8.89303,0.45507 -31.54083,0.59476 -59.88963,0.36942 -113.49022,0.77381 -129.483402,0.97689 -3.265817,0.0415 -16.453587,0.13673 -29.306156,0.2117 -12.852569,0.075 -23.5694275,0.14895 -23.8152417,0.16442 -0.2458141,0.0155 -1.0215653,0.0147 -1.7238915,-0.002 z m 11.4287624,-5.51285 c 5.091864,-0.0382 15.636334,-0.12541 23.432155,-0.1937 7.79582,-0.0683 22.563824,-0.18489 32.817786,-0.25912 30.753613,-0.2226 52.124963,-0.39566 65.827113,-0.53304 7.12861,-0.0715 21.58057,-0.18968 32.11546,-0.26268 10.5349,-0.073 24.44095,-0.19382 30.90236,-0.26847 6.4614,-0.0747 13.24204,-0.135 15.06808,-0.13409 3.04062,0.001 3.43296,-0.0248 4.6609,-0.3126 4.60637,-1.0796 8.40492,-4.01319 11.42548,-8.82377 2.60818,-4.15385 4.15519,-9.9542 4.15228,-15.56858 -0.004,-8.49872 -2.96742,-16.19015 -8.27951,-21.49211 -2.65981,-2.65474 -5.94777,-4.50944 -9.27754,-5.23333 -0.92253,-0.20056 -3.10613,-0.44046 -3.23869,-0.35581 -0.0621,0.0397 -8.84024,0.10499 -19.50692,0.14516 -27.49929,0.10356 -67.49104,0.30318 -92.56357,0.46203 -24.845117,0.15741 -88.819239,0.35752 -90.983167,0.2846 -0.8076753,-0.0272 -2.100594,0.0131 -2.8731527,0.0897 -0.7725588,0.0765 -2.1331153,0.20323 -3.023458,0.28155 -4.14442545,0.36457 -7.8908771,1.65787 -11.4983014,3.9693 -3.3368229,2.13805 -6.7289919,5.66706 -8.8732479,9.23121 -2.778865,4.619 -4.240641,10.1629 -4.085286,15.49378 0.191736,6.57926 2.402479,12.22289 6.522261,16.65014 3.218433,3.45862 6.8347549,5.52698 11.4941948,6.57407 1.49955831,0.337 2.7496708,0.43672 4.7390978,0.37805 0.9832566,-0.029 5.9538105,-0.084 11.0456754,-0.12225 z M -3.1196344,89.957542 c -5.090169,-0.655355 -9.2207066,-2.350648 -13.2165016,-5.42444 -4.809746,-3.69993 -8.477482,-9.501486 -10.086439,-15.954541 -0.665599,-2.669518 -0.821742,-4.155491 -0.817862,-7.783346 0.0043,-4.037294 0.234935,-5.916479 1.141365,-9.300439 2.608816,-9.739451 9.727658,-18.327619 18.2315518,-21.994541 2.5790208,-1.112087 2.7845611,-1.172338 5.4746835,-1.604827 5.3959311,-0.867502 5.0333329,-0.857404 38.5396197,-1.073249 10.499776,-0.06764 27.796154,-0.183725 38.436396,-0.257969 10.640241,-0.07424 33.079561,-0.193677 49.865161,-0.265407 16.78559,-0.07173 33.24876,-0.161144 36.58481,-0.198699 19.64761,-0.221183 49.28015,-0.34653 49.98438,-0.211436 0.41674,0.07994 1.23142,0.145352 1.81042,0.145352 4.38167,0 9.25707,1.936363 13.20229,5.243561 4.3678,3.661441 7.64822,8.672767 9.60723,14.676528 1.03458,3.170685 1.52606,5.603272 1.82571,9.036597 0.23157,2.65336 0.23141,3.833822 -0.001,6.398174 -0.43287,4.778603 -1.33277,8.226512 -3.18486,12.202704 -2.73986,5.882096 -6.64206,10.088412 -11.73047,12.644637 -2.48096,1.246348 -4.83181,1.882185 -8.13702,2.200832 -1.30658,0.125963 -27.85967,0.371805 -70.36031,0.651431 -23.8068,0.156633 -48.516918,0.346901 -69.211053,0.532929 -54.844156,0.493013 -76.0302924,0.584365 -77.9582045,0.336149 z m 8.3640662,-5.228518 c 1.8611643,0.01365 8.6705362,-0.03569 15.1319362,-0.109633 14.533679,-0.166333 23.133479,-0.241331 46.736614,-0.407586 36.825728,-0.259391 54.749378,-0.400817 66.657138,-0.525952 6.6721,-0.07012 21.09532,-0.188646 32.05161,-0.263402 10.95629,-0.07475 24.83362,-0.196117 30.83851,-0.269693 6.00489,-0.07358 12.60411,-0.132662 14.66494,-0.131304 3.28852,0.0022 3.90515,-0.03083 5.03985,-0.269722 2.28035,-0.480084 4.61322,-1.602257 6.70019,-3.222971 1.25824,-0.977131 3.4787,-3.458236 4.4816,-5.007665 6.57262,-10.154409 6.03648,-24.876901 -1.27197,-34.928285 -1.07547,-1.47912 -3.3826,-3.811349 -4.78022,-4.832242 -1.47995,-1.081032 -3.85712,-2.276126 -5.54202,-2.786178 -1.37648,-0.416694 -4.18811,-0.866283 -4.65862,-0.74493 -0.1474,0.03802 -8.94491,0.103344 -19.55004,0.145171 -32.62563,0.128677 -72.77893,0.329391 -92.068573,0.460222 -10.113496,0.06859 -30.254295,0.161185 -44.757331,0.205758 C 2.1809999,32.202688 3.9600496,32.181094 0.57576963,32.700239 -5.3532372,33.609743 -11.232878,37.032097 -15.331393,41.959294 c -3.260322,3.919528 -5.349948,8.413389 -6.375585,13.711062 -0.346584,1.790196 -0.4805,5.816177 -0.25895,7.784942 1.00269,8.910229 6.279459,16.476613 13.6746191,19.608099 3.0382451,1.286548 5.9009534,1.851483 8.68330531,1.713588 0.80767509,-0.04003 2.99127099,-0.06161 4.85243539,-0.04796 z"
         id="path343" /></g></g></svg>
