<?xml version="1.0" encoding="UTF-8" standalone="no"?>
<!-- Created with Inkscape (http://www.inkscape.org/) -->

<svg
   width="290.86526mm"
   height="300.74307mm"
   viewBox="0 0 290.86526 300.74307"
   version="1.1"
   id="svg5"
   xml:space="preserve"
   inkscape:version="1.2.2 (b0a84865, 2022-12-01)"
   sodipodi:docname="missedIcon.svg"
   xmlns:inkscape="http://www.inkscape.org/namespaces/inkscape"
   xmlns:sodipodi="http://sodipodi.sourceforge.net/DTD/sodipodi-0.dtd"
   xmlns="http://www.w3.org/2000/svg"
   xmlns:svg="http://www.w3.org/2000/svg"><sodipodi:namedview
     id="namedview7"
     pagecolor="#ffffff"
     bordercolor="#000000"
     borderopacity="0.25"
     inkscape:showpageshadow="2"
     inkscape:pageopacity="0.0"
     inkscape:pagecheckerboard="0"
     inkscape:deskcolor="#d1d1d1"
     inkscape:document-units="mm"
     showgrid="false"
     inkscape:zoom="0.914906"
     inkscape:cx="385.83199"
     inkscape:cy="563.99236"
     inkscape:window-width="3440"
     inkscape:window-height="1440"
     inkscape:window-x="1440"
     inkscape:window-y="0"
     inkscape:window-maximized="0"
     inkscape:current-layer="layer1" /><defs
     id="defs2" /><g
     inkscape:label="Layer 1"
     inkscape:groupmode="layer"
     id="layer1"
     transform="translate(40.456005,0.85936314)"><g
       id="g225"><path
         style="fill:#a0a0a0;stroke-width:0.176389"
         d="m 209.48704,292.11782 c -3.73347,-0.28932 -7.27931,-1.27586 -10.6026,-2.94992 -2.79058,-1.40571 -4.36668,-2.50174 -6.40443,-4.45364 -0.96217,-0.92163 -16.0014,-16.87601 -33.42053,-35.45417 C 141.64038,230.68193 122.82966,210.6199 117.2579,204.6778 111.68614,198.7357 107.07009,193.87398 107,193.87398 c -0.0701,0 -6.50693,6.80641 -14.304073,15.12535 -55.868581,59.60736 -69.585963,74.20293 -70.869931,75.40692 -6.366637,5.9701 -15.9565049,8.51399 -25.0837897,6.65397 -12.5027893,-2.5479 -22.4249523,-12.72053 -25.0381733,-25.67019 -0.589163,-2.91957 -0.677372,-8.04337 -0.189624,-11.01466 0.786503,-4.79125 2.276442,-8.53209 5.023164,-12.6118 0.739725,-1.09871 1.974767,-2.48361 4.011249,-4.49792 1.618345,-1.60073 17.3758724,-18.07104 35.016727,-36.6007 17.640854,-18.52965 35.76756,-37.56609 40.281568,-42.3032 4.514009,-4.7371 8.275609,-8.73436 8.359113,-8.88278 0.112251,-0.19952 -0.09935,-0.52922 -0.811801,-1.26486 C 62.864435,147.66686 57.635554,142.1788 51.774697,136.01842 41.102684,124.80101 21.539983,104.26164 -4.9375926,76.474763 -12.709278,68.318773 -19.563769,61.21471 -20.169795,60.687957 c -4.010258,-3.485687 -7.294368,-9.49172 -8.673697,-15.862596 -0.353022,-1.630546 -0.401047,-2.347904 -0.401491,-5.997222 -4.59e-4,-3.833561 0.03515,-4.311647 0.473829,-6.360295 1.440845,-6.728799 4.633803,-12.504584 9.503851,-17.191649 2.741018,-2.63803 5.214369,-4.353096 8.532824,-5.9168136 8.3802691,-3.9489384 17.8457972,-3.9189842 25.849988,0.081804 2.557938,1.2785516 4.178862,2.4112156 6.37179,4.4524626 1.027732,0.956643 14.285067,14.994976 29.460749,31.196297 54.017212,57.667935 55.191702,58.913895 55.534492,58.913895 0.21614,0 14.55817,-15.184601 40.73404,-43.127089 22.22023,-23.719897 41.67555,-44.416167 43.23404,-45.99171 2.1506,-2.17414 3.28125,-3.163951 4.69071,-4.106441 7.52154,-5.0295512 16.81042,-6.2437947 25.52745,-3.33695 11.29076,3.765095 19.45889,13.326562 21.75233,25.462849 0.22583,1.195061 0.30383,2.565643 0.30699,5.394473 0.004,3.270963 -0.0517,4.070144 -0.40285,5.81279 -0.60272,2.99124 -1.32306,5.098671 -2.68572,7.85735 -1.5697,3.177852 -3.13573,5.35463 -5.51674,7.668286 -1.0509,1.021193 -20.25115,21.105153 -42.66718,44.631022 -22.41603,23.52587 -41.1109,43.14298 -41.54417,43.59357 -0.57132,0.59419 -0.74612,0.89203 -0.63627,1.08411 0.0833,0.14566 7.09878,7.55574 15.58994,16.46684 8.49117,8.91111 27.38771,28.74326 41.99232,44.07146 14.60459,15.32819 26.93284,28.17837 27.39607,28.55595 2.72466,2.22086 5.8693,7.12893 7.41768,11.57732 1.82167,5.23353 2.17182,11.4127 0.96426,17.01673 -1.4213,6.59603 -5.34781,13.28766 -10.35468,17.64665 -4.17875,3.63804 -9.32866,6.22131 -14.59164,7.3194 -1.36183,0.28413 -5.74561,0.75002 -6.33152,0.67287 -0.10717,-0.0141 -0.94893,-0.0841 -1.87056,-0.1555 z m 7.23194,-0.62287 c 11.45376,-2.0088 20.94741,-10.30698 24.70444,-21.59356 3.83697,-11.52674 0.76116,-24.34282 -7.67256,-31.9695 -0.67342,-0.60897 -19.48529,-20.27631 -41.80416,-43.70522 -46.70785,-49.03082 -43.13744,-45.2669 -43.13744,-45.47533 0,-0.089 3.43394,-3.76428 7.63097,-8.16719 4.19703,-4.40292 22.82786,-23.95969 41.40184,-43.459481 18.57398,-19.499792 34.63784,-36.287202 35.69746,-37.305355 1.05962,-1.018152 2.3786,-2.446902 2.93107,-3.175001 6.94674,-9.155171 8.0358,-21.61431 2.83014,-32.37739 -4.798,-9.920196 -14.03207,-16.5958532 -24.77094,-17.9078587 -1.10792,-0.135357 -2.75534,-0.1744716 -4.49792,-0.1067942 -4.29715,0.1668897 -7.61746,0.9968504 -11.39276,2.8477903 -2.71503,1.3311176 -4.4293,2.5153606 -6.48959,4.4831036 -0.97727,0.933381 -19.00252,20.07237 -40.0561,42.531087 -21.05358,22.458716 -39.86394,42.520748 -41.80079,44.582289 -1.93685,2.06155 -3.65275,3.74827 -3.8131,3.74827 -0.16036,0 -18.948105,-19.903284 -41.750553,-44.229517 C 41.926539,35.889059 22.443599,15.192027 21.433566,14.221888 19.307383,12.179687 17.562777,10.96427 14.841908,9.6296704 12.574472,8.5174814 10.455325,7.7865787 7.8745476,7.2265983 6.2647857,6.87731 5.5262825,6.8252118 2.2301035,6.8284076 -1.0108993,6.83155 -1.8315256,6.8892358 -3.4143406,7.2251835 -10.735523,8.7790824 -16.804655,12.41827 -21.55452,18.102443 c -1.811983,2.168404 -3.026691,4.079831 -4.346488,6.839494 -4.495716,9.400436 -4.267381,19.962302 0.622382,28.788894 1.293891,2.335625 2.888241,4.374099 5.129454,6.558319 2.978397,2.902656 84.395942,88.32184 84.670295,88.8318 0.136881,0.25443 -0.02873,0.52334 -0.869068,1.41111 -15.271721,16.13379 -82.741814,86.81353 -83.270489,87.23178 -1.664696,1.31699 -4.245911,4.78448 -5.667393,7.61335 -3.25685,6.48139 -4.126075,13.61998 -2.532989,20.80237 2.976016,13.41731 14.111787,23.58269 27.44023206,25.04904 7.80862804,0.85907 15.90921894,-1.61526 21.55862294,-6.58511 0.67257,-0.59166 20.223771,-21.34113 43.447113,-46.10994 23.223342,-24.76879 42.318368,-45.00423 42.433388,-44.96762 0.11503,0.0366 18.83992,19.94479 41.61087,44.24042 22.77096,24.29565 42.33824,45.09079 43.48286,46.21146 4.47562,4.38201 9.85536,6.92681 16.39349,7.75464 1.72664,0.21861 6.21075,0.0663 8.17122,-0.2775 z"
         id="path239" /><path
         style="fill:#d05e64;stroke-width:0.176389"
         d="m 208.25231,278.73997 c -3.86529,-0.93553 -5.60897,-2.08977 -9.525,-6.30518 -4.66222,-5.01863 -5.45629,-5.86756 -7.32103,-7.82676 -0.97064,-1.0198 -2.75657,-2.92474 -3.96875,-4.23318 -1.21218,-1.30845 -2.99779,-3.21345 -3.96801,-4.23333 -2.62636,-2.76079 -9.20965,-9.77835 -13.48823,-14.37795 -2.07557,-2.23132 -3.82185,-4.09664 -3.88061,-4.14514 -0.0588,-0.0485 -1.25398,-1.31851 -2.65605,-2.82223 -1.40204,-1.50371 -3.81998,-4.08567 -5.37317,-5.7377 -3.41896,-3.63648 -9.4839,-10.12003 -11.04023,-11.80223 -0.62282,-0.67319 -1.88645,-2.01958 -2.80808,-2.992 -0.92163,-0.9724 -2.42976,-2.57004 -3.35139,-3.5503 -0.92163,-0.98026 -2.83236,-3.00731 -4.24607,-4.50455 -1.4137,-1.49724 -3.63067,-3.87318 -4.9266,-5.27988 -1.29593,-1.40671 -3.55239,-3.81796 -5.01435,-5.35836 -1.46196,-1.54039 -3.05499,-3.24609 -3.54006,-3.79044 -0.48507,-0.54436 -1.56452,-1.70496 -2.39878,-2.57914 -4.9672,-5.2049 -6.71785,-7.12268 -7.65539,-8.38617 -1.51801,-2.04579 -2.87983,-2.93343 -4.88708,-3.18547 -2.46863,-0.30997 -4.25237,0.42007 -6.49683,2.65897 -0.82837,0.82633 -2.61322,2.69304 -3.966322,4.14824 -1.353102,1.45521 -3.255029,3.4803 -4.226503,4.50021 -0.971474,1.0199 -2.599753,2.76516 -3.618399,3.87837 -1.018646,1.11319 -3.203839,3.45373 -4.855986,5.20118 -1.652146,1.74745 -4.742621,5.0425 -6.867722,7.32233 -3.820881,4.09906 -5.026492,5.38358 -8.120041,8.6514 -0.873125,0.9223 -2.61884,2.78601 -3.879368,4.14157 -2.152428,2.31472 -4.999969,5.34691 -5.211108,5.54906 -0.05205,0.0498 -1.235761,1.32092 -2.630461,2.82464 -1.3947,1.50371 -3.180362,3.40871 -3.968139,4.23333 -0.787778,0.82462 -2.986864,3.16997 -4.886858,5.21189 -1.899995,2.04191 -3.842056,4.11247 -4.31569,4.60122 -0.473633,0.48876 -1.773965,1.86803 -2.889624,3.06504 -1.11566,1.19703 -2.147535,2.30294 -2.293056,2.45759 -0.14552,0.15466 -0.856189,0.91474 -1.579262,1.68905 -4.681139,5.01289 -6.101986,6.52955 -7.592959,8.10498 -0.921632,0.97383 -2.786945,2.96064 -4.145139,4.41512 -3.994277,4.27743 -5.361504,5.73229 -6.879425,7.32039 -0.788182,0.82462 -2.588415,2.74272 -4.000521,4.26247 -3.001991,3.23083 -3.362487,3.55875 -4.971131,4.52205 -4.0514674,2.42612 -9.2515914,2.85745 -13.8681999,1.15032 -1.9844736,-0.73383 -4.1495519,-1.96706 -5.3821097,-3.06568 -0.2910417,-0.25941 -0.9107364,-0.81414 -1.3770997,-1.23272 -2.4694427,-2.21647 -4.3620497,-5.54239 -5.4496987,-9.5769 -0.564728,-2.09478 -0.563061,-6.59479 0.0032,-8.75227 0.913534,-3.48037 2.068473,-5.3004 5.7160066,-9.00769 3.9206891,-3.98493 8.3083289,-8.55291 11.6859449,-12.16625 0.8615044,-0.92163 2.4453601,-2.58918 3.5196813,-3.70565 1.0743211,-1.11649 3.4614359,-3.60941 5.3046992,-5.53984 1.843264,-1.93044 3.515448,-3.67602 3.715966,-3.87908 0.200517,-0.20304 1.071338,-1.12324 1.935158,-2.04487 1.388151,-1.48105 3.8236,-4.03841 10.753019,-11.29129 2.876077,-3.01033 8.582921,-9.00808 10.487312,-11.02191 0.91742,-0.97014 2.624025,-2.75669 3.792456,-3.97014 1.168432,-1.21344 3.428832,-3.59469 5.023113,-5.29167 1.59428,-1.69697 3.896695,-4.11729 5.116473,-5.37847 1.21978,-1.26118 3.685681,-3.84 5.47978,-5.73073 5.031427,-5.30241 10.324355,-10.86918 11.909359,-12.52552 0.789102,-0.82462 2.152022,-2.25337 3.028712,-3.175 0.876689,-0.92163 2.4749,-2.59385 3.551579,-3.71604 2.513565,-2.61981 2.958599,-3.18147 3.624426,-4.57424 0.49405,-1.03344 0.54824,-1.31211 0.549406,-2.82532 0.0012,-1.54152 -0.04596,-1.77481 -0.576552,-2.85317 -0.417858,-0.84923 -0.934693,-1.50767 -1.866715,-2.37816 -0.70888,-0.66207 -2.268456,-2.23564 -3.465729,-3.49682 -1.197271,-1.26118 -3.690999,-3.88026 -5.541618,-5.82017 -1.850619,-1.93992 -4.118825,-4.31782 -5.040457,-5.28423 -0.921632,-0.96641 -2.509132,-2.62385 -3.527777,-3.68319 -1.018646,-1.05935 -1.931459,-2.01638 -2.028472,-2.12674 -0.09701,-0.11036 -1.046403,-1.11229 -2.109753,-2.2265 -1.063351,-1.11421 -2.684592,-2.81959 -3.602762,-3.78973 -0.918169,-0.97014 -2.391727,-2.51795 -3.274575,-3.43958 -0.882847,-0.92163 -2.555666,-2.66803 -3.717378,-3.88089 -1.161709,-1.21286 -3.580636,-3.75125 -5.375392,-5.64087 -1.794757,-1.88963 -3.97757,-4.18507 -4.850695,-5.100997 -0.873125,-0.915922 -1.706562,-1.791476 -1.852083,-1.945675 -0.456205,-0.48341 -3.834059,-4.028952 -7.320138,-7.683532 C 20.086754,83.751491 19.003072,82.614358 15.018334,78.427446 12.894757,76.196127 10.395118,73.576752 9.4635821,72.606613 8.532046,71.636474 7.1398579,70.168036 6.3698323,69.343418 5.5998066,68.5188 4.0557019,66.890912 2.9384865,65.725888 -1.5935047,60.999964 -3.1097047,59.409986 -6.0589443,56.29064 c -1.696884,-1.794757 -4.0409507,-4.215695 -5.2090387,-5.379862 -1.771742,-1.765796 -2.249496,-2.360978 -2.882108,-3.590496 -1.448087,-2.81444 -1.940747,-4.638882 -2.078824,-7.698393 -0.07725,-1.711789 -0.0312,-2.706275 0.181665,-3.923175 1.347385,-7.70258 7.2101985,-14.063213 14.5279398,-15.761525 2.20019724,-0.510626 6.3265117,-0.411882 8.2473301,0.197358 2.5283617,0.801942 5.2103951,2.407042 6.5170721,3.900232 0.520899,0.595253 2.411435,2.61458 4.767209,5.09197 2.78517,2.928956 4.672435,4.941341 6.266412,6.681861 0.921632,1.006362 1.981676,2.15698 2.355656,2.556929 1.237613,1.323561 5.096656,5.425557 8.143381,8.656062 1.651379,1.750991 4.186787,4.453622 5.634238,6.005844 4.58035,4.911893 7.189533,7.695361 8.839113,9.429539 0.880473,0.925629 1.991723,2.118607 2.469444,2.651061 0.477721,0.532455 0.955465,1.048393 1.061655,1.146528 0.10619,0.09814 1.487075,1.567491 3.068634,3.265234 1.581559,1.697743 3.598114,3.843911 4.481233,4.769263 0.883119,0.925352 3.113797,3.306466 4.95706,5.291369 1.843264,1.9849 4.189831,4.482169 5.214592,5.549487 1.024763,1.067317 2.298186,2.416826 2.829831,2.99891 0.531645,0.582083 2.233203,2.410026 3.781242,4.062093 1.548036,1.652067 3.886175,4.150866 5.195862,5.552887 3.865188,4.137684 8.065163,8.614684 9.687318,10.326294 0.832356,0.87825 2.426188,2.58012 3.541848,3.78192 6.6071,7.11725 7.12969,7.59948 8.94723,8.2561 1.43008,0.51664 2.41984,0.58865 3.79849,0.27635 1.59683,-0.36172 3.09635,-1.37035 3.96641,-2.66796 0.66155,-0.98663 1.21437,-1.60811 5.68926,-6.39582 1.30968,-1.40125 3.01129,-3.2239 3.78134,-4.05035 0.77005,-0.82644 2.00332,-2.13762 2.74059,-2.91374 0.73727,-0.77611 2.44475,-2.60173 3.79441,-4.05694 2.62697,-2.832422 6.46956,-6.938201 8.91278,-9.523264 0.82612,-0.874081 2.05369,-2.18455 2.72794,-2.912154 0.67427,-0.727604 2.06209,-2.204533 3.08407,-3.282066 1.715,-1.808196 5.51634,-5.848878 6.51868,-6.929099 1.85531,-1.999476 7.90685,-8.47436 11.39088,-12.187741 2.32833,-2.481609 6.01385,-6.414402 8.19003,-8.739541 6.84139,-7.309646 8.70199,-9.293171 10.16736,-10.839082 0.78322,-0.826283 2.72105,-2.891397 4.30627,-4.58914 1.58521,-1.697743 3.99956,-4.27743 5.36522,-5.732639 1.36566,-1.455208 3.00277,-3.201458 3.63804,-3.880556 0.63525,-0.679097 2.41381,-2.56622 3.95236,-4.193607 1.53855,-1.627385 3.16269,-3.364154 3.60918,-3.859486 1.51661,-1.682484 3.83517,-3.09542 6.54445,-3.988186 1.81586,-0.598363 6.08868,-0.763851 8.0004,-0.309857 3.74814,0.890114 6.56327,2.464999 9.31498,5.21114 3.91375,3.905837 5.97901,9.142097 5.73809,14.54833 -0.13221,2.966865 -0.58694,4.658814 -2.03843,7.584723 -0.68606,1.382957 -1.04134,1.837496 -2.75739,3.527778 -1.08344,1.067152 -2.9512,2.972153 -4.15058,4.233333 -1.19937,1.261181 -3.13771,3.287644 -4.30741,4.503251 -1.16971,1.215609 -3.38979,3.557171 -4.93351,5.203473 -1.54372,1.646302 -3.92497,4.144214 -5.29167,5.550916 -1.36669,1.406701 -3.82995,3.986389 -5.47391,5.732639 -2.673,2.839323 -4.86235,5.14214 -11.73499,12.343169 -1.11321,1.166397 -2.66102,2.7917 -3.43959,3.611785 -0.77856,0.820087 -1.6859,1.772587 -2.01631,2.116667 -0.33042,0.344082 -1.24323,1.300919 -2.02848,2.126306 -3.14062,3.301163 -7.98942,8.382808 -8.57147,8.983068 -0.33955,0.35018 -1.92686,2.02396 -3.52734,3.71951 -1.6005,1.69556 -3.26019,3.44002 -3.68822,3.87658 -0.42803,0.43656 -2.13106,2.2225 -3.78451,3.96875 -2.69845,2.84989 -6.1129,6.43797 -11.32322,11.899 -0.97567,1.02263 -3.59903,3.76433 -5.82968,6.09267 -10.87303,11.34922 -10.74869,11.18265 -10.72982,14.374 0.009,1.599 0.0765,2.01135 0.48772,3.0003 0.82443,1.98258 0.62945,1.76158 12.8335,14.54552 2.96707,3.10806 5.90394,6.20535 6.52639,6.88286 0.62244,0.67752 1.48889,1.59295 1.92546,2.03428 0.9761,0.98679 6.94266,7.23653 9.09367,9.52526 0.86782,0.9234 2.53034,2.66965 3.69448,3.88056 4.62686,4.81273 6.59118,6.8644 8.02573,8.3826 4.55893,4.82469 14.32052,15.07768 17.37431,18.24893 1.26118,1.30968 3.60272,3.77031 5.20342,5.46805 1.60071,1.69775 3.82647,4.03931 4.94615,5.20348 2.47668,2.57506 5.44679,5.68924 7.22554,7.576 0.72717,0.77134 2.35884,2.4779 3.62596,3.79237 1.26711,1.31448 2.97367,3.1028 3.79236,3.97404 0.81867,0.87125 2.32195,2.44577 3.34059,3.49894 1.01865,1.05316 1.87902,1.98876 1.91194,2.07911 0.0329,0.0904 0.50611,0.52781 1.05154,0.97211 3.91001,3.18508 5.93589,9.69797 4.82198,15.50187 -1.43953,7.50052 -6.84678,13.51982 -13.87087,15.44091 -1.99965,0.54691 -5.98138,0.64452 -7.84931,0.19244 z"
         id="path237" /><path
         style="fill:#cd5d63;stroke-width:0.176389"
         d="m 209.13426,279.31062 c -1.22282,-0.23384 -3.13609,-0.8288 -4.16368,-1.29473 -2.39504,-1.08595 -3.30593,-1.87388 -8.19517,-7.08889 -8.04963,-8.58599 -62.54676,-66.73526 -73.04306,-77.93803 -5.49761,-5.86765 -10.46471,-11.26378 -11.03801,-11.99138 -1.74308,-2.21227 -3.00875,-2.88886 -5.42837,-2.90186 -1.44466,-0.008 -1.69646,0.0435 -2.73403,0.55698 -0.62855,0.31106 -1.63283,1.02544 -2.23175,1.5875 -0.95911,0.90013 -26.507424,28.14015 -73.831273,78.72013 -8.339567,8.91335 -15.29046,16.19513 -15.963193,16.72306 -1.570071,1.23211 -3.6555713,2.23368 -5.8003172,2.7856 -1.5809435,0.40682 -1.984897,0.4412 -4.3871089,0.37328 -3.15951282,-0.0894 -4.5876983,-0.42295 -7.2166387,-1.68565 -5.6449292,-2.71129 -9.5633692,-7.81209 -10.8699732,-14.14991 -0.492563,-2.38923 -0.423845,-6.00275 0.156183,-8.21292 0.771478,-2.9397 2.202984,-5.60857 3.865273,-7.20631 1.067299,-1.02588 21.682238,-22.60228 54.01748,-56.53683 30.175713,-31.66821 34.99848,-36.74227 35.580914,-37.43486 0.347926,-0.41373 0.838717,-1.1888 1.090648,-1.72238 0.397933,-0.8428 0.458054,-1.20165 0.458054,-2.73403 0,-2.50063 -0.394092,-3.29164 -2.808018,-5.6362 C 75.58871,142.54852 63.589083,130.00356 49.926385,115.6455 36.263685,101.28745 22.736184,87.079322 19.865268,84.071891 16.994354,81.06446 9.8477571,73.564551 3.9839434,67.405426 -10.369426,52.329194 -9.9919348,52.723545 -11.889951,50.822584 c -2.416682,-2.420428 -3.681208,-4.831507 -4.440476,-8.466667 -0.492077,-2.355935 -0.360295,-6.054263 0.301694,-8.466667 1.721792,-6.27451 6.0956451,-11.246165 11.9250735,-13.554949 2.1146998,-0.83754 3.82619049,-1.139322 6.4219574,-1.132364 3.4940009,0.0094 6.2270478,0.848748 9.2080041,2.82799 0.638706,0.424078 5.619025,5.611748 15.012089,15.637105 7.730962,8.251371 15.961293,17.028637 18.289627,19.505039 2.328333,2.476401 13.043957,13.907552 23.812498,25.402557 28.642617,30.574892 32.574954,34.754022 33.493954,35.595972 1.75087,1.60407 4.04571,2.24736 6.13032,1.71846 1.53127,-0.38852 2.71886,-1.25461 4.07445,-2.97144 1.03484,-1.3106 5.05211,-5.63841 20.41936,-21.997812 2.77948,-2.958924 15.24236,-16.254237 27.69529,-29.54514 41.23494,-44.009686 40.46241,-43.194272 41.66316,-43.976077 1.60748,-1.046628 3.60168,-1.920884 5.37656,-2.357083 2.28775,-0.562249 5.50353,-0.521028 7.90245,0.101295 1.94568,0.504744 4.43493,1.631177 6.09323,2.757307 3.38462,2.298457 6.26163,6.158742 7.62073,10.225251 0.7817,2.338946 0.92156,3.294223 0.91671,6.261806 -0.004,2.495056 -0.0584,3.01737 -0.46869,4.505619 -0.9257,3.357757 -2.24691,5.64542 -4.44824,7.702087 -0.80901,0.755831 -8.68327,8.954551 -17.4984,18.219378 -8.81512,9.264827 -16.86099,17.71893 -17.87974,18.786898 -10.13361,10.623243 -51.02228,53.570681 -52.69151,55.344561 -2.09674,2.2282 -2.88469,4.27352 -2.5217,6.54574 0.35885,2.24633 1.28342,3.82506 3.78258,6.45892 0.87452,0.92163 8.69741,9.13694 17.3842,18.25625 8.6868,9.1193 24.60216,25.82774 35.36747,37.12986 25.99263,27.28876 33.33147,34.96188 34.75301,36.33611 5.05001,4.88195 6.28187,13.29727 2.98959,20.423 -1.90717,4.1278 -5.55337,7.83604 -9.49617,9.65773 -2.54262,1.17475 -4.1362,1.53275 -7.07807,1.59008 -1.45521,0.0284 -2.84427,0.0136 -3.0868,-0.0328 z m 6.96736,-0.76309 c 7.02409,-1.92109 12.43134,-7.94039 13.87087,-15.44091 1.11391,-5.8039 -0.91197,-12.31679 -4.82198,-15.50187 -0.54543,-0.4443 -1.01865,-0.88175 -1.05154,-0.97211 -0.0329,-0.0904 -0.89329,-1.02595 -1.91194,-2.07911 -1.01864,-1.05317 -2.52192,-2.62769 -3.34059,-3.49894 -0.81869,-0.87124 -2.52525,-2.65956 -3.79236,-3.97404 -1.26712,-1.31447 -2.89879,-3.02103 -3.62596,-3.79237 -1.77875,-1.88676 -4.74886,-5.00094 -7.22554,-7.576 -1.11968,-1.16417 -3.34544,-3.50573 -4.94615,-5.20348 -1.6007,-1.69774 -3.94224,-4.15837 -5.20342,-5.46805 -3.05379,-3.17125 -12.81538,-13.42424 -17.37431,-18.24893 -1.43455,-1.5182 -3.39887,-3.56987 -8.02573,-8.3826 -1.16414,-1.21091 -2.82666,-2.95716 -3.69448,-3.88056 -2.15101,-2.28873 -8.11757,-8.53847 -9.09367,-9.52526 -0.43657,-0.44133 -1.30302,-1.35676 -1.92546,-2.03428 -0.62245,-0.67751 -3.55932,-3.7748 -6.52639,-6.88286 -12.20405,-12.78394 -12.00907,-12.56294 -12.8335,-14.54552 -0.41124,-0.98895 -0.47827,-1.4013 -0.48772,-3.0003 -0.0189,-3.19135 -0.14321,-3.02478 10.72982,-14.374 2.23065,-2.32834 4.85401,-5.07004 5.82968,-6.09267 5.21032,-5.46103 8.62477,-9.04911 11.32322,-11.899 1.65345,-1.74625 3.35648,-3.53219 3.78451,-3.96875 0.42803,-0.43656 2.08772,-2.18102 3.68822,-3.87658 1.60048,-1.69555 3.18779,-3.36933 3.52734,-3.71951 0.58205,-0.60026 5.43085,-5.681905 8.57147,-8.983068 0.78525,-0.825387 1.69806,-1.782224 2.02848,-2.126306 0.33041,-0.34408 1.23775,-1.29658 2.01631,-2.116667 0.77857,-0.820085 2.32638,-2.445388 3.43959,-3.611785 6.87264,-7.201029 9.06199,-9.503846 11.73499,-12.343169 1.64396,-1.74625 4.10722,-4.325938 5.47391,-5.732639 1.3667,-1.406702 3.74795,-3.904614 5.29167,-5.550916 1.54372,-1.646302 3.7638,-3.987864 4.93351,-5.203473 1.1697,-1.215607 3.10804,-3.24207 4.30741,-4.503251 1.19938,-1.26118 3.06714,-3.166181 4.15058,-4.233333 1.71605,-1.690282 2.07133,-2.144821 2.75739,-3.527778 1.45149,-2.925909 1.90622,-4.617858 2.03843,-7.584723 0.24092,-5.406233 -1.82434,-10.642493 -5.73809,-14.54833 -2.75171,-2.746141 -5.56684,-4.321026 -9.31498,-5.21114 -1.91172,-0.453994 -6.18454,-0.288506 -8.0004,0.309857 -2.70928,0.892766 -5.02784,2.305702 -6.54445,3.988186 -0.44649,0.495332 -2.07063,2.232101 -3.60918,3.859486 -1.53855,1.627387 -3.31711,3.51451 -3.95236,4.193607 -0.63527,0.679098 -2.27238,2.425348 -3.63804,3.880556 -1.36566,1.455209 -3.78001,4.034896 -5.36522,5.732639 -1.58522,1.697743 -3.52305,3.762857 -4.30627,4.58914 -1.46537,1.545911 -3.32597,3.529436 -10.16736,10.839082 -2.17618,2.325139 -5.8617,6.257932 -8.19003,8.739541 -3.48403,3.713381 -9.53557,10.188265 -11.39088,12.187741 -1.00234,1.080221 -4.80368,5.120903 -6.51868,6.929099 -1.02198,1.077533 -2.4098,2.554462 -3.08407,3.282066 -0.67425,0.727604 -1.90182,2.038073 -2.72794,2.912154 -2.44322,2.585063 -6.28581,6.690842 -8.91278,9.523264 -1.34966,1.45521 -3.05714,3.28083 -3.79441,4.05694 -0.73727,0.77612 -1.97054,2.0873 -2.74059,2.91374 -0.77005,0.82645 -2.47166,2.6491 -3.78134,4.05035 -4.47489,4.78771 -5.02771,5.40919 -5.68926,6.39582 -0.87006,1.29761 -2.36958,2.30624 -3.96641,2.66796 -1.37865,0.3123 -2.36841,0.24029 -3.79849,-0.27635 -1.81754,-0.65662 -2.34013,-1.13885 -8.94723,-8.2561 -1.11566,-1.2018 -2.709492,-2.90367 -3.541848,-3.78192 -1.622155,-1.71161 -5.82213,-6.18861 -9.687318,-10.326294 -1.309687,-1.402021 -3.647826,-3.90082 -5.195862,-5.552887 -1.548039,-1.652067 -3.249597,-3.48001 -3.781242,-4.062093 -0.531645,-0.582084 -1.805068,-1.931593 -2.829831,-2.99891 C 69.478958,84.062608 67.132391,81.565339 65.289127,79.580439 63.445864,77.595536 61.215186,75.214422 60.332067,74.28907 59.448948,73.363718 57.432393,71.21755 55.850834,69.519807 54.269275,67.822064 52.88839,66.352709 52.7822,66.254573 52.67601,66.156438 52.198266,65.6405 51.720545,65.108045 51.242824,64.575591 50.131574,63.382613 49.251101,62.456984 47.601521,60.722806 44.992338,57.939338 40.411988,53.027445 38.964537,51.475223 36.429129,48.772592 34.77775,47.021601 31.731025,43.791096 27.871982,39.6891 26.634369,38.365539 26.260389,37.96559 25.200345,36.814972 24.278713,35.80861 c -1.593977,-1.74052 -3.481242,-3.752905 -6.266412,-6.681861 -2.355774,-2.47739 -4.24631,-4.496717 -4.767209,-5.09197 -1.306677,-1.49319 -3.9887104,-3.09829 -6.5170721,-3.900232 -1.9208184,-0.60924 -6.04713286,-0.707984 -8.2473301,-0.197358 -7.3177413,1.698312 -13.1805548,8.058945 -14.5279398,15.761525 -0.212868,1.2169 -0.258918,2.211386 -0.181665,3.923175 0.138077,3.059511 0.630737,4.883953 2.078824,7.698393 0.632612,1.229518 1.110366,1.8247 2.882108,3.590496 1.168088,1.164167 3.5121547,3.585105 5.2090387,5.379862 2.9492396,3.119346 4.4654396,4.709324 8.9974308,9.435248 1.1172154,1.165024 2.6613201,2.792912 3.4313458,3.61753 0.7700256,0.824618 2.1622137,2.293056 3.0937498,3.263195 0.9315359,0.970139 3.4311749,3.589514 5.5547519,5.820833 3.984738,4.186912 5.06842,5.324045 10.759685,11.2904 3.486079,3.65458 6.863933,7.200122 7.320138,7.683532 0.145521,0.154199 0.978958,1.029753 1.852083,1.945675 0.873125,0.915927 3.055938,3.211367 4.850695,5.100997 1.794756,1.88962 4.213683,4.42801 5.375392,5.64087 1.161712,1.21286 2.834531,2.95926 3.717378,3.88089 0.882848,0.92163 2.356406,2.46944 3.274575,3.43958 0.91817,0.97014 2.539411,2.67552 3.602762,3.78973 1.06335,1.11421 2.012739,2.11614 2.109753,2.2265 0.09701,0.11036 1.009826,1.06739 2.028472,2.12674 1.018645,1.05934 2.606145,2.71678 3.527777,3.68319 0.921632,0.96641 3.189838,3.34431 5.040457,5.28423 1.850619,1.93991 4.344347,4.55899 5.541618,5.82017 1.197273,1.26118 2.756849,2.83475 3.465726,3.49682 0.932021,0.87049 1.448856,1.52893 1.866715,2.37816 0.530597,1.07836 0.577738,1.31165 0.576551,2.85317 -0.0012,1.51321 -0.05536,1.79188 -0.549405,2.82532 -0.665828,1.39277 -1.110862,1.95443 -3.624426,4.57424 -1.07668,1.12219 -2.67489,2.79441 -3.55158,3.71604 -0.87669,0.92163 -2.239609,2.35038 -3.028712,3.175 -1.585004,1.65634 -6.877931,7.22311 -11.909359,12.52552 -1.794099,1.89073 -4.259999,4.46955 -5.479779,5.73073 -1.219779,1.26118 -3.522193,3.6815 -5.116474,5.37847 -1.59428,1.69698 -3.854681,4.07823 -5.023112,5.29167 -1.168432,1.21345 -2.875037,3 -3.792456,3.97014 -1.904392,2.01383 -7.611235,8.01158 -10.487312,11.02191 -6.92942,7.25288 -9.364869,9.81024 -10.753019,11.29129 -0.863821,0.92163 -1.734642,1.84183 -1.935159,2.04487 -0.200517,0.20306 -1.872701,1.94864 -3.715965,3.87908 -1.8432638,1.93043 -4.2303786,4.42335 -5.3046997,5.53984 -1.0743212,1.11647 -2.6581769,2.78402 -3.5196814,3.70565 -3.3776159,3.61334 -7.7652557,8.18132 -11.6859448,12.16625 -3.6475331,3.70729 -4.8024731,5.52732 -5.7160071,9.00769 -0.566303,2.15748 -0.56797,6.65749 -0.0032,8.75227 1.087649,4.03451 2.980256,7.36043 5.4496981,9.5769 0.4663634,0.41858 1.0860581,0.97331 1.3770997,1.23272 1.2325579,1.09862 3.3976361,2.33185 5.3821098,3.06568 1.9541206,0.72259 3.54323274,1.00127 5.709581,1.00127 3.1679178,0 5.6655367,-0.65867 8.1586184,-2.15159 1.608644,-0.9633 1.969141,-1.29122 4.971131,-4.52205 1.412106,-1.51975 3.21234,-3.43785 4.000521,-4.26247 1.517922,-1.5881 2.885149,-3.04296 6.879426,-7.32039 1.358194,-1.45448 3.223506,-3.44129 4.145138,-4.41512 1.490973,-1.57543 2.911821,-3.09209 7.592959,-8.10498 0.723073,-0.77431 1.433742,-1.53439 1.579263,-1.68905 0.145521,-0.15465 1.177396,-1.26056 2.293055,-2.45759 1.11566,-1.19701 2.415992,-2.57628 2.889624,-3.06504 0.473634,-0.48875 2.415695,-2.55931 4.315691,-4.60122 1.899994,-2.04192 4.09908,-4.38727 4.886857,-5.21189 0.787778,-0.82462 2.57344,-2.72962 3.96814,-4.23333 1.3947,-1.50372 2.578408,-2.77481 2.630461,-2.82464 0.211139,-0.20215 3.05868,-3.23434 5.211107,-5.54906 1.260528,-1.35556 3.006244,-3.21927 3.879369,-4.14157 3.093548,-3.26782 4.299159,-4.55234 8.12004,-8.6514 2.125102,-2.27983 5.215576,-5.57488 6.867723,-7.32233 1.652146,-1.74745 3.83734,-4.08799 4.855985,-5.20118 1.018646,-1.11321 2.646925,-2.85847 3.6184,-3.87837 0.971474,-1.01991 2.873401,-3.045 4.226503,-4.50021 1.353102,-1.4552 3.13794,-3.32191 3.96632,-4.14824 2.24445,-2.2389 4.0282,-2.96894 6.49682,-2.65897 2.00726,0.25204 3.36907,1.13968 4.88709,3.18547 0.93753,1.26349 2.68819,3.18127 7.65539,8.38617 0.83426,0.87418 1.91371,2.03478 2.39878,2.57914 0.48507,0.54435 2.07809,2.25005 3.54006,3.79044 1.46196,1.5404 3.71841,3.95165 5.01434,5.35836 1.29593,1.4067 3.5129,3.78264 4.92661,5.27988 1.4137,1.49724 3.32444,3.52429 4.24607,4.50455 0.92163,0.98026 2.42975,2.5779 3.35139,3.5503 0.92163,0.97242 2.18526,2.31881 2.80807,2.992 1.55633,1.6822 7.62127,8.16575 11.04024,11.80223 1.55319,1.65203 3.97113,4.23399 5.37317,5.7377 1.40206,1.50372 2.59727,2.77372 2.65605,2.82223 0.0587,0.0485 1.80504,1.91382 3.88061,4.14514 4.27857,4.5996 10.86186,11.61716 13.48822,14.37795 0.97023,1.01988 2.75583,2.92488 3.96801,4.23333 1.21218,1.30844 2.99812,3.21338 3.96875,4.23318 1.86475,1.9592 2.65882,2.80813 7.32104,7.82676 3.91603,4.21541 5.6597,5.36965 9.525,6.30518 1.86792,0.45208 5.84965,0.35447 7.8493,-0.19244 z"
         id="path235" /><path
         style="fill:#a94d51;stroke-width:0.176389"
         d="m 208.76538,279.50126 c -2.42835,-0.43968 -4.74965,-1.42788 -6.76034,-2.87794 -0.47706,-0.34406 -18.01893,-18.92473 -38.98194,-41.2904 -20.96299,-22.36567 -40.60744,-43.32399 -43.65433,-46.57404 -3.0469,-3.25007 -6.08458,-6.56123 -6.75041,-7.35814 -1.46521,-1.75364 -2.08621,-2.24585 -3.43406,-2.72187 -2.03302,-0.71801 -4.52318,-0.17082 -6.24561,1.37243 -0.67222,0.60228 -13.974506,14.76828 -74.282987,79.10615 -16.39656,17.49206 -16.092236,17.1948 -19.0172666,18.57636 -2.3841144,1.12607 -3.7650982,1.40318 -6.9673607,1.39806 -3.10224645,-0.005 -4.2848527,-0.22812 -6.8351784,-1.28983 -2.9415509,-1.22456 -6.1802003,-3.77862 -8.2581353,-6.51249 -1.141233,-1.50147 -2.675179,-4.62213 -3.23729,-6.5859 -1.28409,-4.48608 -0.951144,-9.25084 0.92638,-13.25737 1.019505,-2.17556 1.615532,-2.97468 3.831239,-5.1366 1.0936956,-1.06716 9.99253918,-10.35407 19.7752057,-20.63759 C 18.655963,215.42856 37.81215,195.31308 51.4426,181.01103 c 13.630451,-14.30206 25.201606,-26.48276 25.713677,-27.06824 1.404828,-1.6062 1.878753,-2.70427 1.950305,-4.51881 0.09748,-2.47217 -0.22781,-3.1013 -3.146515,-6.08542 -1.32842,-1.35819 -13.676431,-14.29632 -27.440024,-28.75139 -52.0944071,-54.711613 -60.01639,-63.004135 -60.725092,-63.56544 -0.400748,-0.317397 -1.174838,-1.24769 -1.720199,-2.067316 -3.641995,-5.473581 -4.030608,-12.488419 -1.038142,-18.739456 2.06191,-4.307179 5.133262,-7.421971 9.3441884,-9.476351 2.9730875,-1.450478 4.332192,-1.754219 7.8493051,-1.754219 2.5078812,0 3.1055855,0.056 4.3215275,0.404897 1.7279637,0.495815 4.282426,1.726278 5.468055,2.633917 0.901282,0.689961 8.769999,9.050801 58.98739,62.676575 15.756678,16.826123 29.381424,31.327633 30.277214,32.225593 2.14178,2.14694 3.37646,2.77298 5.45622,2.76656 2.24044,-0.007 3.56547,-0.73643 5.31082,-2.9239 0.5451,-0.68318 2.79152,-3.15992 4.99204,-5.50386 7.05868,-7.51875 67.20095,-71.705129 75.06162,-80.108948 4.1742,-4.462639 7.8571,-8.375003 8.18419,-8.694142 1.46306,-1.427441 4.12909,-2.869819 6.65874,-3.602505 1.21678,-0.352432 1.77115,-0.402031 4.3912,-0.392869 2.74129,0.0096 3.13483,0.05172 4.58611,0.491063 3.33625,1.009971 6.10782,2.658787 8.41486,5.006019 1.76632,1.797098 2.13376,2.257316 3.14321,3.936896 1.60199,2.665441 2.46523,5.270142 2.83463,8.553025 0.45845,4.07414 -0.70937,8.812993 -2.98796,12.124804 -0.29221,0.424709 -1.79384,2.036251 -3.33698,3.581204 -1.54314,1.544954 -12.36325,12.849944 -24.04469,25.122201 -11.68146,12.272258 -29.14183,30.607882 -38.80085,40.745832 -26.05853,27.35065 -24.89796,26.10998 -25.51306,27.27391 -0.77853,1.47319 -1.0181,2.80283 -0.76592,4.25096 0.22773,1.30774 0.93706,2.96289 1.72981,4.03638 0.29425,0.39844 12.62495,13.41594 27.40156,28.92779 14.7766,15.51183 33.17948,34.82985 40.89528,42.92896 7.7158,8.09909 15.42847,16.19534 17.13927,17.99167 1.71081,1.79631 3.51227,3.60445 4.00325,4.01809 0.98938,0.83352 2.60154,3.13524 3.29632,4.70626 3.22335,7.28855 1.46671,16.05372 -4.38967,21.90334 -4.47992,4.47474 -10.43723,6.47677 -16.17891,5.43715 z m 7.67145,-0.68012 c 3.28466,-0.98483 5.88086,-2.53167 8.31518,-4.95428 7.38851,-7.35292 7.88091,-19.59425 1.0537,-26.19427 -1.42154,-1.37423 -8.76038,-9.04735 -34.75301,-36.33611 -10.76531,-11.30212 -26.68067,-28.01056 -35.36747,-37.12986 -8.68679,-9.11931 -16.50968,-17.33462 -17.3842,-18.25625 -2.49916,-2.63386 -3.42373,-4.21259 -3.78258,-6.45892 -0.36299,-2.27222 0.42496,-4.31754 2.5217,-6.54574 1.66923,-1.77388 42.5579,-44.721318 52.69151,-55.344561 1.01875,-1.067968 9.06462,-9.522071 17.87974,-18.786898 8.81513,-9.264827 16.68939,-17.463547 17.4984,-18.219378 2.20133,-2.056667 3.52254,-4.34433 4.44824,-7.702087 0.41028,-1.488249 0.46463,-2.010563 0.46869,-4.505619 0.003,-1.757502 -0.0858,-3.221493 -0.23499,-3.880556 -1.73524,-7.664985 -7.19984,-13.497085 -14.39568,-15.363808 -2.39892,-0.622323 -5.6147,-0.663544 -7.90245,-0.101295 -1.77488,0.436199 -3.76908,1.310455 -5.37656,2.357083 -1.20075,0.781805 -0.42822,-0.03361 -41.66316,43.976077 -12.45293,13.290903 -24.91581,26.586216 -27.69529,29.54514 -15.36725,16.359402 -19.38452,20.687212 -20.41936,21.997812 -1.35559,1.71683 -2.54318,2.58292 -4.07445,2.97144 -2.08461,0.5289 -4.37945,-0.11439 -6.13032,-1.71846 -0.919,-0.84195 -4.851337,-5.02108 -33.493954,-35.595972 C 57.871975,71.079623 47.156351,59.648472 44.828018,57.172071 42.499684,54.695669 34.269353,45.918403 26.538391,37.667032 17.145327,27.641675 12.165008,22.454005 11.526302,22.029927 8.5453457,20.050685 5.8122988,19.211303 2.3182979,19.201937 c -2.59576691,-0.007 -4.3072576,0.294824 -6.4219574,1.132364 -5.8294284,2.308784 -10.2032815,7.280439 -11.9250735,13.554949 -0.661989,2.412404 -0.793771,6.110732 -0.301694,8.466667 0.759268,3.63516 2.023794,6.046239 4.440476,8.466667 1.8980162,1.900961 1.520525,1.50661 15.8738944,16.582842 5.8638137,6.159125 13.0104106,13.659034 15.8813246,16.666465 2.870916,3.007431 16.398417,17.215559 30.061117,31.573609 13.662698,14.35806 25.662325,26.90302 26.665835,27.87769 2.413926,2.34456 2.808018,3.13557 2.808018,5.6362 0,1.53238 -0.06012,1.89123 -0.458054,2.73403 -0.696748,1.47568 3.264567,-2.75414 -36.671562,39.15724 -32.335242,33.93455 -52.950181,55.51095 -54.01748,56.53683 -1.662289,1.59774 -3.093795,4.26661 -3.865273,7.20631 -0.580028,2.21017 -0.648746,5.82369 -0.156183,8.21292 1.306604,6.33782 5.225044,11.43862 10.8699732,14.14991 2.6289404,1.2627 4.05712588,1.59629 7.2166387,1.68565 2.4022119,0.0679 2.8061654,0.0335 4.3871089,-0.37328 2.1447459,-0.55192 4.2302462,-1.55349 5.8003172,-2.7856 0.672733,-0.52793 7.623626,-7.80971 15.963193,-16.72306 47.323849,-50.57998 72.872163,-77.82 73.831273,-78.72013 0.59892,-0.56206 1.6032,-1.27644 2.23175,-1.5875 1.03757,-0.51345 1.28937,-0.56474 2.73403,-0.55698 2.41962,0.013 3.68529,0.68959 5.42837,2.90186 0.5733,0.7276 5.5404,6.12373 11.03801,11.99138 10.4963,11.20277 64.99343,69.35204 73.04306,77.93803 4.88924,5.21501 5.80013,6.00294 8.19517,7.08889 1.02759,0.46593 2.94086,1.06089 4.16368,1.29473 0.24253,0.0464 1.63159,0.0611 3.0868,0.0328 2.26184,-0.0441 2.87368,-0.11986 4.21577,-0.52226 z"
         id="path233" /><path
         style="fill:#5e5e5e;stroke-width:0.176389"
         d="m 208.54776,291.77245 c -3.28506,-0.41595 -6.62791,-1.39378 -9.3918,-2.74723 -2.63875,-1.29217 -4.74723,-2.8001 -7.00169,-5.00741 -1.14462,-1.12067 -20.7119,-21.91581 -43.48286,-46.21146 -22.77095,-24.29563 -41.49584,-44.20382 -41.61087,-44.24042 -0.11502,-0.0366 -19.210046,20.19883 -42.433388,44.96762 -23.223342,24.76881 -42.774543,45.51828 -43.447113,46.10994 -1.627163,1.43144 -3.513665,2.68029 -5.698449,3.77231 -10.6265642,5.31155 -23.6238404,3.41157 -33.047693,-4.83096 -5.031631,-4.40088 -8.779516,-10.76341 -10.252713,-17.40528 -1.593086,-7.18239 -0.723861,-14.32098 2.532989,-20.80237 1.421482,-2.82887 4.002697,-6.29636 5.667393,-7.61335 0.528675,-0.41825 67.998768,-71.09799 83.270489,-87.23178 0.84034,-0.88777 1.005949,-1.15668 0.869068,-1.41111 -0.274353,-0.50996 -81.691898,-85.929144 -84.670295,-88.8318 -2.241213,-2.18422 -3.835563,-4.222694 -5.129454,-6.558319 -4.143184,-7.478932 -4.955065,-16.31059 -2.276079,-24.759235 0.675162,-2.129242 2.473164,-5.908395 3.721469,-7.82202 4.01576,-6.156074 9.982539,-10.737449 16.9288457,-12.9981995 3.3278054,-1.0830699 4.9562258,-1.3189178 9.1344938,-1.3229689 3.296179,-0.0032 4.0346822,0.048902 5.6444441,0.3981907 2.5807774,0.5599804 4.6999244,1.2908831 6.9673604,2.4030721 2.720869,1.3345996 4.465475,2.5500166 6.591658,4.5922176 1.010033,0.970139 20.492973,21.667171 43.295421,45.993405 22.802448,24.326233 41.590193,44.229517 41.750553,44.229517 0.16035,0 1.87625,-1.68672 3.8131,-3.74827 1.93685,-2.061541 20.74721,-22.123573 41.80079,-44.582289 21.05358,-22.458717 39.07883,-41.597706 40.0561,-42.531087 2.06029,-1.967743 3.77456,-3.151986 6.48959,-4.4831036 3.7753,-1.8509399 7.09561,-2.6809006 11.39276,-2.8477903 5.27239,-0.2047656 10.02903,0.8157137 14.69574,3.1527997 12.87781,6.4491882 20.06268,21.0935422 17.21202,35.0819262 -1.24913,6.129661 -3.94649,11.053001 -8.40011,15.332318 -1.05962,1.018153 -17.12348,17.805563 -35.69746,37.305355 -18.57398,19.499791 -37.20481,39.056561 -41.40184,43.459481 -4.19703,4.40291 -7.63097,8.07815 -7.63097,8.16719 0,0.20843 -3.57041,-3.55549 43.13744,45.47533 22.31887,23.42891 41.13074,43.09625 41.80416,43.70522 5.36471,4.85136 8.74032,12.07174 9.24015,19.76458 1.05909,16.30037 -10.37527,31.01046 -26.27203,33.79848 -1.96047,0.34384 -6.44458,0.49611 -8.17122,0.2775 z m 6.02541,-0.18218 c 2.17696,-0.22932 4.59769,-0.74459 6.60113,-1.40511 2.25975,-0.74502 6.25805,-2.77395 8.15648,-4.139 6.67581,-4.80016 11.34622,-12.06947 13.00053,-20.23483 0.35278,-1.74131 0.40501,-2.52241 0.40491,-6.0561 -9e-5,-3.59842 -0.0472,-4.27623 -0.41667,-5.99722 -0.5764,-2.68478 -1.28198,-4.7647 -2.42265,-7.14163 -1.63031,-3.39722 -2.95799,-5.21722 -5.98496,-8.2042 -4.49503,-4.43564 -85.27907,-89.35355 -85.27907,-89.64294 0,-0.14867 0.62251,-0.91546 1.38337,-1.70397 0.76083,-0.78851 14.23246,-14.9274 29.93693,-31.41977 46.41583,-48.744527 52.56344,-55.17543 53.42457,-55.886596 2.79529,-2.308476 6.05559,-7.474912 7.4832,-11.858192 1.13098,-3.472617 1.34685,-5.033449 1.34009,-9.689934 -0.005,-3.724369 -0.0542,-4.456005 -0.4064,-6.085417 -1.33593,-6.181542 -4.195,-11.642375 -8.36829,-15.983474 -4.78753,-4.980051 -10.15062,-7.9528858 -16.72043,-9.2683859 -2.70051,-0.5407347 -7.80242,-0.582476 -10.48207,-0.085759 -5.03193,0.9327513 -9.79348,3.1895063 -13.29231,6.2999339 -1.61382,1.434677 -3.98293,3.950414 -52.47897,55.726575 -18.21902,19.451286 -33.30618,35.512309 -33.52703,35.691159 -0.33206,0.26891 -0.45911,0.28754 -0.73425,0.10768 C 106.00829,104.49347 87.126071,84.400285 64.230794,59.961566 41.335518,35.522845 21.819766,14.816922 20.862456,13.948403 18.834024,12.108109 17.319907,11.06417 14.957016,9.8767723 5.6487369,5.1991864 -5.6659288,6.0737603 -14.720079,12.170681 c -6.904718,4.649528 -11.856244,12.044983 -13.537529,20.219263 -1.403155,6.822028 -0.526677,13.909397 2.460374,19.895057 1.753821,3.514429 3.02188,5.182507 6.598422,8.679944 1.488123,1.455209 20.2659642,21.100522 41.728536,43.656255 21.462572,22.55573 39.764363,41.7732 40.670645,42.7055 0.906283,0.9323 1.647786,1.82415 1.647786,1.98191 0,0.15775 -4.069134,4.55434 -9.042519,9.77019 -4.973387,5.21586 -21.817294,22.89775 -37.430907,39.2931 -33.089882,34.7466 -35.168028,36.91945 -38.263872,40.00727 -2.619255,2.61246 -3.975941,4.4969 -5.484368,7.61773 -4.963119,10.26835 -3.75574,22.61062 3.149071,32.19097 2.297202,3.18735 6.058815,6.62715 9.549683,8.7327 5.2266903,3.15253 11.88716253,4.71749 17.7711798,4.17557 3.9755301,-0.36615 6.6930952,-1.11076 10.0982632,-2.76693 2.644658,-1.2863 4.387058,-2.47583 6.407338,-4.3743 0.938603,-0.88202 20.341206,-21.49119 43.116896,-45.7982 22.77569,-24.30699 41.60741,-44.34895 41.84826,-44.53767 0.43381,-0.3399 0.44202,-0.3399 0.8751,0 0.24045,0.18872 6.56779,6.89157 14.06076,14.89522 57.95093,61.90051 69.2123,73.88303 71.10564,75.65896 2.40484,2.25577 4.19633,3.50182 6.86665,4.77605 4.75484,2.26891 9.96987,3.18116 15.09784,2.641 z"
         id="path231" /><path
         style="fill:#5f2a2d;stroke-width:0.176389"
         d="m 210.85405,291.63978 c 0.50932,-0.0356 1.34276,-0.0356 1.85208,0 0.50933,0.0356 0.0926,0.0648 -0.92604,0.0648 -1.01865,0 -1.43536,-0.0291 -0.92604,-0.0648 z m -2.46738,-0.17111 c 0.21941,-0.0422 0.53691,-0.0406 0.70555,0.004 0.16863,0.0442 -0.0109,0.0787 -0.39893,0.0767 -0.38806,-0.002 -0.52605,-0.0381 -0.30662,-0.0803 z m 5.99516,0 c 0.21828,-0.042 0.57547,-0.042 0.79375,0 0.21828,0.042 0.0397,0.0764 -0.39688,0.0764 -0.43656,0 -0.61515,-0.0344 -0.39687,-0.0764 z m -7.31679,-0.17415 c 0.17163,-0.0447 0.40975,-0.0418 0.52917,0.007 0.11943,0.0483 -0.021,0.0849 -0.31204,0.0813 -0.29104,-0.004 -0.38874,-0.0431 -0.21713,-0.0879 z m 8.81944,0 c 0.17163,-0.0447 0.40975,-0.0418 0.52917,0.007 0.11943,0.0483 -0.021,0.0849 -0.31203,0.0813 -0.29104,-0.004 -0.38875,-0.0431 -0.21714,-0.0879 z M 1.7450341,291.1103 c 0.5578298,-0.035 1.4706423,-0.035 2.0284721,0 0.5578298,0.035 0.1014236,0.0636 -1.0142361,0.0636 -1.1156596,0 -1.5720658,-0.0286 -1.014236,-0.0636 z m 204.3465159,0.0136 c 0.12127,-0.0489 0.3197,-0.0489 0.44097,0 0.12127,0.0489 0.0221,0.089 -0.22048,0.089 -0.24254,0 -0.34176,-0.04 -0.22049,-0.089 z m 10.85127,-0.005 c 0.17162,-0.0447 0.40975,-0.0418 0.52916,0.007 0.11944,0.0483 -0.021,0.0849 -0.31203,0.0813 -0.29104,-0.004 -0.38874,-0.0431 -0.21713,-0.0879 z M -0.63415907,290.9395 c 0.21941189,-0.0422 0.53691187,-0.0406 0.70555551,0.004 0.16864364,0.0442 -0.01088319,0.0787 -0.39893167,0.0767 -0.38805553,-0.002 -0.52603573,-0.0381 -0.30662384,-0.0803 z m 6.17361077,0 c 0.2194119,-0.0422 0.5369118,-0.0406 0.7055555,0.004 0.1686436,0.0442 -0.010883,0.0787 -0.3989317,0.0767 -0.3880555,-0.002 -0.5260357,-0.0381 -0.3066238,-0.0803 z M 204.45995,290.80462 c -0.94726,-0.31219 -0.57439,-0.32438 0.52917,-0.0173 0.48507,0.13497 0.72319,0.2464 0.52917,0.24762 -0.19403,0.002 -0.67028,-0.10242 -1.05834,-0.23031 z m 13.46068,0.13915 c 0.12733,-0.051 0.27947,-0.0447 0.33808,0.0139 0.0586,0.0586 -0.0456,0.10031 -0.23151,0.0926 -0.20549,-0.008 -0.24728,-0.0503 -0.10657,-0.10657 z M -1.9557757,290.76564 c 0.1716211,-0.0447 0.4097461,-0.0418 0.5291667,0.007 0.1194205,0.0483 -0.020996,0.0849 -0.3120373,0.0813 -0.2910416,-0.004 -0.3887505,-0.0431 -0.2171294,-0.0879 z m 8.9958328,0 c 0.1716211,-0.0447 0.4097461,-0.0418 0.5291666,0.007 0.1194206,0.0483 -0.020996,0.0849 -0.3120372,0.0813 -0.2910416,-0.004 -0.3887505,-0.0431 -0.2171294,-0.0879 z m 211.7955929,-0.0542 c 0.6031,-0.19314 1.06683,-0.19314 0.61736,0 -0.19403,0.0834 -0.51153,0.14926 -0.70556,0.14641 -0.2836,-0.004 -0.26629,-0.0329 0.0882,-0.14641 z M -2.9292712,290.59466 c 0.1212674,-0.0489 0.3197049,-0.0489 0.4409722,0 0.1212674,0.0489 0.022049,0.089 -0.2204861,0.089 -0.2425347,0 -0.3417534,-0.04 -0.2204861,-0.089 z m 10.9361105,0 c 0.1212673,-0.0489 0.3197048,-0.0489 0.4409722,0 0.1212673,0.0489 0.022049,0.089 -0.2204861,0.089 -0.2425347,0 -0.3417535,-0.04 -0.2204861,-0.089 z m -11.8180549,-0.17639 c 0.1212674,-0.0489 0.3197049,-0.0489 0.4409722,0 0.1212674,0.0489 0.022049,0.089 -0.2204861,0.089 -0.2425347,0 -0.3417534,-0.04 -0.2204861,-0.089 z m 13.3614575,-0.16012 c 0.4850691,-0.13498 0.9613191,-0.23862 1.0583331,-0.23033 0.298505,0.0255 -1.2119942,0.48031 -1.5874997,0.47794 -0.1940278,-0.002 0.044097,-0.11264 0.5291666,-0.24761 z m 192.9143081,-0.0199 c -0.41837,-0.14798 -0.72951,-0.3002 -0.69141,-0.3383 0.0381,-0.0381 0.49947,0.0834 1.02526,0.27007 0.5258,0.18664 0.83693,0.33886 0.69141,0.33829 -0.14552,0 -0.60688,-0.12209 -1.02526,-0.27006 z m 18.56252,-0.15597 c 0.67168,-0.23463 1.2516,-0.39626 1.28868,-0.35918 0.0814,0.0815 -2.05954,0.81753 -2.32373,0.7989 -0.10243,-0.007 0.36334,-0.2051 1.03505,-0.43972 z m -225.5328168,0.15597 c 0.1273299,-0.051 0.2794653,-0.0447 0.3380793,0.0139 0.058612,0.0586 -0.045568,0.10031 -0.2315104,0.0927 -0.2054842,-0.008 -0.2472796,-0.0503 -0.1065689,-0.10658 z m -1.1134548,-0.23229 c -0.2223628,-0.0956 -0.2549666,-0.15159 -0.088194,-0.15159 0.1455208,0 0.4233333,0.0682 0.6173611,0.15159 0.2223628,0.0956 0.2549666,0.15159 0.088194,0.15159 -0.1455208,0 -0.4233333,-0.0682 -0.6173611,-0.15159 z m 17.0215266,-0.26458 c 0.805339,-0.31013 1.122197,-0.30556 0.440972,0.006 -0.291041,0.13326 -0.648229,0.23985 -0.79375,0.23683 -0.14552,-0.003 0.01323,-0.11245 0.352778,-0.2432 z m 189.618045,-0.0882 c -0.14552,-0.094 -0.18521,-0.17099 -0.0882,-0.17099 0.097,0 0.29546,0.0769 0.44098,0.17099 0.14552,0.0941 0.18521,0.17099 0.0882,0.17099 -0.097,0 -0.29545,-0.0769 -0.44097,-0.17099 z m 21.69583,-0.17639 c 0.14552,-0.0941 0.34396,-0.17099 0.44097,-0.17099 0.097,0 0.0573,0.0769 -0.0882,0.17099 -0.14552,0.094 -0.34396,0.17099 -0.44097,0.17099 -0.097,0 -0.0573,-0.0769 0.0882,-0.17099 z m -22.93055,-0.35278 c -0.33955,-0.18589 -0.53799,-0.33799 -0.44098,-0.33799 0.097,0 0.45421,0.1521 0.79375,0.33799 0.33955,0.1859 0.53799,0.338 0.44098,0.338 -0.097,0 -0.4542,-0.1521 -0.79375,-0.338 z m -207.9624903,0 c -0.1455208,-0.0941 -0.1852083,-0.17099 -0.088194,-0.17099 0.097014,0 0.2954513,0.0769 0.4409721,0.17099 0.1455209,0.094 0.1852084,0.171 0.088195,0.171 -0.097014,0 -0.2954514,-0.077 -0.4409731,-0.171 z m 21.3430543,0 c 0.145521,-0.0941 0.343958,-0.17099 0.440972,-0.17099 0.09701,0 0.05733,0.0769 -0.08819,0.17099 -0.145521,0.094 -0.343959,0.171 -0.440972,0.171 -0.09701,0 -0.05733,-0.077 0.08819,-0.171 z m 210.608316,-0.0882 c 0.24254,-0.13864 0.52035,-0.25208 0.61737,-0.25208 0.097,0 -0.022,0.11344 -0.26459,0.25208 -0.24253,0.13864 -0.52035,0.25208 -0.61736,0.25208 -0.097,0 0.0221,-0.11344 0.26458,-0.25208 z m -232.8333147,-0.2646 c -0.1455208,-0.094 -0.1852083,-0.171 -0.088194,-0.171 0.097014,0 0.2954513,0.077 0.4409722,0.171 0.1455208,0.094 0.1852083,0.17099 0.088194,0.17099 -0.097014,0 -0.2954514,-0.0769 -0.4409722,-0.17099 z m 22.9452527,0.10869 c 0.179497,-0.16531 2.983912,-1.51451 2.983912,-1.43554 0,0.0982 -2.744074,1.50324 -2.935899,1.50324 -0.06683,0 -0.08843,-0.0305 -0.04801,-0.0677 z m 184.267582,-0.56125 c -0.46082,-0.23989 -0.83785,-0.47565 -0.83785,-0.52393 0,-0.0483 0.39688,0.11333 0.88195,0.35913 0.48507,0.24579 0.88194,0.48526 0.88194,0.53213 0,0.11668 0.0159,0.12297 -0.92604,-0.36733 z m -209.020821,-0.35278 c -0.460816,-0.23989 -0.837847,-0.47565 -0.837847,-0.52393 0,-0.0787 1.7462024,0.74605 1.9255793,0.90951 0.2183871,0.19902 -0.3554813,-0.004 -1.0877323,-0.38558 z m 236.581581,0.22787 c 0,-0.0443 0.61516,-0.4383 1.36702,-0.87564 2.92523,-1.70156 5.95619,-4.28264 8.09771,-6.89579 1.24245,-1.51608 1.94479,-2.29086 1.4659,-1.61708 -1.68491,2.37056 -4.76764,5.42772 -7.21473,7.15488 -1.53656,1.08451 -3.7159,2.3945 -3.7159,2.23363 z m -29.83443,-1.26407 c -2.67845,-1.79682 -0.28774,0.72367 -74.37734,-78.41541 -7.49297,-8.00365 -13.82031,-14.7065 -14.06076,-14.89522 -0.43308,-0.3399 -0.44129,-0.3399 -0.8751,0 -0.24085,0.18872 -19.07257,20.22802 -41.84826,44.53176 -22.77569,24.30373 -42.085033,44.82617 -42.909651,45.60542 -1.532613,1.44828 -2.501397,2.24129 -3.439583,2.81554 -0.752935,0.46085 -0.380041,0.13176 1.150359,-1.01522 0.72971,-0.5469 2.555335,-2.25 4.056944,-3.78469 1.501607,-1.53471 20.781247,-22.05514 42.843643,-45.60098 22.062395,-23.54585 40.219428,-42.8513 40.348958,-42.901 0.12953,-0.0497 0.34079,-0.05 0.46947,0 0.12868,0.0494 5.26821,5.46221 11.42118,12.02855 6.15297,6.56633 24.90673,26.58546 41.67503,44.48698 16.7683,17.90151 31.39911,33.39604 32.51291,34.43229 1.11381,1.03627 2.53507,2.21636 3.15837,2.62246 0.98263,0.64021 1.27284,0.87331 1.08728,0.87331 -0.0253,0 -0.57134,-0.35245 -1.21345,-0.78321 z m -208.599234,-0.0222 c -0.412309,-0.24712 -0.749653,-0.49097 -0.749653,-0.54188 0,-0.0951 1.190019,0.58069 1.490486,0.84635 0.30316,0.26806 0.02077,0.15199 -0.740833,-0.30447 z m 29.765623,0.37686 c 0,-0.0485 0.15875,-0.17316 0.352778,-0.277 0.194028,-0.10384 0.352778,-0.14912 0.352778,-0.10061 0,0.0485 -0.15875,0.17316 -0.352778,0.277 -0.194028,0.10384 -0.352778,0.14912 -0.352778,0.10061 z m -31.245388,-1.34581 -0.416415,-0.36324 0.485069,0.29534 c 0.266788,0.16244 0.485069,0.3259 0.485069,0.36324 0,0.13774 -0.147371,0.0591 -0.553723,-0.29534 z m -2.008621,-1.45814 c -1.542443,-1.22377 -4.772547,-4.52704 -5.694796,-5.8238 -0.8287,-1.16522 -0.578223,-1.02085 0.334401,0.19276 1.125137,1.4962 4.103941,4.50504 5.577339,5.63358 1.143511,0.87586 1.407604,1.1133 1.238264,1.1133 -0.02684,0 -0.681687,-0.50213 -1.455208,-1.11584 z m 225.3415,-4.545 c -2.96857,-0.45069 -6.48603,-2.1467 -8.56289,-4.12875 -0.60992,-0.58208 -9.98723,-10.54364 -20.83844,-22.1368 -10.85123,-11.59316 -29.84142,-31.87348 -42.2004,-45.06737 -24.72284,-26.39296 -24.15607,-25.78562 -25.72077,-27.56205 -1.80386,-2.04793 -3.84599,-2.74272 -6.11913,-2.0819 -1.24325,0.36142 -2.04537,0.85261 -3.2289,1.97728 -0.75228,0.71485 -44.822812,47.72068 -78.610737,83.84654 -4.945085,5.28725 -9.43933,10.04975 -9.987214,10.58333 -1.112454,1.0834 -3.186505,2.36433 -4.9587514,3.06253 -2.2060411,0.86907 -3.3839342,1.06929 -6.2359519,1.05993 -2.27178997,-0.007 -2.88785988,-0.0733 -4.3578301,-0.46594 -10.6867866,-2.85427 -17.2554236,-14.16697 -14.4134006,-24.82319 0.717868,-2.69166 2.726814,-6.15149 4.347563,-7.48746 0.628828,-0.51832 27.218615,-28.3897 87.443289,-91.6579 1.068881,-1.1229 2.021548,-2.3179 2.390531,-2.99861 0.584043,-1.07747 0.613447,-1.21629 0.613318,-2.89562 -1.2e-4,-1.56652 -0.05231,-1.86273 -0.466451,-2.64732 -0.256475,-0.48589 -1.138767,-1.55746 -1.960651,-2.38125 C 75.44556,143.30702 68.27359,135.80493 60.32973,127.45951 8.38374,72.887641 -10.432713,53.155186 -12.076832,51.528141 c -2.618786,-2.591594 -3.842946,-4.795887 -4.77514,-8.598396 -0.485514,-1.980456 -0.523527,-5.956346 -0.07632,-7.982162 1.521541,-6.892437 5.932832,-12.355508 12.0937034,-14.977194 2.5494279,-1.08488 3.84485248,-1.32716 7.0646921,-1.321297 3.2774941,0.006 4.5383253,0.254527 6.9549711,1.371087 3.0471264,1.407858 1.6037084,-0.05595 33.5869704,34.061514 16.458978,17.557268 36.438718,38.869456 44.399421,47.360417 7.960702,8.49097 14.890014,15.81088 15.398464,16.26648 1.57145,1.40812 3.61633,1.95945 5.48858,1.4798 1.48582,-0.38065 2.30717,-0.9731 3.81131,-2.74914 0.69838,-0.82461 6.25935,-6.82001 12.35773,-13.3231 6.09838,-6.503083 25.78389,-27.497771 43.74559,-46.654859 25.45834,-27.152676 32.90471,-34.995191 33.77847,-35.575563 2.66839,-1.772414 5.43115,-2.673005 8.66141,-2.823404 3.34552,-0.155766 6.15516,0.465635 9.21309,2.037628 9.28363,4.772433 13.60936,16.252357 9.63937,25.58168 -0.82874,1.94753 -2.21976,3.964182 -3.63884,5.275503 -0.70732,0.6536 -3.06044,3.056114 -5.22914,5.338916 -2.1687,2.282804 -15.09365,15.85593 -28.72211,30.162502 -62.14908,65.241467 -55.21215,57.891757 -55.82301,59.144787 -1.46153,2.99797 -0.61878,6.18353 2.51427,9.50388 1.63255,1.73014 5.88446,6.19621 42.2814,44.4112 12.70482,13.33941 27.14119,28.50004 32.08087,33.69028 4.93967,5.19025 10.38506,10.86556 12.10088,12.61181 3.33749,3.39667 4.15743,4.52355 5.1484,7.07561 0.85718,2.20753 1.23707,4.27484 1.24423,6.77092 0.0161,5.60604 -2.07821,10.68982 -6.03273,14.64433 -2.57002,2.57004 -5.75382,4.39972 -9.17628,5.27348 -1.74695,0.446 -5.11864,0.61781 -6.87916,0.35052 z m 5.55023,-0.42846 c 3.92455,-0.68439 7.27573,-2.46218 10.2598,-5.4428 3.39036,-3.38645 5.39426,-7.61345 5.90025,-12.44589 0.32293,-3.0842 -0.23395,-6.57077 -1.51058,-9.45745 -0.69478,-1.57102 -2.30694,-3.87274 -3.29632,-4.70626 -0.49098,-0.41364 -2.29244,-2.22178 -4.00325,-4.01809 -1.7108,-1.79633 -9.42347,-9.89258 -17.13927,-17.99167 -7.7158,-8.09911 -26.11868,-27.41713 -40.89528,-42.92896 -14.77661,-15.51185 -27.10731,-28.52935 -27.40156,-28.92779 -0.79275,-1.07349 -1.50208,-2.72864 -1.72981,-4.03638 -0.25218,-1.44813 -0.0126,-2.77777 0.76592,-4.25096 0.6151,-1.16393 -0.54547,0.0767 25.51306,-27.27391 9.65902,-10.13795 27.11939,-28.473574 38.80085,-40.745832 11.68144,-12.272257 22.50155,-23.577247 24.04469,-25.122201 3.02855,-3.03212 3.50958,-3.636248 4.54734,-5.711088 2.82468,-5.647473 2.41911,-12.764208 -1.05703,-18.547945 -1.00945,-1.67958 -1.37689,-2.139798 -3.14321,-3.936896 -2.30704,-2.347232 -5.07861,-3.996048 -8.41486,-5.006019 -1.45128,-0.439341 -1.84482,-0.48148 -4.58611,-0.491063 -2.62005,-0.0092 -3.17442,0.04044 -4.3912,0.392869 -2.52965,0.732686 -5.19568,2.175064 -6.65874,3.602505 -0.32709,0.319139 -4.00999,4.231503 -8.18419,8.694142 -7.86067,8.403819 -68.00294,72.590198 -75.06162,80.108948 -2.20052,2.34394 -4.44694,4.82068 -4.99204,5.50386 -1.74535,2.18747 -3.07038,2.91698 -5.31082,2.9239 -2.07976,0.006 -3.31444,-0.61962 -5.45622,-2.76656 C 100.3885,116.02741 86.763754,101.5259 71.007076,84.699777 20.789685,31.074003 12.920968,22.713163 12.019686,22.023202 10.834057,21.115563 8.2795947,19.8851 6.551631,19.389285 5.335689,19.040388 4.7379847,18.984388 2.2301035,18.984388 c -3.5171131,0 -4.8762176,0.303741 -7.8493051,1.754219 -4.2109264,2.05438 -7.2822784,5.169172 -9.3441884,9.476351 -2.992466,6.251037 -2.603853,13.265875 1.038142,18.739456 0.545361,0.819626 1.319451,1.749919 1.720199,2.067316 0.708702,0.561305 8.6306849,8.853827 60.725092,63.56544 13.763593,14.45507 26.111604,27.3932 27.440024,28.75139 2.918705,2.98412 3.244,3.61325 3.146515,6.08542 -0.07155,1.81454 -0.545477,2.91261 -1.950305,4.51881 -0.512071,0.58548 -12.083226,12.76618 -25.713677,27.06824 -13.63045,14.30205 -32.786637,34.41753 -42.5693033,44.70106 -9.78266652,10.28352 -18.6815101,19.57043 -19.7752057,20.63759 -2.215707,2.16192 -2.811734,2.96104 -3.831239,5.1366 -1.877524,4.00653 -2.21047,8.77129 -0.92638,13.25737 0.562111,1.96377 2.096057,5.08443 3.23729,6.5859 2.077935,2.73387 5.3165844,5.28793 8.2581353,6.51249 2.5503257,1.06171 3.73293195,1.28487 6.8351784,1.28983 3.2022625,0.005 4.5832463,-0.27199 6.9673607,-1.39806 2.9250306,-1.38156 2.6207066,-1.0843 19.0172666,-18.57636 60.308481,-64.33787 73.610767,-78.50387 74.282987,-79.10615 1.72243,-1.54325 4.21259,-2.09044 6.24561,-1.37243 1.34785,0.47602 1.96885,0.96823 3.43406,2.72187 0.66583,0.79691 3.70351,4.10807 6.75041,7.35814 3.04689,3.25005 22.69134,24.20837 43.65433,46.57404 20.96301,22.36567 38.50488,40.94634 38.98194,41.2904 3.64197,2.6265 8.20408,3.66402 12.67945,2.88359 z m 22.57723,-1.80411 c 0.27194,-0.41231 0.52804,-0.74965 0.56914,-0.74965 0.12723,0 -0.54815,1.07354 -0.81305,1.29238 -0.13778,0.11381 -0.028,-0.13042 0.24391,-0.54273 z m -260.495543,-0.97014 c -0.649185,-1.02116 -1.110379,-1.87106 -0.919511,-1.69449 0.199153,0.18422 1.675795,2.62054 1.588303,2.62054 -0.04404,0 -0.345,-0.41672 -0.668792,-0.92605 z m 261.295853,-0.30868 c 0.10384,-0.19402 0.2285,-0.35277 0.277,-0.35277 0.0485,0 0.003,0.15875 -0.10061,0.35277 -0.10384,0.19403 -0.22849,0.35278 -0.277,0.35278 -0.0485,0 -0.003,-0.15875 0.10061,-0.35278 z m 0.70556,-1.23472 c 0.19798,-0.38805 0.39963,-0.70555 0.44813,-0.70555 0.0485,0 -0.0738,0.3175 -0.27174,0.70555 -0.19798,0.38806 -0.39963,0.70556 -0.44814,0.70556 -0.0485,0 0.0738,-0.3175 0.27175,-0.70556 z m -263.798672,-1.60558 c -0.346994,-0.68904 -0.602141,-1.28155 -0.566991,-1.31671 0.03515,-0.0351 0.357094,0.52862 0.715433,1.25281 0.358338,0.72418 0.613484,1.3167 0.566991,1.3167 -0.04649,0 -0.368438,-0.56375 -0.715433,-1.2528 z m 264.695392,-0.0701 c 0,-0.097 0.1521,-0.4542 0.338,-0.79375 0.1859,-0.33955 0.338,-0.53799 0.338,-0.44098 0,0.097 -0.1521,0.45421 -0.338,0.79375 -0.1859,0.33955 -0.338,0.53799 -0.338,0.44098 z m -265.722541,-2.20111 c -0.398045,-0.99481 -0.336705,-1.14286 0.08226,-0.19852 0.189203,0.42643 0.312595,0.80676 0.274204,0.84516 -0.03839,0.0384 -0.198799,-0.2526 -0.356464,-0.64664 z m 266.418721,0.61361 c 0,-0.097 0.0769,-0.29545 0.17099,-0.44098 0.0941,-0.14552 0.17099,-0.1852 0.17099,-0.0882 0,0.097 -0.0769,0.29545 -0.17099,0.44097 -0.094,0.14552 -0.17099,0.18521 -0.17099,0.0882 z m 0.44949,-1.19063 c 0.33858,-1.0674 0.75545,-2.14065 0.76694,-1.97453 0.0176,0.25467 -0.70445,2.37141 -0.80894,2.37141 -0.0461,0 -0.0272,-0.1786 0.042,-0.39688 z m -267.576009,-1.30067 c -0.156432,-0.45911 -0.278622,-0.91982 -0.271533,-1.0238 0.0071,-0.104 0.165587,0.24112 0.352219,0.76692 0.186632,0.5258 0.308822,0.98651 0.271533,1.0238 -0.03729,0.0373 -0.195787,-0.30784 -0.352219,-0.76692 z m 268.377729,-1.0365 c -0.008,-0.097 0.0954,-0.57327 0.23033,-1.05833 0.13497,-0.48507 0.2464,-0.7232 0.24761,-0.52917 0.002,0.3755 -0.4524,1.886 -0.47794,1.5875 z m -268.914134,-0.71815 c -0.06488,-0.2585 -0.08394,-0.50403 -0.04237,-0.54561 0.04158,-0.0416 0.128679,0.13591 0.193558,0.39441 0.06488,0.2585 0.08394,0.50403 0.04237,0.5456 -0.04158,0.0416 -0.128678,-0.1359 -0.193557,-0.3944 z m -0.249332,-1.13393 c 0,-0.24254 0.04004,-0.34176 0.08897,-0.22049 0.04893,0.12127 0.04893,0.3197 0,0.44097 -0.04893,0.12127 -0.08897,0.0221 -0.08897,-0.22048 z m 269.698596,-0.52917 c 0,-0.24254 0.04,-0.34175 0.089,-0.22049 0.0489,0.12127 0.0489,0.31971 0,0.44097 -0.0489,0.12127 -0.089,0.022 -0.089,-0.22048 z m -269.88891,-0.27928 c 0.0085,-0.20549 0.05026,-0.24728 0.106568,-0.10657 0.05095,0.12733 0.04469,0.27947 -0.01393,0.33808 -0.05861,0.0586 -0.100302,-0.0456 -0.09264,-0.23151 z m 270.0653,-0.60267 c 0,-0.24253 0.04,-0.34175 0.089,-0.22048 0.0489,0.12127 0.0489,0.3197 0,0.44097 -0.0489,0.12127 -0.089,0.0221 -0.089,-0.22049 z m -270.221228,-0.26458 c 0.0036,-0.29104 0.04313,-0.38874 0.08785,-0.21713 0.04472,0.17162 0.04178,0.40975 -0.0065,0.52916 -0.04832,0.11944 -0.08491,-0.021 -0.08131,-0.31203 z m 270.410688,-0.97014 c 0,-0.33955 0.0363,-0.47845 0.0807,-0.30868 0.0444,0.16978 0.0444,0.44759 0,0.61736 -0.0444,0.16978 -0.0807,0.0309 -0.0807,-0.30868 z m -270.580541,-0.17639 c 0,-0.33955 0.0363,-0.47845 0.08067,-0.30868 0.04437,0.16978 0.04437,0.44759 0,0.61736 -0.04437,0.16978 -0.08067,0.0309 -0.08067,-0.30868 z m -0.166862,-1.4993 c 0.0013,-0.48507 0.03558,-0.66257 0.07612,-0.39446 0.04054,0.26813 0.03946,0.665 -0.0024,0.88194 -0.04187,0.21696 -0.07504,-0.002 -0.07372,-0.48748 z m 270.937533,-0.17639 c 0.002,-0.58208 0.0339,-0.79894 0.0732,-0.48191 0.0393,0.31704 0.0385,0.79329 -0.002,1.05833 -0.0402,0.26506 -0.0724,0.006 -0.0714,-0.57642 z m -271.099949,-2.82222 c 4.59e-4,-0.97014 0.03008,-1.34451 0.06582,-0.83194 0.03574,0.51258 0.03537,1.30633 -8.29e-4,1.76389 -0.0362,0.45757 -0.06545,0.0382 -0.06499,-0.93195 z m 271.099949,-1.76389 c 0.002,-0.58209 0.0339,-0.79894 0.0732,-0.48192 0.0393,0.31705 0.0385,0.7933 -0.002,1.05834 -0.0402,0.26506 -0.0724,0.006 -0.0714,-0.57642 z m -270.93994,-1.14653 c 0,-0.43656 0.0344,-0.61516 0.07644,-0.39688 0.04204,0.21829 0.04204,0.57547 0,0.79375 -0.04204,0.21829 -0.07644,0.0397 -0.07644,-0.39687 z m 270.74981,-0.70556 c 0,-0.33955 0.0363,-0.47845 0.0807,-0.30868 0.0444,0.16978 0.0444,0.44759 0,0.61736 -0.0444,0.16978 -0.0807,0.0309 -0.0807,-0.30868 z m -270.587077,-0.79375 c 0.0036,-0.29104 0.04313,-0.38874 0.08785,-0.21713 0.04472,0.17163 0.04178,0.40975 -0.0065,0.52917 -0.04832,0.11943 -0.08491,-0.021 -0.08131,-0.31204 z m 270.397617,-0.26458 c 0,-0.24253 0.04,-0.34175 0.089,-0.22049 0.0489,0.12127 0.0489,0.31971 0,0.44098 -0.0489,0.12126 -0.089,0.022 -0.089,-0.22049 z m -270.227764,-0.88194 c 0,-0.24254 0.04004,-0.34176 0.08897,-0.22049 0.04893,0.12127 0.04893,0.3197 0,0.44097 -0.04893,0.12127 -0.08897,0.0221 -0.08897,-0.22048 z m 270.051374,0 c 0,-0.24254 0.04,-0.34176 0.089,-0.22049 0.0489,0.12127 0.0489,0.3197 0,0.44097 -0.0489,0.12127 -0.089,0.0221 -0.089,-0.22048 z m -269.867671,-0.79375 c 0,-0.19403 0.06355,-0.55122 0.141224,-0.79375 0.111826,-0.34918 0.141224,-0.36755 0.141224,-0.0882 0,0.19403 -0.06355,0.55122 -0.141224,0.79375 -0.111826,0.34918 -0.141224,0.36754 -0.141224,0.0882 z m 269.691281,-0.0882 c 0,-0.24253 0.04,-0.34175 0.089,-0.22048 0.0489,0.12126 0.0489,0.3197 0,0.44097 -0.0489,0.12126 -0.089,0.022 -0.089,-0.22049 z m -0.27984,-0.98273 c -0.0649,-0.2585 -0.0839,-0.50403 -0.0424,-0.54561 0.0416,-0.0416 0.12869,0.13591 0.19357,0.39441 0.0649,0.2585 0.0839,0.50403 0.0424,0.5456 -0.0416,0.0416 -0.12869,-0.1359 -0.19357,-0.3944 z m -269.069033,-0.42838 c 0,-0.14552 0.06822,-0.42333 0.151594,-0.61736 0.09555,-0.22236 0.151594,-0.25497 0.151594,-0.0882 0,0.14553 -0.06822,0.42334 -0.151594,0.61737 -0.09555,0.22235 -0.151594,0.25497 -0.151594,0.0882 z m 268.565073,-1.27252 c -0.16064,-0.5023 -0.26279,-0.94255 -0.227,-0.97833 0.0358,-0.0358 0.20029,0.34209 0.36559,0.83974 0.16529,0.49764 0.26744,0.93789 0.22699,0.97832 -0.0404,0.0404 -0.20496,-0.33743 -0.36558,-0.83973 z m -268.045603,-0.49137 c -0.0053,-0.14552 0.06725,-0.38364 0.16129,-0.52917 0.208373,-0.32243 0.208373,-0.0439 0,0.44098 -0.09996,0.2326 -0.154896,0.26266 -0.16129,0.0882 z m 267.500423,-0.97696 c -0.1702,-0.44357 -0.12,-0.55801 0.0879,-0.20043 0.10296,0.17705 0.15004,0.35907 0.10462,0.40447 -0.0454,0.0454 -0.13206,-0.0464 -0.19256,-0.20404 z m -266.973854,-0.52234 c 0,-0.097 0.113437,-0.37483 0.252083,-0.61737 0.138645,-0.24253 0.252082,-0.36159 0.252082,-0.26458 0,0.097 -0.113437,0.37483 -0.252082,0.61736 -0.138646,0.24254 -0.252083,0.3616 -0.252083,0.26459 z m 266.539744,-0.53672 c -0.29553,-0.64864 -0.23915,-0.78701 0.0804,-0.19734 0.14923,0.27536 0.23832,0.53366 0.19798,0.574 -0.0403,0.0403 -0.16561,-0.12915 -0.27839,-0.37666 z m -266.023078,-0.67301 c 0,-0.19168 1.228837,-2.58264 1.327351,-2.58264 0.04851,0 -0.19992,0.57547 -0.552061,1.27882 -0.660695,1.31964 -0.77529,1.51236 -0.77529,1.30382 z m 264.671508,-2.05347 c -0.15049,-0.29104 -0.23396,-0.52917 -0.18545,-0.52917 0.0485,0 0.21135,0.23813 0.36184,0.52917 0.1505,0.29104 0.23396,0.52917 0.18546,0.52917 -0.0485,0 -0.21135,-0.23813 -0.36185,-0.52917 z m -263.084008,-1.05833 c 0.10384,-0.19403 0.228488,-0.35278 0.276995,-0.35278 0.04851,0 0.0032,0.15875 -0.100606,0.35278 -0.103841,0.19403 -0.228489,0.35278 -0.276996,0.35278 -0.04851,0 -0.0032,-0.15875 0.100607,-0.35278 z m 261.669198,-1.19063 c -0.70813,-1.05344 -1.99706,-2.4953 -4.06024,-4.54201 -2.79492,-2.77257 -83.89722,-87.83486 -84.6374,-88.76999 -0.23365,-0.29519 -0.28535,-0.51433 -0.17639,-0.74776 0.0848,-0.1816 4.63881,-5.03634 10.1201,-10.7883 26.57406,-27.88633 40.02105,-42.006892 54.64827,-57.385626 8.76596,-9.21632 17.30901,-18.10632 18.98458,-19.755556 1.67557,-1.649237 3.54226,-3.673299 4.14819,-4.497917 1.2225,-1.663688 1.48182,-1.962489 0.9543,-1.09955 -0.70783,1.157862 -2.74015,3.569285 -3.77834,4.483149 -1.15951,1.020645 -10.19272,10.467198 -53.69087,56.14765 -15.70447,16.49237 -29.1761,30.63126 -29.93693,31.41977 -0.76086,0.78851 -1.38337,1.5553 -1.38337,1.70397 0,0.28989 80.84732,85.27825 85.19119,89.55474 2.27642,2.24109 3.29182,3.44558 4.49815,5.33577 0.17025,0.26678 0.27506,0.48507 0.2329,0.48507 -0.0422,0 -0.54354,-0.69454 -1.11414,-1.54341 z m -261.017712,0.11873 c 0.175259,-0.2985 0.431368,-0.63585 0.569132,-0.74965 0.137764,-0.11381 0.028,0.13042 -0.243925,0.54273 -0.570973,0.86575 -0.796145,1.00901 -0.325207,0.20692 z m 1.123656,-1.57394 c 0.216902,-0.33954 1.394508,-1.61025 2.616904,-2.82377 2.88844,-2.86748 4.634032,-4.69254 38.210911,-39.95053 15.613613,-16.39535 32.45752,-34.07724 37.430907,-39.2931 4.973385,-5.21585 9.042519,-9.61244 9.042519,-9.77019 0,-0.15776 -0.741503,-1.04961 -1.647786,-1.98191 C 62.294087,146.3944 43.992296,127.17693 22.529724,104.6212 1.0671522,82.065467 -17.703365,62.420154 -19.182536,60.964945 c -1.479173,-1.455208 -2.882224,-2.872417 -3.117896,-3.149353 -1.535885,-1.804815 7.42431,7.329102 14.9422901,15.231993 4.9374528,5.190243 19.3716859,20.350869 32.0760779,33.690275 12.704389,13.33941 26.27089,27.58723 30.147778,31.66181 3.876888,4.07458 7.748624,8.13186 8.603858,9.01617 0.855236,0.88431 1.554972,1.73706 1.554972,1.89499 0,0.15793 -7.241381,7.88784 -16.091955,17.17758 -26.637593,27.95934 -47.5017952,49.86189 -57.0041834,59.84113 -4.9422346,5.19024 -10.0331056,10.46868 -11.3130486,11.72986 -1.279941,1.26118 -2.582685,2.61055 -2.894987,2.99861 -0.515465,0.6405 -0.531458,0.64863 -0.173456,0.0882 z M 65.289127,61.292433 C 22.133854,15.229119 22.321897,15.42846 20.133575,13.42371 c -0.776111,-0.711005 -1.093611,-1.045869 -0.705556,-0.744141 1.800394,1.399874 7.082338,6.971011 45.444455,47.932599 22.532607,24.059445 41.091426,43.841142 41.241816,43.959322 0.1504,0.11818 0.19407,0.21433 0.0971,0.21367 -0.097,-7.1e-4 -18.512016,-19.572396 -40.922223,-43.492727 z m 41.740333,43.137627 c 0.25578,-0.23442 15.3339,-16.301224 33.50692,-35.704003 47.17739,-50.369862 50.77893,-54.196282 52.22153,-55.482304 1.35842,-1.210976 2.17685,-1.848346 3.05899,-2.38227 0.79244,-0.479633 0.32415,-0.06889 -0.97014,0.850897 -0.63059,0.448135 -2.07379,1.712039 -3.20709,2.808677 -1.13331,1.096637 -16.85228,17.789512 -34.93103,37.095277 -18.07875,19.305765 -36.66283,39.149516 -41.29796,44.097224 -4.63513,4.947712 -8.52173,9.028882 -8.6369,9.069282 -0.11516,0.0404 -1e-4,-0.11835 0.25568,-0.35278 z M -23.016005,56.863904 c -0.219405,-0.279764 -0.213166,-0.286003 0.0666,-0.0666 0.169774,0.133147 0.308681,0.272054 0.308681,0.308681 0,0.145175 -0.144849,0.05174 -0.375277,-0.242083 z m -0.820954,-1.146528 c -0.643791,-0.950745 -0.783057,-1.190625 -0.691236,-1.190625 0.0405,0 0.363493,0.436562 0.717768,0.970139 0.354274,0.533576 0.60745,0.970139 0.562613,0.970139 -0.04484,0 -0.309953,-0.337344 -0.589145,-0.749653 z m -1.185019,-1.896181 c -0.150504,-0.291042 -0.233955,-0.529167 -0.185448,-0.529167 0.04851,0 0.211333,0.238125 0.361837,0.529167 0.150503,0.291042 0.233955,0.529167 0.185448,0.529167 -0.04851,0 -0.211334,-0.238125 -0.361837,-0.529167 z M 238.25945,53.380223 c 0.31099,-0.582084 0.64045,-1.137709 0.73214,-1.234722 0.25793,-0.272955 -0.68794,1.541788 -1.01131,1.940277 -0.15745,0.194028 -0.0318,-0.123472 0.27917,-0.705555 z M -25.734787,52.574738 c -0.06395,-0.103468 -0.07844,-0.225955 -0.0322,-0.272191 0.04624,-0.04624 0.131068,0.03842 0.188516,0.188124 0.119271,0.310816 0.01761,0.365488 -0.156316,0.08407 z M 239.31154,51.439945 c 0,-0.09701 0.1521,-0.454201 0.33799,-0.79375 0.1859,-0.339549 0.338,-0.537986 0.338,-0.440972 0,0.09701 -0.1521,0.454201 -0.338,0.79375 -0.18589,0.339548 -0.33799,0.537986 -0.33799,0.440972 z M -26.492631,50.903223 c -0.295537,-0.648633 -0.239154,-0.78701 0.08041,-0.197336 0.149229,0.275364 0.238319,0.533668 0.197979,0.574008 -0.04034,0.04034 -0.165614,-0.129161 -0.278387,-0.376672 z m -0.538221,-1.33496 c -0.108668,-0.311725 -0.16671,-0.597643 -0.128982,-0.635369 0.03773,-0.03773 0.157506,0.186452 0.266174,0.498177 0.108668,0.311725 0.16671,0.597643 0.128982,0.635369 -0.03773,0.03773 -0.157505,-0.186452 -0.266174,-0.498177 z m 267.038562,0.284182 c 0,-0.09701 0.0769,-0.295452 0.17099,-0.440972 0.0941,-0.145521 0.17099,-0.185209 0.17099,-0.08819 0,0.09701 -0.0769,0.295452 -0.17099,0.440972 -0.094,0.145521 -0.17099,0.185209 -0.17099,0.0882 z m 0.4626,-1.146528 c 0.0614,-0.242535 0.22048,-0.718785 0.3536,-1.058333 0.20714,-0.528301 0.22756,-0.543834 0.14166,-0.107673 -0.0552,0.280327 -0.21435,0.756577 -0.35362,1.058333 -0.19047,0.41269 -0.22557,0.439372 -0.14164,0.107673 z M -27.655212,47.723179 c -0.06488,-0.2585 -0.08394,-0.504018 -0.04237,-0.545596 0.04158,-0.04158 0.128678,0.135906 0.193557,0.394406 0.06488,0.258499 0.08394,0.504017 0.04237,0.545595 -0.04158,0.04158 -0.128679,-0.135906 -0.193558,-0.394405 z m -0.263257,-1.060433 c 0.0085,-0.205484 0.05026,-0.247279 0.106568,-0.106569 0.05095,0.12733 0.04469,0.279467 -0.01393,0.33808 -0.05861,0.05861 -0.100302,-0.04557 -0.09264,-0.231511 z m 269.003909,0.102893 c 0,-0.145521 0.0682,-0.423333 0.15159,-0.617361 0.0956,-0.222363 0.15159,-0.254967 0.15159,-0.08819 0,0.14552 -0.0682,0.423333 -0.15159,0.617361 -0.0956,0.222363 -0.15159,0.254966 -0.15159,0.08819 z M -28.094858,45.957191 c 0.0085,-0.205485 0.05026,-0.24728 0.106568,-0.106569 0.05095,0.12733 0.04469,0.279467 -0.01393,0.338079 -0.05861,0.05861 -0.100302,-0.04557 -0.09264,-0.23151 z M 241.44127,45.354528 c 0,-0.242535 0.04,-0.341754 0.089,-0.220486 0.0489,0.121267 0.0489,0.319705 0,0.440972 -0.0489,0.121267 -0.089,0.02205 -0.089,-0.220486 z M -28.257321,45.178139 c 0,-0.242535 0.04003,-0.341753 0.08897,-0.220486 0.04893,0.121267 0.04893,0.319705 0,0.440972 -0.04893,0.121268 -0.08897,0.02205 -0.08897,-0.220486 z m 269.861051,-0.63206 c 0.008,-0.205484 0.0503,-0.247279 0.10657,-0.106568 0.051,0.127329 0.0447,0.279467 -0.0139,0.338079 -0.0586,0.05861 -0.10031,-0.04557 -0.0927,-0.231511 z M -28.43371,44.296195 c 0,-0.242535 0.04003,-0.341754 0.08897,-0.220487 0.04893,0.121268 0.04893,0.319705 0,0.440973 -0.04893,0.121267 -0.08897,0.02205 -0.08897,-0.220486 z m 270.23429,-0.617362 c 0.004,-0.291041 0.0431,-0.38875 0.0879,-0.217129 0.0447,0.171621 0.0418,0.409746 -0.007,0.529167 -0.0483,0.11942 -0.0849,-0.021 -0.0813,-0.312038 z M -28.597027,43.237861 c 0,-0.339548 0.0363,-0.478455 0.08067,-0.30868 0.04437,0.169774 0.04437,0.447586 0,0.617361 -0.04437,0.169774 -0.08067,0.03087 -0.08067,-0.308681 z M 241.98351,42.532306 c 0,-0.339549 0.0363,-0.478455 0.0807,-0.308681 0.0444,0.169774 0.0444,0.447587 0,0.617361 -0.0444,0.169774 -0.0807,0.03087 -0.0807,-0.30868 z M -28.766297,41.650361 c 0,-0.436562 0.0344,-0.615156 0.07644,-0.396875 0.04204,0.218281 0.04204,0.575469 0,0.79375 -0.04204,0.218281 -0.07644,0.03969 -0.07644,-0.396875 z M 242.17184,40.768417 c 0,-0.533577 0.0331,-0.751858 0.0735,-0.48507 0.0404,0.266788 0.0404,0.703351 0,0.970139 -0.0404,0.266788 -0.0735,0.04851 -0.0735,-0.485069 z M -28.929095,38.828139 c 0,-0.824618 0.03038,-1.161962 0.06752,-0.749653 0.03714,0.412309 0.03714,1.086997 0,1.499306 -0.03714,0.412309 -0.06752,0.07496 -0.06752,-0.749653 z m 0.165206,-2.734028 c 0.0013,-0.48507 0.03558,-0.662572 0.07612,-0.39445 0.04054,0.268122 0.03946,0.664997 -0.0024,0.881945 -0.04187,0.216947 -0.07504,-0.0024 -0.07372,-0.487495 z M 242.17364,35.917722 c 0.002,-0.582083 0.0339,-0.798943 0.0732,-0.48191 0.0393,0.317032 0.0384,0.793282 -0.002,1.058333 -0.0402,0.265051 -0.0724,0.0057 -0.0714,-0.576423 z M -28.597027,34.418416 c 0,-0.339548 0.0363,-0.478455 0.08067,-0.30868 0.04437,0.169774 0.04437,0.447587 0,0.617361 -0.04437,0.169774 -0.08067,0.03087 -0.08067,-0.308681 z M 241.98351,34.065639 c 0,-0.339549 0.0363,-0.478455 0.0807,-0.308681 0.0444,0.169774 0.0444,0.447587 0,0.617361 -0.0444,0.169774 -0.0807,0.03087 -0.0807,-0.30868 z M -28.427174,33.271888 c 0.0036,-0.291041 0.04313,-0.38875 0.08785,-0.217129 0.04472,0.171621 0.04178,0.409746 -0.0065,0.529167 -0.04832,0.11942 -0.08491,-0.021 -0.08131,-0.312038 z M 241.80058,32.919111 c 0.004,-0.291042 0.0431,-0.388751 0.0879,-0.21713 0.0447,0.171621 0.0418,0.409746 -0.007,0.529167 -0.0483,0.119421 -0.0849,-0.021 -0.0813,-0.312037 z M -28.271247,32.375246 c 0.0085,-0.205485 0.05026,-0.24728 0.106568,-0.106569 0.05095,0.127329 0.04469,0.279465 -0.01393,0.338079 -0.05861,0.05861 -0.100302,-0.04557 -0.09264,-0.23151 z M 241.61766,31.948972 c 0,-0.242535 0.04,-0.341754 0.089,-0.220486 0.0489,0.121267 0.0489,0.319705 0,0.440972 -0.0489,0.121267 -0.089,0.02205 -0.089,-0.220486 z M -28.080933,31.596194 c 0,-0.242535 0.04004,-0.341754 0.08897,-0.220486 0.04893,0.121267 0.04893,0.319705 0,0.440972 -0.04893,0.121267 -0.08897,0.02205 -0.08897,-0.220486 z M 241.42734,31.140523 c 0.008,-0.205484 0.0503,-0.247279 0.10657,-0.106569 0.051,0.12733 0.0447,0.279466 -0.0139,0.33808 -0.0586,0.05861 -0.10031,-0.04557 -0.0927,-0.231511 z M -27.907599,30.890638 c 0,-0.14552 0.06822,-0.423333 0.151593,-0.617361 0.09555,-0.222363 0.151594,-0.254966 0.151594,-0.08819 0,0.145521 -0.06822,0.423333 -0.151594,0.617361 -0.09555,0.222363 -0.151593,0.254967 -0.151593,0.08819 z m 269.158549,-0.45567 c 0.008,-0.205485 0.0503,-0.24728 0.10657,-0.106569 0.051,0.12733 0.0447,0.279465 -0.0139,0.338079 -0.0586,0.05861 -0.10031,-0.04557 -0.0927,-0.23151 z m -0.26591,-0.879846 c -0.0649,-0.258499 -0.0839,-0.504017 -0.0424,-0.545595 0.0416,-0.04158 0.12869,0.135906 0.19356,0.394405 0.0649,0.2585 0.084,0.504017 0.0424,0.545596 -0.0416,0.04158 -0.12869,-0.135906 -0.19357,-0.394406 z m -268.551527,0.179141 c -0.01863,-0.264192 0.717444,-2.405181 0.798896,-2.323728 0.03708,0.03708 -0.12455,0.616989 -0.359175,1.28869 -0.234626,0.671701 -0.4325,1.137469 -0.439721,1.035038 z m 0.874217,-2.635986 c 0,-0.09701 0.07694,-0.295451 0.170986,-0.440972 0.09404,-0.145521 0.170987,-0.185208 0.170987,-0.0882 0,0.09701 -0.07694,0.295452 -0.170987,0.440973 -0.09404,0.14552 -0.170986,0.185208 -0.170986,0.08819 z m 266.80456,-0.183208 c -0.1702,-0.443563 -0.12,-0.558015 0.088,-0.200438 0.10296,0.177051 0.15003,0.359068 0.10461,0.404483 -0.0454,0.04542 -0.13206,-0.04641 -0.19256,-0.204045 z M 239.67818,25.856 c -0.29552,-0.648633 -0.23915,-0.78701 0.0804,-0.197337 0.14923,0.275364 0.23832,0.533668 0.19798,0.574009 -0.0403,0.04034 -0.16561,-0.129161 -0.27839,-0.376672 z m -265.846686,0.03304 c 0,-0.191825 1.405024,-2.9359 1.503243,-2.9359 0.07896,0 -1.270234,2.804416 -1.435552,2.983913 -0.03723,0.04042 -0.06769,0.01882 -0.06769,-0.04801 z M 238.80315,23.919407 c -0.21107,-0.434434 -0.34671,-0.78988 -0.30143,-0.78988 0.11948,0 0.83222,1.432733 0.75242,1.512529 -0.037,0.03698 -0.23992,-0.288216 -0.45099,-0.722649 z M -24.401715,22.423971 c 0.306752,-0.5957 1.578304,-2.469444 1.675803,-2.469444 0.0783,0 -1.616949,2.650941 -1.803515,2.820247 -0.05465,0.04959 0.0028,-0.108268 0.127712,-0.350803 z M 237.86441,22.203485 c -0.11554,-0.218281 -0.32514,-0.595312 -0.46579,-0.837847 -0.24534,-0.423039 -0.24368,-0.426627 0.0409,-0.08819 0.35156,0.418104 0.84501,1.322917 0.72147,1.322917 -0.0476,0 -0.18105,-0.178594 -0.29656,-0.396875 z m -2.02419,-3.075665 c -1.73002,-2.424415 -4.85979,-5.368224 -8.3624,-7.865541 -0.38322,-0.273231 -0.3885,-0.289359 -0.0409,-0.124819 1.04545,0.494802 4.05507,3.000657 5.87204,4.889142 1.71989,1.787611 3.73318,4.280703 3.45685,4.280703 -0.0462,0 -0.46272,-0.530769 -0.92564,-1.179485 z M -22.007341,18.940291 c 2.110844,-2.616671 4.19492,-4.620344 6.525209,-6.27347 1.508003,-1.069789 1.113012,-0.649832 -0.588111,0.625283 -1.812704,1.358754 -3.983561,3.453378 -5.414284,5.224158 -0.560753,0.694032 -1.059858,1.261876 -1.109123,1.261876 -0.04927,0 0.214573,-0.377031 0.586309,-0.837847 z m 39.971915,-7.175337 c -0.819309,-0.579307 -0.934615,-0.744881 -0.242786,-0.348624 0.322755,0.184862 0.669818,0.435332 0.771252,0.556599 0.260678,0.311649 0.138338,0.263503 -0.528466,-0.207975 z m -32.050442,-0.0157 c 0.194028,-0.157982 0.511528,-0.365177 0.705556,-0.460434 l 0.352778,-0.173194 -0.352778,0.287238 c -0.194028,0.157982 -0.511528,0.365177 -0.705556,0.460434 l -0.352777,0.173195 z m 1.146528,-0.70175 c 0,-0.117292 3.1964063,-1.7136961 3.2746295,-1.6354719 0.034567,0.034566 -0.6880845,0.435873 -1.6058905,0.8917929 -0.917806,0.455919 -1.668739,0.790575 -1.668739,0.743679 z m 29.412845,-0.189696 c -0.659419,-0.357741 -0.61928,-0.506739 0.0441,-0.163693 0.291041,0.150503 0.529166,0.311291 0.529166,0.357307 0,0.113506 -0.01895,0.107105 -0.573264,-0.193614 z M 226.49817,10.684379 c -0.32879,-0.263418 -0.32662,-0.266675 0.0545,-0.08199 0.21828,0.105779 0.39687,0.22922 0.39687,0.274314 0,0.134976 -0.0915,0.096 -0.45136,-0.192326 z m -30.06391,-0.154246 c 0,-0.04851 0.15875,-0.173155 0.35278,-0.276996 0.19402,-0.10384 0.35277,-0.149113 0.35277,-0.100606 0,0.04851 -0.15875,0.173155 -0.35277,0.276995 -0.19403,0.103841 -0.35278,0.149114 -0.35278,0.100607 z M 14.930103,9.988554 C 14.49354,9.7547869 14.199047,9.5599363 14.275672,9.5555523 c 0.187316,-0.010717 1.536375,0.6824077 1.536375,0.7893647 0,0.116855 0.0073,0.119812 -0.881944,-0.356363 z M 224.65648,9.7239707 c -0.72761,-0.3784531 -1.26141,-0.692025 -1.18622,-0.6968261 0.1875,-0.011975 2.59733,1.2093964 2.59733,1.3164044 0,0.119103 0.0581,0.144622 -1.41111,-0.6195783 z m -26.9875,0.089249 c 0,-0.1187289 1.78544,-1.0084282 1.8647,-0.929186 0.0361,0.036149 -0.36862,0.2787486 -0.89948,0.5391094 -0.53088,0.2603606 -0.96522,0.4358951 -0.96522,0.3900766 z M -9.2351736,9.194804 c 0.1455208,-0.094043 0.3439583,-0.1709868 0.4409722,-0.1709868 0.097014,0 0.057326,0.076944 -0.088194,0.1709868 -0.1455208,0.094043 -0.3439583,0.1709868 -0.4409722,0.1709868 -0.097014,0 -0.057326,-0.076944 0.088194,-0.1709868 z M 12.725242,9.0057276 C 12.337186,8.8191117 12.218124,8.715829 12.460658,8.7762106 c 0.499444,0.124342 1.416334,0.5840458 1.146528,0.5748385 -0.09701,-0.00331 -0.493889,-0.1587054 -0.881944,-0.3453215 z M -8.3532292,8.8717851 c 0.1455208,-0.089911 0.4630208,-0.2165538 0.7055555,-0.2814281 0.3064722,-0.081977 0.3602725,-0.068092 0.1763889,0.045521 -0.1455208,0.089911 -0.4630208,0.2165539 -0.7055555,0.2814281 -0.3064722,0.081977 -0.3602725,0.068092 -0.1763889,-0.045521 z M 222.53981,8.7538318 c -0.24253,-0.1386454 -0.36159,-0.2520825 -0.26458,-0.2520825 0.097,0 0.37483,0.1134371 0.61736,0.2520825 0.24253,0.1386453 0.3616,0.2520825 0.26458,0.2520825 -0.097,0 -0.37482,-0.1134372 -0.61736,-0.2520825 z M 200.13842,8.5923654 c 0.24254,-0.1295452 0.63941,-0.2849399 0.88195,-0.3453215 0.24253,-0.060382 0.12347,0.042901 -0.26458,0.229517 -0.79823,0.383871 -1.29299,0.4766768 -0.61737,0.1158045 z M -6.3247571,8.1364706 c 0.1940278,-0.083377 0.4718403,-0.1515937 0.6173611,-0.1515937 0.1667721,0 0.1341684,0.056041 -0.088195,0.1515937 -0.1940277,0.083377 -0.4718402,0.1515938 -0.617361,0.1515938 -0.1667722,0 -0.1341685,-0.056041 0.088195,-0.1515938 z M 220.33495,7.9450876 C 219.84988,7.757851 219.68237,7.649233 219.9627,7.7037144 c 0.55469,0.1078059 1.717,0.5799198 1.43058,0.5810855 -0.097,3.881e-4 -0.57326,-0.1524756 -1.05833,-0.3397123 z M 9.5502419,7.9600817 C 9.3278791,7.8645292 9.2952753,7.808488 9.4620475,7.808488 c 0.1455208,0 0.4233333,0.068217 0.6173615,0.1515937 0.222362,0.095553 0.254966,0.1515938 0.08819,0.1515938 -0.145521,0 -0.4233333,-0.068217 -0.6173611,-0.1515938 z M -5.2113023,7.839588 C -5.0839725,7.788634 -4.931837,7.794901 -4.873223,7.853514 -4.814611,7.912127 -4.918791,7.953816 -5.1047334,7.946157 -5.3102176,7.937697 -5.352013,7.895897 -5.2113023,7.839588 Z M -4.296285,7.6073039 c 0.2425347,-0.077673 0.5997222,-0.141224 0.79375,-0.141224 0.2793417,0 0.2609814,0.029398 -0.088195,0.141224 -0.2425347,0.077673 -0.5997222,0.141224 -0.7937499,0.141224 -0.2793418,0 -0.2609815,-0.029398 0.088195,-0.141224 z m 12.8322909,0.05957 c 0.1212673,-0.048932 0.3197048,-0.048932 0.4409722,0 0.1212673,0.048933 0.022049,0.088968 -0.2204861,0.088968 -0.2425347,0 -0.3417535,-0.040036 -0.2204861,-0.088968 z M 7.8414747,7.4868102 C 7.9688045,7.4358562 8.1209417,7.4421232 8.179554,7.5007362 8.238166,7.5593492 8.133986,7.6010382 7.9480436,7.5933792 7.7425593,7.5849159 7.700764,7.5431187 7.8414747,7.4868107 Z M 203.40162,7.430915 c 0.19403,-0.083376 0.47184,-0.1515937 0.61736,-0.1515937 0.16678,0 0.13416,0.056041 -0.0882,0.1515937 -0.19403,0.083377 -0.47184,0.1515938 -0.61737,0.1515938 -0.16677,0 -0.13416,-0.056041 0.0882,-0.1515938 z m 15.16944,0 c -0.22235,-0.095553 -0.25497,-0.1515937 -0.0882,-0.1515937 0.14552,0 0.42333,0.068217 0.61736,0.1515937 0.22235,0.095553 0.25497,0.1515938 0.0882,0.1515938 -0.14552,0 -0.42333,-0.068217 -0.61736,-0.1515938 z M -2.8377201,7.3086791 c 0.1716211,-0.044722 0.4097461,-0.041781 0.5291667,0.00654 0.1194205,0.048317 -0.020996,0.084908 -0.3120372,0.081313 -0.2910417,-0.00359 -0.3887505,-0.043127 -0.2171295,-0.087849 z m 9.7013883,0 c 0.1716211,-0.044722 0.4097461,-0.041781 0.5291667,0.00654 0.1194205,0.048317 -0.020996,0.084908 -0.3120372,0.081313 C 6.789756,7.3929327 6.6920471,7.3534008 6.8636682,7.3086791 Z M -1.5161035,7.1297732 c 0.2194119,-0.042191 0.53691191,-0.040589 0.70555555,0.00356 0.16864364,0.044149 -0.0108832,0.078669 -0.39893165,0.076711 -0.3880556,-0.00196 -0.5260358,-0.03808 -0.3066239,-0.080271 z m 6.965304,0.00316 c 0.1697743,-0.044367 0.4475868,-0.044367 0.6173611,0 0.1697743,0.044367 0.030868,0.080667 -0.3086805,0.080667 -0.3395486,0 -0.4784549,-0.0363 -0.3086806,-0.080667 z m 199.0548495,0.00477 c 0.12127,-0.048932 0.3197,-0.048932 0.44097,0 0.12127,0.048933 0.0221,0.088968 -0.22048,0.088968 -0.24254,0 -0.34176,-0.040035 -0.22049,-0.088968 z m 13.05278,0 c 0.12126,-0.048932 0.3197,-0.048932 0.44097,0 0.12127,0.048933 0.022,0.088968 -0.22049,0.088968 -0.24253,0 -0.34175,-0.040035 -0.22048,-0.088968 z M 0.95128414,6.947169 c 0.70335066,-0.03348 1.85428806,-0.03348 2.55763876,0 0.7033506,0.033481 0.1278819,0.060874 -1.2788194,0.060874 -1.4067013,0 -1.98217002,-0.027393 -1.27881936,-0.060874 z M 205.38599,6.9613207 c 0.12127,-0.048932 0.31971,-0.048932 0.44098,0 0.12126,0.048933 0.022,0.088968 -0.22049,0.088968 -0.24253,0 -0.34175,-0.040036 -0.22049,-0.088968 z m 11.28889,0 c 0.12127,-0.048932 0.31971,-0.048932 0.44097,0 0.12127,0.048933 0.0221,0.088968 -0.22048,0.088968 -0.24254,0 -0.34176,-0.040036 -0.22049,-0.088968 z M 206.26794,6.7849318 c 0.12127,-0.048932 0.3197,-0.048932 0.44097,0 0.12127,0.048933 0.0221,0.088968 -0.22049,0.088968 -0.24253,0 -0.34175,-0.040035 -0.22048,-0.088968 z m 9.44015,-0.00542 c 0.17163,-0.044722 0.40976,-0.041781 0.52917,0.00654 0.11943,0.048317 -0.021,0.084908 -0.31203,0.081313 -0.29104,-0.00359 -0.38874,-0.043127 -0.21714,-0.087849 z m -8.20337,-0.178906 c 0.21941,-0.042191 0.53691,-0.040589 0.70556,0.00356 0.16863,0.044149 -0.0109,0.078669 -0.39894,0.076711 -0.38805,-0.00196 -0.52604,-0.03808 -0.30662,-0.080271 z m 6.87917,0 c 0.21941,-0.042191 0.53691,-0.040589 0.70556,0.00356 0.16862,0.044149 -0.0109,0.078669 -0.39894,0.076711 -0.38806,-0.00196 -0.52605,-0.03808 -0.30662,-0.080271 z M 209.9721,6.4180006 c 0.70336,-0.033481 1.85429,-0.033481 2.55764,0 0.70335,0.033481 0.12789,0.060874 -1.27882,0.060874 -1.4067,0 -1.98217,-0.027393 -1.27882,-0.060874 z"
         id="path229" /><path
         style="fill:#010101;stroke-width:0.176389"
         d="m 208.25231,291.41494 c -3.16434,-0.43326 -6.42706,-1.43873 -9.23588,-2.84618 -2.45845,-1.23188 -3.98919,-2.31462 -6.23586,-4.41085 -1.07572,-1.00368 -15.67575,-16.47158 -32.44449,-34.37309 -16.76874,-17.90152 -35.52287,-37.92065 -41.67584,-44.48698 -6.15297,-6.56634 -11.2925,-11.97919 -11.42118,-12.02856 -0.12868,-0.0494 -0.33997,-0.0491 -0.46953,0 -0.12957,0.0497 -18.815143,19.91299 -41.523505,44.14058 -22.708362,24.22762 -42.189782,44.92386 -43.292043,45.99166 -3.841535,3.72146 -8.133623,5.95925 -13.7266566,7.15677 -2.7203734,0.58245 -8.04299598,0.58738 -10.9067929,0.01 -6.469937,-1.30421 -11.9103225,-4.27088 -16.4381685,-8.96378 -2.707685,-2.8064 -4.386562,-5.2128 -6.014478,-8.62081 -4.09841,-8.57993 -4.179551,-18.35166 -0.221792,-26.70997 1.563638,-3.30222 2.954229,-5.23306 5.789437,-8.03865 1.372529,-1.35819 6.541739,-6.716 11.4871314,-11.90625 4.9453938,-5.19024 16.1750524,-16.97743 24.9547966,-26.19375 8.779746,-9.21632 23.204553,-24.35763 32.05513,-33.64737 8.850574,-9.28909 16.091955,-17.019 16.091955,-17.17693 0,-0.15793 -0.699736,-1.01068 -1.554972,-1.89499 -0.855234,-0.88431 -4.72697,-4.94159 -8.603858,-9.01617 C 50.988826,134.32509 37.422325,120.07727 24.717936,106.73786 12.013544,93.398454 -2.4199183,78.237828 -7.3564256,73.047585 -12.292935,67.857342 -17.697855,62.261404 -19.36736,60.612168 c -3.368345,-3.327448 -4.867012,-5.334431 -6.43988,-8.624142 -4.634775,-9.693805 -3.781332,-21.35056 2.242002,-30.622388 4.613156,-7.101113 11.754335,-12.0203169 19.9745085,-13.7594453 2.3104738,-0.4888232 7.0813979,-0.6737539 9.436805,-0.3657898 4.6342635,0.6059195 9.5444785,2.5538401 13.0506195,5.1772831 0.67791,0.507242 2.558507,2.271632 4.179103,3.920868 1.620595,1.649237 20.940157,22.207363 42.932358,45.684725 34.715054,37.059404 40.050744,42.686111 40.478354,42.686111 0.4225,0 1.69129,-1.27927 8.92211,-8.995832 4.63626,-4.947708 23.22145,-24.791459 41.30039,-44.097224 18.07896,-19.305765 33.83762,-36.037108 35.01923,-37.180763 4.05569,-3.925417 8.23014,-6.15745 13.8182,-7.3884519 2.37548,-0.5232998 8.47959,-0.5766238 10.90796,-0.095289 4.18734,0.8299916 9.00267,2.8717603 12.25199,5.1950199 4.28572,3.064288 7.92213,7.369352 10.24867,12.133133 5.47341,11.207387 3.98637,24.364473 -3.7809,33.45275 -0.63641,0.744644 -1.48975,1.617769 -1.89629,1.940278 -0.67601,0.536281 -9.08131,9.323752 -50.33646,52.625139 -7.85862,8.2484 -18.77309,19.70324 -24.25437,25.4552 -5.48129,5.75196 -10.03533,10.6067 -10.1201,10.7883 -0.10896,0.23343 -0.0573,0.45257 0.17639,0.74776 0.7524,0.95057 81.86107,86.01553 84.64136,88.76999 2.37914,2.35701 3.29885,3.40806 4.29842,4.91229 3.75984,5.65804 5.52599,12.45731 4.97361,19.14724 -1.20843,14.6355 -11.72972,26.43639 -25.89156,29.04049 -1.80472,0.33186 -6.84945,0.48327 -8.51285,0.25552 z m 7.76111,-11.83009 c 5.52583,-1.41075 10.50573,-5.46168 13.10136,-10.65739 2.46927,-4.94274 2.79813,-11.04883 0.86342,-16.03134 -0.99097,-2.55206 -1.81091,-3.67894 -5.1484,-7.07561 -1.71582,-1.74625 -7.16121,-7.42156 -12.10088,-12.61181 -4.93968,-5.19024 -19.37605,-20.35087 -32.08087,-33.69028 -36.39694,-38.21499 -40.64885,-42.68106 -42.2814,-44.4112 -3.13305,-3.32035 -3.9758,-6.50591 -2.51427,-9.50388 0.61086,-1.25303 -6.32607,6.09668 55.82301,-59.144787 13.62846,-14.306572 26.55341,-27.879698 28.72211,-30.162502 2.1687,-2.282802 4.52182,-4.685316 5.22914,-5.338916 1.41908,-1.311321 2.8101,-3.327973 3.63884,-5.275503 3.96999,-9.329323 -0.35574,-20.809247 -9.63937,-25.58168 -3.05793,-1.571993 -5.86757,-2.193394 -9.21309,-2.037628 -3.23026,0.150399 -5.99302,1.05099 -8.66141,2.823404 -0.87376,0.580372 -8.32013,8.422887 -33.77847,35.575563 -17.9617,19.157088 -37.64721,40.151776 -43.74559,46.654859 -6.09838,6.50309 -11.65935,12.49849 -12.35773,13.3231 -1.50414,1.77604 -2.32549,2.36849 -3.81131,2.74914 -1.87225,0.47965 -3.91713,-0.0717 -5.48858,-1.4798 -0.50845,-0.4556 -7.437762,-7.77551 -15.398464,-16.26648 C 79.210763,92.951149 59.231023,71.638961 42.772045,54.081693 10.788783,19.964225 12.232201,21.428037 9.1850746,20.020179 6.7684288,18.903619 5.5075976,18.655061 2.2301035,18.649092 c -2.45960356,-0.0045 -3.13208792,0.05486 -4.3415141,0.383083 -3.6629285,0.994077 -6.6997259,2.795965 -9.3476084,5.546418 -2.819809,2.92904 -4.551696,6.21246 -5.469273,10.36899 -0.447207,2.025816 -0.409194,6.001706 0.07632,7.982162 0.932194,3.802509 2.156354,6.006802 4.77514,8.598396 1.644119,1.627045 20.460572,21.3595 72.406562,75.931369 7.94386,8.34542 15.11583,15.84751 15.937714,16.67131 0.821884,0.82379 1.704176,1.89536 1.960651,2.38125 0.414138,0.78459 0.466331,1.0808 0.466451,2.64732 1.29e-4,1.67933 -0.02927,1.81815 -0.613318,2.89562 -0.368983,0.68071 -1.32165,1.87571 -2.390531,2.99861 -60.224674,63.2682 -86.814461,91.13958 -87.443289,91.6579 -1.620749,1.33597 -3.629695,4.7958 -4.347563,7.48746 -0.541369,2.02989 -0.779443,4.29357 -0.648257,6.16386 0.626844,8.93671 6.664554,16.4166 15.0616576,18.65933 1.46997022,0.39261 2.08604013,0.45847 4.3578301,0.46594 2.8520177,0.009 4.0299108,-0.19086 6.2359519,-1.05993 1.7722464,-0.6982 3.8462974,-1.97913 4.9587514,-3.06253 0.547884,-0.53358 5.042129,-5.29608 9.987214,-10.58333 33.787925,-36.12586 77.858457,-83.13169 78.610737,-83.84654 1.18353,-1.12467 1.98565,-1.61586 3.2289,-1.97728 2.27314,-0.66082 4.31527,0.034 6.11913,2.0819 1.5647,1.77643 0.99793,1.16909 25.72077,27.56205 12.35898,13.19389 31.34917,33.47421 42.2004,45.06737 10.85121,11.59316 20.22852,21.55472 20.83844,22.1368 2.07686,1.98205 5.59432,3.67806 8.56289,4.12875 1.76052,0.26729 5.13221,0.0955 6.87916,-0.35052 z"
         id="path227" /></g></g></svg>
